<svg xmlns="http://www.w3.org/2000/svg" viewBox="0 0 600 300"><defs><style>.a,.b,.f,.h,.k,.l,.m{fill:none;stroke-linecap:round;stroke-linejoin:round;}.a,.b{stroke:#32aec5;}.a,.b,.f{stroke-width:5px;}.b{stroke-dasharray:12.27 12.27;}.c{fill:#ef4638;}.d{fill:#08374a;}.e{fill:#32aec5;}.f{stroke:#fec111;}.g{opacity:0.2;}.h{stroke:#27adc4;}.h,.k{stroke-width:3px;}.i{fill:#27adc4;}.j{fill:#068759;}.k{stroke:#ffecb2;}.l{stroke:#ef4638;}.l,.m{stroke-width:4px;}.m{stroke:#128a7b;}.n{fill:#128a7b;}</style></defs><path class="a" d="M43.41,245.53s.22-2.22.86-5.94"/><path class="b" d="M46.87,227.61c6.62-25.33,24.94-68.19,72.95-64.84,40.07,2.79,130.88,75.44,195.08,30.75"/><path class="a" d="M319.82,189.83q2.28-1.86,4.53-3.93"/><ellipse class="c" cx="232.06" cy="203.3" rx="5.93" ry="5.63" transform="translate(-70.51 143.04) rotate(-29.96)"/><path class="d" d="M436.12,35.94c-.71.94-1.53,2.11-2.48,3.5a20.69,20.69,0,0,0-.21,2.28,2,2,0,0,0,.12.81.45.45,0,0,0,.43.24,1,1,0,0,0,.54-.2,3.3,3.3,0,0,0,.65-.62l.49.46a5.41,5.41,0,0,1-1.24,1.05,2.24,2.24,0,0,1-1.09.28c-.75,0-1.12-.55-1.12-1.64a6,6,0,0,1,.05-.81h-.09a7.44,7.44,0,0,1-1.65,1.88,2.79,2.79,0,0,1-1.67.57,1.59,1.59,0,0,1-1-.35,2.12,2.12,0,0,1-.63-1,3.78,3.78,0,0,1-.2-1.28,7.4,7.4,0,0,1,.57-2.88,5.12,5.12,0,0,1,1.61-2.14,3.75,3.75,0,0,1,2.3-.77A1.94,1.94,0,0,1,433,36a2.74,2.74,0,0,1,.6,1.74h.07l1.11-2.19h1.47Zm-3.69,3.56a10.56,10.56,0,0,0,.14-1.56,2.84,2.84,0,0,0-.28-1.44,1,1,0,0,0-.89-.46,2,2,0,0,0-1.45.69,5.13,5.13,0,0,0-1.07,1.88,7.56,7.56,0,0,0-.4,2.44,2.5,2.5,0,0,0,.25,1.27.83.83,0,0,0,.76.41,2.1,2.1,0,0,0,1.5-.85A8.69,8.69,0,0,0,432.43,39.5Z"/><path class="d" d="M443,37.45V36.33h10.45v1.12ZM443,41V39.84h10.45V41Z"/><path class="d" d="M466.8,35.92l.78-.56.54.13-1.24,5.38a5.65,5.65,0,0,0-.19,1.25.93.93,0,0,0,.11.5.4.4,0,0,0,.35.15.92.92,0,0,0,.54-.21,6.71,6.71,0,0,0,.82-.79l.48.47a7.58,7.58,0,0,1-1.3,1.16,2.13,2.13,0,0,1-1.17.34,1.05,1.05,0,0,1-.84-.35,1.3,1.3,0,0,1-.31-.92,2.84,2.84,0,0,1,.19-1l-.11,0a7.15,7.15,0,0,1-1.54,1.73,2.51,2.51,0,0,1-1.54.55,1.69,1.69,0,0,1-1.45-.7,3.32,3.32,0,0,1-.51-2,7.13,7.13,0,0,1,.57-2.81,5.29,5.29,0,0,1,1.57-2.12,3.59,3.59,0,0,1,2.23-.77,4.22,4.22,0,0,1,1,.12A3.55,3.55,0,0,1,466.8,35.92Zm-.74,2.52c.05-.23.08-.43.1-.6s0-.35,0-.55a1.39,1.39,0,0,0-.28-1A1.24,1.24,0,0,0,465,36a2.16,2.16,0,0,0-1.57.7,4.8,4.8,0,0,0-1.08,1.89,7.48,7.48,0,0,0-.39,2.36,2.82,2.82,0,0,0,.24,1.32.85.85,0,0,0,.81.43,1.66,1.66,0,0,0,1.1-.48,6.51,6.51,0,0,0,1.11-1.38,6,6,0,0,0,.81-2.06Zm6.89-.89a7.09,7.09,0,0,1,1.6-1.66,2.72,2.72,0,0,1,1.56-.52,5,5,0,0,1,1,.09l-.41,1.9h-.87a1.89,1.89,0,0,0-.14-.55.69.69,0,0,0-.22-.27.67.67,0,0,0-.33-.08,1.18,1.18,0,0,0-.66.26,4.59,4.59,0,0,0-.81.83,6.69,6.69,0,0,0-.72,1.07,6.16,6.16,0,0,0-.44,1.32l-.81,3.67h-1.46l1.23-5.38c.07-.34.13-.6.15-.79a4.37,4.37,0,0,0,0-.46.79.79,0,0,0-.11-.49.38.38,0,0,0-.35-.16,1,1,0,0,0-.55.22,6,6,0,0,0-.8.78l-.49-.47a8.4,8.4,0,0,1,1.31-1.16,2.07,2.07,0,0,1,1.16-.34,1.06,1.06,0,0,1,.84.35,1.33,1.33,0,0,1,.31.92,2.51,2.51,0,0,1-.16.87Zm10.89,0a3.8,3.8,0,0,0-.11-.94.79.79,0,0,0-.29-.43,1,1,0,0,0-.56-.14,2.15,2.15,0,0,0-1.54.68,5,5,0,0,0-1.11,1.93,7.38,7.38,0,0,0-.44,2.41,2.06,2.06,0,0,0,.34,1.28,1.24,1.24,0,0,0,1,.42,2.9,2.9,0,0,0,1.33-.29,5.07,5.07,0,0,0,1.2-.92l.51.52a5.66,5.66,0,0,1-1.6,1.28,3.73,3.73,0,0,1-1.75.41A2.31,2.31,0,0,1,479,43a3.14,3.14,0,0,1-.64-2.12,6.92,6.92,0,0,1,.34-2,6.08,6.08,0,0,1,1-1.91,4.48,4.48,0,0,1,1.53-1.23,4.36,4.36,0,0,1,1.87-.4,7.94,7.94,0,0,1,2.07.25l-.41,1.92ZM491.26,42a5.85,5.85,0,0,1-1.42,1.32,2.67,2.67,0,0,1-1.43.42A1.57,1.57,0,0,1,486.64,42a5.17,5.17,0,0,1,.15-1.19l1-4.4h-1.43l.13-.59a3.49,3.49,0,0,0,.76-.07,1.55,1.55,0,0,0,.43-.19,1.17,1.17,0,0,0,.32-.34,3.22,3.22,0,0,0,.28-.56c.09-.23.22-.63.4-1.2h1.17l-.46,2.09H492l-.19.86H489.2l-.75,3.29c-.15.64-.24,1.1-.28,1.38a5,5,0,0,0-.06.67q0,1,.87,1a1.41,1.41,0,0,0,.79-.28,5.45,5.45,0,0,0,1-1Zm8.18-6.08.78-.56.54.13-1.24,5.38a5.65,5.65,0,0,0-.19,1.25.93.93,0,0,0,.11.5.4.4,0,0,0,.35.15.92.92,0,0,0,.54-.21,6.13,6.13,0,0,0,.81-.79l.49.47a7.58,7.58,0,0,1-1.3,1.16,2.13,2.13,0,0,1-1.17.34,1.05,1.05,0,0,1-.84-.35,1.3,1.3,0,0,1-.31-.92,2.84,2.84,0,0,1,.19-1l-.11,0a7.15,7.15,0,0,1-1.54,1.73,2.51,2.51,0,0,1-1.54.55,1.69,1.69,0,0,1-1.45-.7,3.32,3.32,0,0,1-.51-2,7.13,7.13,0,0,1,.57-2.81,5.29,5.29,0,0,1,1.57-2.12,3.59,3.59,0,0,1,2.23-.77,4.22,4.22,0,0,1,1,.12A3.55,3.55,0,0,1,499.44,35.92Zm-.75,2.52a4.32,4.32,0,0,0,.11-.6c0-.17,0-.35,0-.55a1.39,1.39,0,0,0-.28-1,1.24,1.24,0,0,0-1-.3,2.16,2.16,0,0,0-1.57.7,4.8,4.8,0,0,0-1.08,1.89,7.48,7.48,0,0,0-.39,2.36,2.82,2.82,0,0,0,.24,1.32.85.85,0,0,0,.81.43,1.66,1.66,0,0,0,1.1-.48,6.51,6.51,0,0,0,1.11-1.38,6,6,0,0,0,.81-2.06Zm5.45-.21a5.73,5.73,0,0,0,.19-1.25.86.86,0,0,0-.11-.49.38.38,0,0,0-.35-.16,1,1,0,0,0-.55.22,5.48,5.48,0,0,0-.8.78l-.49-.47a8.41,8.41,0,0,1,1.3-1.16,2,2,0,0,1,1.17-.34,1.06,1.06,0,0,1,.84.35,1.33,1.33,0,0,1,.31.92,3.05,3.05,0,0,1-.2,1l.1,0a7.82,7.82,0,0,1,1.58-1.73,2.59,2.59,0,0,1,1.55-.56,1.58,1.58,0,0,1,1.21.45,1.78,1.78,0,0,1,.42,1.26,6.94,6.94,0,0,1-.24,1.52l-.55,2.22a5.86,5.86,0,0,0-.23,1.3.93.93,0,0,0,.11.5.4.4,0,0,0,.35.15.92.92,0,0,0,.54-.21,6.13,6.13,0,0,0,.81-.79l.49.47a7.49,7.49,0,0,1-1.28,1.14,2.17,2.17,0,0,1-1.23.36,1.09,1.09,0,0,1-.88-.39,1.47,1.47,0,0,1-.34-1,7.55,7.55,0,0,1,.28-1.62l.38-1.46c.13-.53.22-.93.26-1.18a3.24,3.24,0,0,0,.07-.62,1.4,1.4,0,0,0-.2-.84.75.75,0,0,0-.63-.26,1.35,1.35,0,0,0-.77.28,4.36,4.36,0,0,0-.87.86,6.11,6.11,0,0,0-.74,1.11,5.42,5.42,0,0,0-.46,1.33l-.81,3.67h-1.46Z"/><path class="d" d="M518,39.51a11,11,0,0,0,1,4.89A4.82,4.82,0,0,0,521.86,47l-.21.66a6.17,6.17,0,0,1-3.8-2.81,9.84,9.84,0,0,1-1.32-5.23,9.89,9.89,0,0,1,1.32-5.23,6.13,6.13,0,0,1,3.8-2.81l.23.65A4.83,4.83,0,0,0,519,34.75,10.48,10.48,0,0,0,518,39.51Z"/><path class="d" d="M529.15,29.85c-.17-1-.39-2.18-.67-3.58s-.5-2.42-.6-2.77a1.9,1.9,0,0,0-.37-.82.4.4,0,0,0-.3-.11.73.73,0,0,0-.51.22,4.24,4.24,0,0,0-.58.76l-.55-.36A4.65,4.65,0,0,1,526.66,22a1.93,1.93,0,0,1,1.14-.36,1.7,1.7,0,0,1,.59.09,1.14,1.14,0,0,1,.34.23,1.41,1.41,0,0,1,.3.44,3.21,3.21,0,0,1,.23.62c.07.24.14.57.22,1q.19,1.09.39,2.31c.13.8.24,1.55.33,2.24a18.79,18.79,0,0,0,1.39-2.33,11.59,11.59,0,0,0,.82-2,4.87,4.87,0,0,0,.25-1.37.67.67,0,0,0-.17-.54,1,1,0,0,0-.57-.17l.08-.41h2.23l.23.42a28,28,0,0,1-1.74,3.77,41.29,41.29,0,0,1-2.49,3.92A18.91,18.91,0,0,1,528,32.53a4.19,4.19,0,0,1-1.19.81,2.48,2.48,0,0,1-1,.19l-.41,0a1.79,1.79,0,0,1-.36-.08l.36-1.65h.67c0,.36.13.55.38.55a1.81,1.81,0,0,0,1.14-.62A13,13,0,0,0,529.15,29.85Z"/><path class="d" d="M538.71,31.92a7.08,7.08,0,0,1-.63.73,3.61,3.61,0,0,1-.58.5,2.1,2.1,0,0,1-.58.29,2,2,0,0,1-.6.09A1.32,1.32,0,0,1,535.2,33a2.47,2.47,0,0,1-.4-1.53,5.29,5.29,0,0,1,.12-1.13,4.86,4.86,0,0,1,.9-1.93,3.8,3.8,0,0,1,.7-.69,3.46,3.46,0,0,1,.82-.45,2.81,2.81,0,0,1,.91-.16,2.77,2.77,0,0,1,.85.12,2.42,2.42,0,0,1,.67.31l.61-.43.47.13c-.11.53-.22,1.05-.34,1.56s-.22,1-.33,1.56-.25,1.2-.35,1.72-.21,1-.33,1.4a4.68,4.68,0,0,1-.43,1.05,2.19,2.19,0,0,1-.64.74,2.82,2.82,0,0,1-1,.46,5.52,5.52,0,0,1-1.4.17,4.82,4.82,0,0,1-1.94-.31,1,1,0,0,1-.65-1,1.13,1.13,0,0,1,0-.32.91.91,0,0,1,.17-.28,1.82,1.82,0,0,1,.28-.27l.42-.28.56.42a1.23,1.23,0,0,0-.29.36.82.82,0,0,0-.08.35.57.57,0,0,0,.35.52,2.55,2.55,0,0,0,1.1.18,4.65,4.65,0,0,0,.69-.05,2,2,0,0,0,.57-.19,1.63,1.63,0,0,0,.47-.37,2.91,2.91,0,0,0,.38-.58,4.9,4.9,0,0,0,.34-.89c.11-.36.22-.78.32-1.27Zm.4-2c0-.23.09-.46.14-.68a3.38,3.38,0,0,0,.06-.6.94.94,0,0,0-.23-.71,1.07,1.07,0,0,0-.72-.21,1.42,1.42,0,0,0-.67.17,2.13,2.13,0,0,0-.58.43,3.41,3.41,0,0,0-.46.63,4.4,4.4,0,0,0-.34.77,5.2,5.2,0,0,0-.22.84,6.2,6.2,0,0,0-.07.84c0,.87.27,1.31.8,1.31a1.21,1.21,0,0,0,.66-.2,2.69,2.69,0,0,0,.71-.67c.14-.16.26-.32.36-.46a3.83,3.83,0,0,0,.25-.44,3.14,3.14,0,0,0,.18-.46C539,30.31,539.07,30.13,539.11,29.92Zm5.5,3.61a2.43,2.43,0,0,1-.92-.16,1.9,1.9,0,0,1-.69-.44,2.09,2.09,0,0,1-.44-.7,2.75,2.75,0,0,1-.15-.93,4.63,4.63,0,0,1,.28-1.64,4.05,4.05,0,0,1,.76-1.33,3.67,3.67,0,0,1,1.14-.89,3.17,3.17,0,0,1,1.44-.33,2.4,2.4,0,0,1,1,.18,1.92,1.92,0,0,1,1.11,1.21,2.54,2.54,0,0,1,.14.88,5.09,5.09,0,0,1-.27,1.7,4.24,4.24,0,0,1-.77,1.31,3.56,3.56,0,0,1-1.16.84A3.44,3.44,0,0,1,544.61,33.53Zm-1-2a1.57,1.57,0,0,0,.29,1,1.12,1.12,0,0,0,.89.34,1.23,1.23,0,0,0,.63-.16,2.27,2.27,0,0,0,.55-.44,3.89,3.89,0,0,0,.44-.65,5.16,5.16,0,0,0,.33-.8A6.63,6.63,0,0,0,547,30a6.94,6.94,0,0,0,.07-.89,1.7,1.7,0,0,0-.27-1,1,1,0,0,0-.86-.36,1.41,1.41,0,0,0-.64.16,1.75,1.75,0,0,0-.56.43,2.81,2.81,0,0,0-.45.64,4,4,0,0,0-.34.79,5.26,5.26,0,0,0-.22.89A5.82,5.82,0,0,0,543.63,31.56Zm10.07.33a7.31,7.31,0,0,1-.61.74,3.75,3.75,0,0,1-.59.51,2.19,2.19,0,0,1-.59.3,2,2,0,0,1-.61.09,1.36,1.36,0,0,1-1.14-.53,2.47,2.47,0,0,1-.4-1.53,4.91,4.91,0,0,1,.13-1.16,5,5,0,0,1,.35-1,4.47,4.47,0,0,1,.56-.89,4.08,4.08,0,0,1,.7-.68,3.42,3.42,0,0,1,.82-.44,2.65,2.65,0,0,1,.89-.16,2.79,2.79,0,0,1,.86.12,2.48,2.48,0,0,1,.68.31l.6-.43.5.13-.93,4.05c0,.23-.09.42-.11.57a3,3,0,0,0,0,.4.53.53,0,0,0,.09.34.37.37,0,0,0,.28.1.57.57,0,0,0,.22,0,1.18,1.18,0,0,0,.23-.14,1.9,1.9,0,0,0,.28-.24c.1-.09.22-.21.34-.34l.21.2c.07.07.13.14.2.2-.21.21-.39.39-.56.54a3,3,0,0,1-.49.37,1.75,1.75,0,0,1-.47.21,1.49,1.49,0,0,1-.47.07.85.85,0,0,1-.69-.29,1.14,1.14,0,0,1-.25-.79,1.89,1.89,0,0,1,.08-.53Zm.4-2c.06-.25.1-.48.14-.69a4,4,0,0,0,0-.59.9.9,0,0,0-.23-.7,1.06,1.06,0,0,0-.73-.22,1.46,1.46,0,0,0-.68.17,2,2,0,0,0-.57.43,3.15,3.15,0,0,0-.46.65,4.09,4.09,0,0,0-.34.77,5.93,5.93,0,0,0-.21.83,4.81,4.81,0,0,0-.07.83,2,2,0,0,0,.19,1,.64.64,0,0,0,.6.32,1.14,1.14,0,0,0,.41-.07,1.61,1.61,0,0,0,.41-.24,4.18,4.18,0,0,0,.93-1A4.88,4.88,0,0,0,554.1,29.92Zm4,1.13c.17-.79.35-1.58.52-2.36s.32-1.39.43-1.81a5.25,5.25,0,0,0,.15-.92.69.69,0,0,0,0-.22.43.43,0,0,0-.13-.14.67.67,0,0,0-.24-.08l-.4,0,.08-.42,1.7-.07h.45c-.26,1.15-.49,2.2-.7,3.15s-.45,2-.7,3.15c-.06.24-.1.44-.12.58a1.84,1.84,0,0,0,0,.39.48.48,0,0,0,.1.34.37.37,0,0,0,.29.1.57.57,0,0,0,.22,0,1.23,1.23,0,0,0,.24-.14,2.6,2.6,0,0,0,.27-.24c.1-.09.22-.21.34-.34l.4.4a7.05,7.05,0,0,1-.57.55,4.46,4.46,0,0,1-.48.37,2,2,0,0,1-.46.2,1.53,1.53,0,0,1-.49.07,1,1,0,0,1-.42-.09,1,1,0,0,1-.53-.6,1.34,1.34,0,0,1-.08-.46,4.72,4.72,0,0,1,0-.57C558,31.59,558,31.34,558.08,31.05Z"/><path class="d" d="M530.93,51.48c-.08-.45-.17-.88-.26-1.29s-.19-.8-.28-1.16a4.3,4.3,0,0,0-.24-.7.54.54,0,0,0-.2-.22.44.44,0,0,0-.26-.07.73.73,0,0,0-.33.08,1.5,1.5,0,0,0-.31.28c-.11.14-.26.34-.45.63l-.55-.37a5.19,5.19,0,0,1,1-1.2,1.74,1.74,0,0,1,1.16-.4,1.6,1.6,0,0,1,.46.06,1.06,1.06,0,0,1,.35.18,1.24,1.24,0,0,1,.27.32,2.25,2.25,0,0,1,.23.53c.07.22.14.5.21.83s.12.67.17,1H532q.81-1.14,1.23-1.68a6.67,6.67,0,0,1,.71-.78,1.83,1.83,0,0,1,.55-.37,2,2,0,0,1,.71-.1,1.71,1.71,0,0,1,.65.1l-.34,1.53h-.59c0-.24-.13-.35-.3-.35a.47.47,0,0,0-.16,0,.83.83,0,0,0-.2.11,2.33,2.33,0,0,0-.36.33l-.54.6-.61.75-.58.72c.11.54.2,1,.29,1.41s.17.72.24,1,.14.47.19.62a1.07,1.07,0,0,0,.17.34.56.56,0,0,0,.2.16.51.51,0,0,0,.22.05.72.72,0,0,0,.45-.18,4.34,4.34,0,0,0,.62-.8l.55.36a5.24,5.24,0,0,1-1.07,1.24,1.85,1.85,0,0,1-1.14.36,1.29,1.29,0,0,1-.62-.13,1.17,1.17,0,0,1-.44-.42,2.66,2.66,0,0,1-.33-.9,12.78,12.78,0,0,1-.33-1.66h-.08c-.6.84-1,1.45-1.34,1.82a8.57,8.57,0,0,1-.72.81,1.9,1.9,0,0,1-.55.37,2,2,0,0,1-.71.1,1.74,1.74,0,0,1-.65-.1l.34-1.53h.59c0,.24.14.35.3.35a.61.61,0,0,0,.25-.06,1.68,1.68,0,0,0,.38-.3c.16-.17.39-.42.68-.76Z"/><path class="d" d="M540.59,57.4a8.35,8.35,0,0,1-.62.73,4.2,4.2,0,0,1-.58.5,2.36,2.36,0,0,1-.58.28,2,2,0,0,1-.61.09,1.33,1.33,0,0,1-1.12-.52,2.55,2.55,0,0,1-.39-1.54,5.19,5.19,0,0,1,.12-1.12,5.09,5.09,0,0,1,.35-1,4.27,4.27,0,0,1,.55-.89,3.87,3.87,0,0,1,.7-.7,3.1,3.1,0,0,1,.82-.44,2.53,2.53,0,0,1,.91-.16,3.13,3.13,0,0,1,.85.11,2.75,2.75,0,0,1,.67.31l.61-.42.47.13c-.12.53-.23,1.05-.34,1.56s-.22,1-.34,1.56-.24,1.19-.34,1.72-.21,1-.33,1.39A5,5,0,0,1,541,60a2.41,2.41,0,0,1-.64.74,2.91,2.91,0,0,1-1,.46,5.59,5.59,0,0,1-1.41.16,4.6,4.6,0,0,1-1.93-.31,1,1,0,0,1-.65-1,1.06,1.06,0,0,1,0-.31,1.18,1.18,0,0,1,.16-.29,1.92,1.92,0,0,1,.29-.27l.42-.28.56.43a1.09,1.09,0,0,0-.29.35.72.72,0,0,0-.08.35.58.58,0,0,0,.35.53,2.55,2.55,0,0,0,1.1.18,3.62,3.62,0,0,0,.69-.06,2,2,0,0,0,.57-.19,1.56,1.56,0,0,0,.46-.36,2.74,2.74,0,0,0,.39-.59,5.25,5.25,0,0,0,.34-.88c.11-.36.21-.78.32-1.27Zm.41-2c0-.24.09-.47.13-.69a2.68,2.68,0,0,0,.07-.59.91.91,0,0,0-.24-.71,1,1,0,0,0-.71-.21,1.45,1.45,0,0,0-.68.16,2.14,2.14,0,0,0-.57.43,3.08,3.08,0,0,0-.46.64,4.89,4.89,0,0,0-.35.77A5.73,5.73,0,0,0,538,56a4.89,4.89,0,0,0-.07.83c0,.88.26,1.32.79,1.32a1.3,1.3,0,0,0,.67-.2,3.07,3.07,0,0,0,.71-.67,5.67,5.67,0,0,0,.35-.47,2.73,2.73,0,0,0,.26-.43,2.38,2.38,0,0,0,.17-.47A5.48,5.48,0,0,0,541,55.4Zm5.5,3.6a2.65,2.65,0,0,1-.92-.15,1.8,1.8,0,0,1-.69-.45,1.86,1.86,0,0,1-.44-.7,2.67,2.67,0,0,1-.15-.93,4.58,4.58,0,0,1,.28-1.63,4.11,4.11,0,0,1,.75-1.33,3.53,3.53,0,0,1,1.15-.89,3.17,3.17,0,0,1,1.44-.33,2.43,2.43,0,0,1,1,.18,1.94,1.94,0,0,1,.69.48A2,2,0,0,1,550,54a2.84,2.84,0,0,1,.14.88,4.87,4.87,0,0,1-.28,1.71,3.83,3.83,0,0,1-.77,1.3,3.32,3.32,0,0,1-1.15.85A3.6,3.6,0,0,1,546.5,59Zm-1-2a1.53,1.53,0,0,0,.29,1,1.14,1.14,0,0,0,.89.34,1.29,1.29,0,0,0,.63-.17,1.87,1.87,0,0,0,.54-.44,2.87,2.87,0,0,0,.45-.65,4.79,4.79,0,0,0,.33-.8,5.11,5.11,0,0,0,.2-.88,5.39,5.39,0,0,0,.07-.88,1.68,1.68,0,0,0-.27-1,1,1,0,0,0-.85-.36,1.44,1.44,0,0,0-.65.15,2.22,2.22,0,0,0-.55.43,3.5,3.5,0,0,0-.46.64,5.83,5.83,0,0,0-.34.8,6.09,6.09,0,0,0-.21.89A5.79,5.79,0,0,0,545.52,57Zm10.07.33a7.28,7.28,0,0,1-.62.75,4.41,4.41,0,0,1-.58.51,2.3,2.3,0,0,1-.59.29,2.11,2.11,0,0,1-.62.09,1.33,1.33,0,0,1-1.13-.52,2.52,2.52,0,0,1-.4-1.54,5.4,5.4,0,0,1,.12-1.15,5.8,5.8,0,0,1,.36-1,5.22,5.22,0,0,1,.55-.88,3.79,3.79,0,0,1,.71-.68,2.9,2.9,0,0,1,.81-.44,2.51,2.51,0,0,1,.9-.16,3.21,3.21,0,0,1,.86.11,2.82,2.82,0,0,1,.68.31l.6-.42.5.13-.93,4a4.6,4.6,0,0,0-.11.57,3.15,3.15,0,0,0,0,.4.51.51,0,0,0,.09.34.38.38,0,0,0,.28.11.63.63,0,0,0,.22,0,1.1,1.1,0,0,0,.23-.13,2.6,2.6,0,0,0,.28-.24l.34-.35.2.21.21.2-.56.54a4.5,4.5,0,0,1-.49.37,1.75,1.75,0,0,1-.47.21,1.86,1.86,0,0,1-.48.06.88.88,0,0,1-.69-.28,1.22,1.22,0,0,1-.24-.79,1.55,1.55,0,0,1,.08-.53Zm.4-2c0-.26.1-.49.13-.69a3.07,3.07,0,0,0,0-.59,1,1,0,0,0-.23-.71,1.06,1.06,0,0,0-.73-.21,1.45,1.45,0,0,0-.68.16,2,2,0,0,0-.57.44,2.75,2.75,0,0,0-.46.64,4.09,4.09,0,0,0-.34.77,4,4,0,0,0-.21.84,4.78,4.78,0,0,0-.07.82,2.07,2.07,0,0,0,.18,1,.65.65,0,0,0,.61.33,1.15,1.15,0,0,0,.41-.08,1.73,1.73,0,0,0,.41-.23,3.84,3.84,0,0,0,.92-1A4.57,4.57,0,0,0,556,55.4Zm4,1.13c.18-.79.36-1.58.53-2.37s.32-1.39.43-1.81a5,5,0,0,0,.15-.92.46.46,0,0,0,0-.21.24.24,0,0,0-.12-.14.52.52,0,0,0-.24-.08l-.41,0,.09-.42,1.7-.07h.44c-.25,1.14-.49,2.19-.7,3.14l-.69,3.15c-.06.25-.1.44-.13.59a2.75,2.75,0,0,0,0,.38.51.51,0,0,0,.09.34.39.39,0,0,0,.3.11.63.63,0,0,0,.22,0,1.1,1.1,0,0,0,.23-.13,1.9,1.9,0,0,0,.28-.24l.34-.35.4.41q-.31.32-.57.54a3,3,0,0,1-.49.37,1.52,1.52,0,0,1-.45.21,1.93,1.93,0,0,1-.49.06,1,1,0,0,1-.75-.32,1.07,1.07,0,0,1-.21-.36,1.72,1.72,0,0,1-.07-.47,4.42,4.42,0,0,1,.05-.56C559.85,57.07,559.9,56.81,560,56.53Z"/><rect class="d" x="525" y="38.13" width="41.33" height="1.13"/><path class="d" d="M570.54,39.51a10.62,10.62,0,0,0-.95-4.76,4.82,4.82,0,0,0-2.94-2.55l.23-.65a6.1,6.1,0,0,1,3.8,2.81A9.8,9.8,0,0,1,572,39.59a9.84,9.84,0,0,1-1.32,5.23,6.19,6.19,0,0,1-3.81,2.81l-.2-.66a4.88,4.88,0,0,0,2.91-2.57A11.12,11.12,0,0,0,570.54,39.51Z"/><path class="e" d="M393.21,225.06a6,6,0,0,0-1.22-.15c-.8,0-1.21.42-1.21,1.27v.91h2.27v.75h-2.27v3.67h-.91v-3.67H388.2v-.75h1.67v-.86c0-1.38.72-2.07,2.15-2.07a6.64,6.64,0,0,1,1.19.13Z"/><path class="e" d="M396.14,225h-1.53v-.73h2.44v6.53h1.54v.75h-4.15v-.75h1.7Z"/><path class="e" d="M404.65,228.88a3.59,3.59,0,0,1-.17,1.11,2.51,2.51,0,0,1-.49.86,2.23,2.23,0,0,1-.78.56,3,3,0,0,1-2,0,1.93,1.93,0,0,1-.75-.51,2.31,2.31,0,0,1-.47-.83,3.92,3.92,0,0,1-.16-1.14,3.52,3.52,0,0,1,.17-1.1,2.63,2.63,0,0,1,.49-.85,2.19,2.19,0,0,1,.78-.56,2.64,2.64,0,0,1,1-.2,2.83,2.83,0,0,1,1,.17,2.17,2.17,0,0,1,.75.51,2.31,2.31,0,0,1,.47.83A3.59,3.59,0,0,1,404.65,228.88Zm-.92,0a2.9,2.9,0,0,0-.1-.83,1.55,1.55,0,0,0-.31-.6,1.26,1.26,0,0,0-.47-.36,1.61,1.61,0,0,0-.63-.12,1.47,1.47,0,0,0-.69.15,1.58,1.58,0,0,0-.47.42,2,2,0,0,0-.27.61,3.55,3.55,0,0,0-.08.73,3,3,0,0,0,.11.84,1.69,1.69,0,0,0,.3.6,1.4,1.4,0,0,0,.47.37,1.61,1.61,0,0,0,.63.12,1.35,1.35,0,0,0,1.16-.58,2,2,0,0,0,.27-.61A3.5,3.5,0,0,0,403.73,228.92Z"/><path class="e" d="M409.23,231.51l0-.69a3.06,3.06,0,0,1-.86.6,2.34,2.34,0,0,1-.91.18,2.14,2.14,0,0,1-.76-.11,1.41,1.41,0,0,1-.52-.31,1.35,1.35,0,0,1-.3-.47,1.81,1.81,0,0,1-.09-.58,1.43,1.43,0,0,1,.58-1.22,2.82,2.82,0,0,1,1.71-.44h1.07V228a.94.94,0,0,0-.29-.74,1.29,1.29,0,0,0-.9-.27,4.12,4.12,0,0,0-.86.09,6.84,6.84,0,0,0-.88.28v-.81l.38-.12.44-.1a3.7,3.7,0,0,1,.48-.08,4.41,4.41,0,0,1,.52,0,3.11,3.11,0,0,1,.84.11,1.66,1.66,0,0,1,.64.31,1.52,1.52,0,0,1,.4.53,1.89,1.89,0,0,1,.14.75v3.57Zm-.1-2.35H408a2.37,2.37,0,0,0-.57.06,1.24,1.24,0,0,0-.4.19.83.83,0,0,0-.23.3.94.94,0,0,0-.07.39,1,1,0,0,0,0,.29.61.61,0,0,0,.15.24.72.72,0,0,0,.27.16,1,1,0,0,0,.4.07,1.8,1.8,0,0,0,.71-.19,3.47,3.47,0,0,0,.84-.6Z"/><path class="e" d="M415.84,231.44a4.14,4.14,0,0,1-.63.11q-.31,0-.66,0a2,2,0,0,1-1.45-.44,1.74,1.74,0,0,1-.48-1.35v-2.7h-1.45v-.75h1.45v-1.43l.9-.23v1.66h2.32v.75h-2.32v2.63a1.06,1.06,0,0,0,.29.83,1.27,1.27,0,0,0,.88.28c.16,0,.34,0,.54,0l.61-.12Z"/><path d="M426.5,231.51l0-.69a3.2,3.2,0,0,1-.86.6,2.39,2.39,0,0,1-.92.18,2.08,2.08,0,0,1-.75-.11,1.34,1.34,0,0,1-.52-.31,1.12,1.12,0,0,1-.3-.47,1.57,1.57,0,0,1-.1-.58,1.46,1.46,0,0,1,.58-1.22,2.85,2.85,0,0,1,1.72-.44h1.07V228a1,1,0,0,0-.29-.74,1.31,1.31,0,0,0-.9-.27,4.28,4.28,0,0,0-.87.09,6.72,6.72,0,0,0-.87.28v-.81l.37-.12.45-.1a3.43,3.43,0,0,1,.48-.08,4.36,4.36,0,0,1,.51,0,3.18,3.18,0,0,1,.85.11,1.55,1.55,0,0,1,.63.31,1.31,1.31,0,0,1,.4.53,1.73,1.73,0,0,1,.14.75v3.57Zm-.1-2.35h-1.14a2.46,2.46,0,0,0-.58.06,1.18,1.18,0,0,0-.39.19.74.74,0,0,0-.23.3.93.93,0,0,0-.08.39,1,1,0,0,0,0,.29.61.61,0,0,0,.15.24.72.72,0,0,0,.27.16,1,1,0,0,0,.4.07,1.84,1.84,0,0,0,.71-.19,3.91,3.91,0,0,0,.84-.6Z"/><path d="M430.7,225h-1.53v-.73h2.44v6.53h1.54v.75H429v-.75h1.7Z"/><path d="M439.12,228.83a3.45,3.45,0,0,1-.19,1.21,2.41,2.41,0,0,1-.53.85,2.15,2.15,0,0,1-.81.51,2.73,2.73,0,0,1-1,.17l-.5,0a4.21,4.21,0,0,1-.49-.09v2.17h-.9v-7.29h.8l.06.86a2.25,2.25,0,0,1,.82-.74,2,2,0,0,1,.95-.22,1.55,1.55,0,0,1,.78.19,1.63,1.63,0,0,1,.56.52,2.66,2.66,0,0,1,.34.82A4.32,4.32,0,0,1,439.12,228.83Zm-.91,0a4.38,4.38,0,0,0-.06-.75,2.19,2.19,0,0,0-.19-.58,1.12,1.12,0,0,0-.33-.38.86.86,0,0,0-.48-.13,1.06,1.06,0,0,0-.35.05,1.73,1.73,0,0,0-.36.18,2.34,2.34,0,0,0-.4.34,4,4,0,0,0-.44.51v2.52a3.53,3.53,0,0,0,.52.16,2.46,2.46,0,0,0,.53.06,1.39,1.39,0,0,0,1.14-.5A2.22,2.22,0,0,0,438.21,228.87Z"/><path d="M444.62,231.51h-.89v-3.3a1.49,1.49,0,0,0-.23-.9.74.74,0,0,0-.64-.29,1.27,1.27,0,0,0-.34,0,1.43,1.43,0,0,0-.32.17,3.41,3.41,0,0,0-.38.33l-.46.52v3.43h-.9v-7.28h.9v2.11l0,.81a2.6,2.6,0,0,1,.82-.71,1.77,1.77,0,0,1,.42-.15,2,2,0,0,1,.43,0,1.54,1.54,0,0,1,1.2.47,2.09,2.09,0,0,1,.42,1.42Z"/><path d="M449.55,231.51l0-.69a3.06,3.06,0,0,1-.86.6,2.34,2.34,0,0,1-.91.18,2.14,2.14,0,0,1-.76-.11,1.41,1.41,0,0,1-.52-.31,1.35,1.35,0,0,1-.3-.47,1.81,1.81,0,0,1-.09-.58,1.43,1.43,0,0,1,.58-1.22,2.82,2.82,0,0,1,1.71-.44h1.07V228a.94.94,0,0,0-.29-.74,1.29,1.29,0,0,0-.9-.27,4.12,4.12,0,0,0-.86.09,6.84,6.84,0,0,0-.88.28v-.81l.38-.12.44-.1a3.7,3.7,0,0,1,.48-.08,4.41,4.41,0,0,1,.52,0,3.11,3.11,0,0,1,.84.11,1.66,1.66,0,0,1,.64.31,1.52,1.52,0,0,1,.4.53,1.89,1.89,0,0,1,.14.75v3.57Zm-.1-2.35h-1.14a2.37,2.37,0,0,0-.57.06,1.24,1.24,0,0,0-.4.19.83.83,0,0,0-.23.3.94.94,0,0,0-.07.39,1,1,0,0,0,0,.29.61.61,0,0,0,.15.24.72.72,0,0,0,.27.16,1,1,0,0,0,.4.07,1.8,1.8,0,0,0,.71-.19,3.47,3.47,0,0,0,.84-.6Z"/><path d="M462.05,228.18h-4.44v-.76h4.44Zm0,1.8h-4.44v-.76h4.44Z"/><path d="M472.71,231.51l0-.69a3.06,3.06,0,0,1-.86.6,2.34,2.34,0,0,1-.91.18,2.14,2.14,0,0,1-.76-.11,1.41,1.41,0,0,1-.52-.31,1.35,1.35,0,0,1-.3-.47,1.81,1.81,0,0,1-.09-.58,1.43,1.43,0,0,1,.58-1.22,2.82,2.82,0,0,1,1.71-.44h1.07V228a.94.94,0,0,0-.29-.74,1.29,1.29,0,0,0-.9-.27,4.12,4.12,0,0,0-.86.09,6.84,6.84,0,0,0-.88.28v-.81l.38-.12.44-.1a3.7,3.7,0,0,1,.48-.08,4.41,4.41,0,0,1,.52,0,3.11,3.11,0,0,1,.84.11,1.66,1.66,0,0,1,.64.31,1.52,1.52,0,0,1,.4.53,1.89,1.89,0,0,1,.14.75v3.57Zm-.1-2.35h-1.14a2.37,2.37,0,0,0-.57.06,1.24,1.24,0,0,0-.4.19.83.83,0,0,0-.23.3.94.94,0,0,0-.07.39,1,1,0,0,0,0,.29.61.61,0,0,0,.15.24.72.72,0,0,0,.27.16,1,1,0,0,0,.4.07,1.8,1.8,0,0,0,.71-.19,3.47,3.47,0,0,0,.84-.6Z"/><path d="M479.32,231.44a4.14,4.14,0,0,1-.63.11q-.31,0-.66,0a2,2,0,0,1-1.45-.44,1.74,1.74,0,0,1-.48-1.35v-2.7h-1.45v-.75h1.45v-1.43l.9-.23v1.66h2.32v.75H477v2.63a1.06,1.06,0,0,0,.29.83,1.27,1.27,0,0,0,.88.28c.16,0,.34,0,.54,0l.61-.12Z"/><path d="M484.24,231.51l0-.69a3.06,3.06,0,0,1-.86.6,2.34,2.34,0,0,1-.91.18,2.14,2.14,0,0,1-.76-.11,1.34,1.34,0,0,1-.52-.31,1.12,1.12,0,0,1-.3-.47,1.81,1.81,0,0,1-.1-.58,1.46,1.46,0,0,1,.58-1.22,2.85,2.85,0,0,1,1.72-.44h1.07V228a1,1,0,0,0-.29-.74,1.31,1.31,0,0,0-.9-.27,4.12,4.12,0,0,0-.86.09,6.38,6.38,0,0,0-.88.28v-.81l.38-.12.44-.1a3.43,3.43,0,0,1,.48-.08,4.36,4.36,0,0,1,.51,0,3.13,3.13,0,0,1,.85.11,1.66,1.66,0,0,1,.64.31,1.38,1.38,0,0,1,.39.53,1.73,1.73,0,0,1,.14.75v3.57Zm-.1-2.35H483a2.52,2.52,0,0,0-.58.06,1.18,1.18,0,0,0-.39.19.74.74,0,0,0-.23.3.93.93,0,0,0-.08.39,1,1,0,0,0,0,.29.61.61,0,0,0,.15.24.72.72,0,0,0,.27.16,1,1,0,0,0,.4.07,1.8,1.8,0,0,0,.71-.19,3.68,3.68,0,0,0,.84-.6Z"/><path d="M486.68,226.34h.8l0,.83a3.79,3.79,0,0,1,.44-.45,2.56,2.56,0,0,1,.42-.28,1.27,1.27,0,0,1,.41-.15,2.12,2.12,0,0,1,.44,0,1.53,1.53,0,0,1,1.21.47,2.15,2.15,0,0,1,.41,1.42v3.38h-.9v-3.3a1.39,1.39,0,0,0-.23-.9A.77.77,0,0,0,489,227a1.12,1.12,0,0,0-.32,0,1.3,1.3,0,0,0-.33.17,3.4,3.4,0,0,0-.37.33c-.13.14-.28.31-.44.52v3.43h-.9Z"/><path d="M496.81,231.51h-4.44v-.8l1.75-1.74c.28-.28.51-.52.69-.73a3.54,3.54,0,0,0,.42-.56,1.59,1.59,0,0,0,.2-.48,2,2,0,0,0,.05-.49,1.86,1.86,0,0,0-.06-.48,1.33,1.33,0,0,0-.21-.39,1,1,0,0,0-.36-.27,1.43,1.43,0,0,0-.53-.1,1.67,1.67,0,0,0-.78.19,2.77,2.77,0,0,0-.64.5l-.5-.59a3,3,0,0,1,.88-.65,2.64,2.64,0,0,1,1.16-.24,2.3,2.3,0,0,1,.81.13,1.76,1.76,0,0,1,1.06,1,2.55,2.55,0,0,1,0,1.54,2.81,2.81,0,0,1-.31.66,5.77,5.77,0,0,1-.53.68c-.21.23-.46.49-.75.76l-1.22,1.2h3.27Z"/><path d="M501.3,233.68a6.25,6.25,0,0,1-2.25-6.12,6.21,6.21,0,0,1,.41-1.24,7.44,7.44,0,0,1,.74-1.25,9.65,9.65,0,0,1,1.12-1.24l.53.54a6,6,0,0,0-2,4.37,5.39,5.39,0,0,0,.5,2.3,7.24,7.24,0,0,0,1.5,2.09Z"/><path d="M507.7,227.07a1.4,1.4,0,0,1,.22.42,1.72,1.72,0,0,1,.08.52,1.77,1.77,0,0,1-.15.73,1.54,1.54,0,0,1-.41.57,1.92,1.92,0,0,1-.64.37,2.45,2.45,0,0,1-.83.13,2.35,2.35,0,0,1-.6-.07,1.63,1.63,0,0,1-.45-.17,2.92,2.92,0,0,0-.17.27.68.68,0,0,0-.06.29.37.37,0,0,0,.18.32.87.87,0,0,0,.5.14l1.36.06a3.22,3.22,0,0,1,.72.09,1.81,1.81,0,0,1,.56.26,1.18,1.18,0,0,1,.37.4,1.26,1.26,0,0,1,.13.57,1.45,1.45,0,0,1-.61,1.19,2.38,2.38,0,0,1-.8.38,4.23,4.23,0,0,1-1.14.14,5.41,5.41,0,0,1-1.07-.1,2.4,2.4,0,0,1-.72-.28,1.09,1.09,0,0,1-.41-.42,1.13,1.13,0,0,1-.13-.54,1.3,1.3,0,0,1,.17-.66,2,2,0,0,1,.55-.55,1,1,0,0,1-.24-.15,1.06,1.06,0,0,1-.16-.21.92.92,0,0,1-.09-.23,1.13,1.13,0,0,1,0-.25,1.18,1.18,0,0,1,.16-.61,3.08,3.08,0,0,1,.37-.52l-.17-.24a1.36,1.36,0,0,1-.13-.24,1.23,1.23,0,0,1-.08-.29,1.72,1.72,0,0,1,0-.34,1.78,1.78,0,0,1,.15-.74,1.54,1.54,0,0,1,.41-.57,1.92,1.92,0,0,1,.64-.37,2.66,2.66,0,0,1,.82-.13,2.22,2.22,0,0,1,.37,0l.31.07h1.88v.73Zm-3.12,5.19a.56.56,0,0,0,.38.53A2.78,2.78,0,0,0,506,233a2.55,2.55,0,0,0,.72-.08,1.41,1.41,0,0,0,.46-.2.71.71,0,0,0,.26-.29.8.8,0,0,0,.08-.33.51.51,0,0,0-.26-.47,1.82,1.82,0,0,0-.79-.17l-1.35,0a2.5,2.5,0,0,0-.28.22,1,1,0,0,0-.17.22.73.73,0,0,0-.09.23A.78.78,0,0,0,504.58,232.26Zm.28-4.23a1.12,1.12,0,0,0,.08.45.93.93,0,0,0,.23.35,1,1,0,0,0,.35.22,1.12,1.12,0,0,0,.45.08,1.21,1.21,0,0,0,.48-.09,1,1,0,0,0,.35-.24,1,1,0,0,0,.22-.36,1.3,1.3,0,0,0,0-.87,1,1,0,0,0-.23-.35,1.14,1.14,0,0,0-.81-.3,1.19,1.19,0,0,0-.47.09.9.9,0,0,0-.35.25.91.91,0,0,0-.22.35A1.16,1.16,0,0,0,504.86,228Z"/><path d="M514.34,228.88a3.31,3.31,0,0,1-.17,1.11,2.36,2.36,0,0,1-.49.86,2.28,2.28,0,0,1-.77.56,2.69,2.69,0,0,1-1,.19,2.57,2.57,0,0,1-1-.17,1.79,1.79,0,0,1-.75-.51,2.17,2.17,0,0,1-.47-.83,3.61,3.61,0,0,1-.16-1.14,3.25,3.25,0,0,1,.17-1.1,2.31,2.31,0,0,1,.49-.85,2.11,2.11,0,0,1,.78-.56,2.61,2.61,0,0,1,1-.2,2.87,2.87,0,0,1,1,.17,2,2,0,0,1,.74.51,2.17,2.17,0,0,1,.47.83A3.59,3.59,0,0,1,514.34,228.88Zm-.91,0a2.88,2.88,0,0,0-.11-.83,1.69,1.69,0,0,0-.3-.6,1.22,1.22,0,0,0-.48-.36,1.52,1.52,0,0,0-.62-.12,1.31,1.31,0,0,0-1.16.57,2,2,0,0,0-.27.61,3,3,0,0,0-.08.73,3,3,0,0,0,.1.84,1.69,1.69,0,0,0,.3.6,1.35,1.35,0,0,0,.48.37,1.54,1.54,0,0,0,.63.12,1.45,1.45,0,0,0,.68-.16,1.37,1.37,0,0,0,.47-.42,1.61,1.61,0,0,0,.27-.61A2.94,2.94,0,0,0,513.43,228.92Z"/><path d="M518.93,231.51l0-.69a3.06,3.06,0,0,1-.86.6,2.39,2.39,0,0,1-.92.18,2.12,2.12,0,0,1-.75-.11,1.34,1.34,0,0,1-.52-.31,1.12,1.12,0,0,1-.3-.47,1.57,1.57,0,0,1-.1-.58,1.46,1.46,0,0,1,.58-1.22,2.85,2.85,0,0,1,1.72-.44h1.07V228a1,1,0,0,0-.29-.74,1.31,1.31,0,0,0-.9-.27,4.28,4.28,0,0,0-.87.09,6.72,6.72,0,0,0-.87.28v-.81l.37-.12.45-.1a3.43,3.43,0,0,1,.48-.08,4.36,4.36,0,0,1,.51,0,3.18,3.18,0,0,1,.85.11,1.55,1.55,0,0,1,.63.31,1.31,1.31,0,0,1,.4.53,1.73,1.73,0,0,1,.14.75v3.57Zm-.1-2.35h-1.14a2.46,2.46,0,0,0-.58.06,1.18,1.18,0,0,0-.39.19.74.74,0,0,0-.23.3.93.93,0,0,0-.08.39,1,1,0,0,0,.05.29.61.61,0,0,0,.15.24.72.72,0,0,0,.27.16,1,1,0,0,0,.4.07,1.84,1.84,0,0,0,.71-.19,3.91,3.91,0,0,0,.84-.6Z"/><path d="M523.13,225H521.6v-.73H524v6.53h1.54v.75h-4.15v-.75h1.7Z"/><path d="M532.11,233.63H526.3v-.75h5.81Z"/><path d="M537.5,226.34,535.73,231a9.28,9.28,0,0,1-.56,1.21,3.57,3.57,0,0,1-.64.84,2.12,2.12,0,0,1-.76.48,2.43,2.43,0,0,1-.92.16h-.48v-.82l.25,0h.28a1.35,1.35,0,0,0,.46-.07,1.39,1.39,0,0,0,.41-.23,2.22,2.22,0,0,0,.37-.42,5.12,5.12,0,0,0,.34-.63l-2.07-5.17h1l1.31,3.42.26.8.3-.82,1.21-3.4Z"/><path d="M539.06,232.57a1.77,1.77,0,0,0,.51,0,1.67,1.67,0,0,0,.43-.16,1.05,1.05,0,0,0,.31-.28.7.7,0,0,0,.11-.38.73.73,0,0,0-.07-.35,2.2,2.2,0,0,0-.17-.25,1.46,1.46,0,0,1-.17-.24.66.66,0,0,1-.07-.34.62.62,0,0,1,0-.23.68.68,0,0,1,.12-.22.73.73,0,0,1,.22-.16.75.75,0,0,1,.31-.06.85.85,0,0,1,.35.08.71.71,0,0,1,.29.23,1.06,1.06,0,0,1,.2.38,1.82,1.82,0,0,1,.08.55,2.1,2.1,0,0,1-.16.82,1.92,1.92,0,0,1-.47.7,2.24,2.24,0,0,1-.78.48,3,3,0,0,1-1.08.19Z"/><path d="M553.91,227.07a1.42,1.42,0,0,1,.23.42,1.72,1.72,0,0,1,.08.52,1.77,1.77,0,0,1-.15.73,1.69,1.69,0,0,1-.42.57,1.83,1.83,0,0,1-.64.37,2.67,2.67,0,0,1-1.43.06,1.63,1.63,0,0,1-.45-.17,2.71,2.71,0,0,0-.16.27.57.57,0,0,0-.07.29.36.36,0,0,0,.19.32.82.82,0,0,0,.5.14l1.36.06a3.13,3.13,0,0,1,.71.09,1.71,1.71,0,0,1,.56.26,1.18,1.18,0,0,1,.37.4,1.14,1.14,0,0,1,.13.57,1.47,1.47,0,0,1-.15.65,1.39,1.39,0,0,1-.46.54,2.33,2.33,0,0,1-.79.38,4.23,4.23,0,0,1-1.14.14,5.33,5.33,0,0,1-1.07-.1,2.47,2.47,0,0,1-.73-.28,1.08,1.08,0,0,1-.54-1,1.21,1.21,0,0,1,.18-.66,2.14,2.14,0,0,1,.54-.55.76.76,0,0,1-.23-.15.78.78,0,0,1-.16-.21.92.92,0,0,1-.09-.23,1.18,1.18,0,0,1,0-.25,1.29,1.29,0,0,1,.16-.61,3.14,3.14,0,0,1,.38-.52,1.88,1.88,0,0,1-.18-.24,1.36,1.36,0,0,1-.13-.24,2,2,0,0,1-.08-.29,1.72,1.72,0,0,1,0-.34,1.78,1.78,0,0,1,.15-.74,1.81,1.81,0,0,1,.41-.57,1.92,1.92,0,0,1,.64-.37,2.72,2.72,0,0,1,.83-.13,2.22,2.22,0,0,1,.37,0l.31.07h1.87v.73Zm-3.11,5.19a.55.55,0,0,0,.38.53,2.72,2.72,0,0,0,1.06.17,2.47,2.47,0,0,0,.72-.08,1.58,1.58,0,0,0,.47-.2.79.79,0,0,0,.26-.29.78.78,0,0,0,.07-.33.5.5,0,0,0-.26-.47,1.81,1.81,0,0,0-.78-.17l-1.36,0-.28.22a1.46,1.46,0,0,0-.17.22,1.09,1.09,0,0,0-.09.23A1.5,1.5,0,0,0,550.8,232.26Zm.27-4.23a1.33,1.33,0,0,0,.08.45,1.09,1.09,0,0,0,.24.35.84.84,0,0,0,.35.22,1.06,1.06,0,0,0,.45.08,1.21,1.21,0,0,0,.48-.09,1.09,1.09,0,0,0,.35-.24,1.07,1.07,0,0,0,.21-.36,1.15,1.15,0,0,0,.08-.41,1.34,1.34,0,0,0-.08-.46,1.21,1.21,0,0,0-.24-.35,1,1,0,0,0-.35-.22,1.12,1.12,0,0,0-.45-.08,1.21,1.21,0,0,0-.48.09,1,1,0,0,0-.35.25,1,1,0,0,0-.21.35A1.16,1.16,0,0,0,551.07,228Z"/><path d="M560.45,228.88a3.31,3.31,0,0,1-.17,1.11,2.36,2.36,0,0,1-.49.86,2.28,2.28,0,0,1-.77.56,2.69,2.69,0,0,1-1,.19,2.57,2.57,0,0,1-1-.17,1.79,1.79,0,0,1-.75-.51,2.17,2.17,0,0,1-.47-.83,3.61,3.61,0,0,1-.16-1.14,3.25,3.25,0,0,1,.17-1.1,2.31,2.31,0,0,1,.49-.85,2.11,2.11,0,0,1,.78-.56,2.61,2.61,0,0,1,1-.2,2.78,2.78,0,0,1,1,.17,2,2,0,0,1,.75.51,2.17,2.17,0,0,1,.47.83A3.59,3.59,0,0,1,560.45,228.88Zm-.91,0a2.88,2.88,0,0,0-.11-.83,1.69,1.69,0,0,0-.3-.6,1.22,1.22,0,0,0-.48-.36A1.56,1.56,0,0,0,558,227a1.31,1.31,0,0,0-1.16.57,2,2,0,0,0-.27.61,3.14,3.14,0,0,0,0,1.57,1.69,1.69,0,0,0,.3.6,1.35,1.35,0,0,0,.48.37,1.54,1.54,0,0,0,.63.12,1.35,1.35,0,0,0,1.15-.58,1.78,1.78,0,0,0,.27-.61A2.94,2.94,0,0,0,559.54,228.92Z"/><path d="M565,231.51l0-.69a3.2,3.2,0,0,1-.86.6,2.39,2.39,0,0,1-.92.18,2.18,2.18,0,0,1-.76-.11,1.29,1.29,0,0,1-.51-.31,1.12,1.12,0,0,1-.3-.47,1.57,1.57,0,0,1-.1-.58,1.46,1.46,0,0,1,.58-1.22,2.85,2.85,0,0,1,1.72-.44h1.07V228a1,1,0,0,0-.29-.74,1.31,1.31,0,0,0-.9-.27,4.28,4.28,0,0,0-.87.09,6.72,6.72,0,0,0-.87.28v-.81l.37-.12.45-.1a3.43,3.43,0,0,1,.48-.08,4.36,4.36,0,0,1,.51,0,3.18,3.18,0,0,1,.85.11,1.55,1.55,0,0,1,.63.31,1.31,1.31,0,0,1,.4.53,1.89,1.89,0,0,1,.14.75v3.57Zm-.1-2.35H563.8a2.46,2.46,0,0,0-.58.06,1.18,1.18,0,0,0-.39.19.74.74,0,0,0-.23.3.93.93,0,0,0-.08.39,1,1,0,0,0,.05.29.61.61,0,0,0,.15.24.76.76,0,0,0,.26.16,1,1,0,0,0,.41.07,1.84,1.84,0,0,0,.71-.19,3.91,3.91,0,0,0,.84-.6Z"/><path d="M569.24,225h-1.53v-.73h2.44v6.53h1.54v.75h-4.15v-.75h1.7Z"/><path d="M578.22,233.63h-5.81v-.75h5.81Z"/><path d="M583.67,231.51h-1.19l-1.4-2-1.38,2h-1.16l2-2.6-1.91-2.57h1.15l1.36,2,1.34-2h1.11l-2,2.59Z"/><path d="M585.93,223.83a6.6,6.6,0,0,1,2.38,4.9,5.94,5.94,0,0,1-.12,1.16,5.51,5.51,0,0,1-.38,1.22,7.31,7.31,0,0,1-.74,1.27,9,9,0,0,1-1.16,1.3l-.52-.53a7.23,7.23,0,0,0,1.5-2.08,5.39,5.39,0,0,0,.49-2.27,6,6,0,0,0-2-4.41Z"/><path class="f" d="M166.31,235.28s60.89-7.68,79-54.34"/><path class="d" d="M31.59,79.07h3.6a3.64,3.64,0,0,1,2.4.74,2.75,2.75,0,0,1,.88,2.24,3,3,0,0,1-.81,2.32,3.42,3.42,0,0,1-2.39.75H33.94v3H31.59Zm2.35,4.15h.39l.69,0a1.68,1.68,0,0,0,.5-.13.78.78,0,0,0,.37-.33,1.21,1.21,0,0,0,.14-.62,1.33,1.33,0,0,0-.14-.65.74.74,0,0,0-.35-.35A1.53,1.53,0,0,0,35,81l-.71,0h-.39Z"/><path class="d" d="M41.62,82v3.29a1.81,1.81,0,0,0,.23,1,1.26,1.26,0,0,0,1.72,0,1.81,1.81,0,0,0,.23-1V82H46v3.71a2.94,2.94,0,0,1-.25,1.26,2,2,0,0,1-.68.82,3.26,3.26,0,0,1-1,.44,6.67,6.67,0,0,1-2.62,0,3.28,3.28,0,0,1-1-.45,2,2,0,0,1-.68-.82,2.9,2.9,0,0,1-.25-1.25V82Z"/><path class="d" d="M49.56,83h0a2,2,0,0,1,.82-.82,2.46,2.46,0,0,1,1.17-.27H52V84a1.62,1.62,0,0,0-.43-.16,2.34,2.34,0,0,0-.5,0,1.32,1.32,0,0,0-1.17.49,2.33,2.33,0,0,0-.34,1.37v2.49H47.38V82h2.18Z"/><path class="d" d="M59.14,85.41h-4.6a1.21,1.21,0,0,0,1.37,1.36,1.11,1.11,0,0,0,1-.56h2.1a2.42,2.42,0,0,1-1.12,1.57,4.15,4.15,0,0,1-4.58-.32,3,3,0,0,1-1-2.41,3.72,3.72,0,0,1,.24-1.37,3,3,0,0,1,.71-1.05A3.09,3.09,0,0,1,54.39,82a4.08,4.08,0,0,1,1.38-.22,3.26,3.26,0,0,1,2.48.92,3.44,3.44,0,0,1,.89,2.5Zm-2-1.26a1.17,1.17,0,0,0-.43-.71,1.34,1.34,0,0,0-.81-.27,1.38,1.38,0,0,0-.84.26,1.06,1.06,0,0,0-.45.72Z"/><path class="d" d="M66.36,82.66h0a1.81,1.81,0,0,1,.8-.67,2.41,2.41,0,0,1,1.06-.23,2.89,2.89,0,0,1,1.25.26,2.75,2.75,0,0,1,1,.72,3.17,3.17,0,0,1,.64,1.06,3.35,3.35,0,0,1,.23,1.26,3.46,3.46,0,0,1-.22,1.25,3.12,3.12,0,0,1-.64,1,2.78,2.78,0,0,1-1,.71,3,3,0,0,1-1.24.25,2.93,2.93,0,0,1-1.06-.2,2.17,2.17,0,0,1-.85-.59v3.66H64.18V82h2.18Zm.31,1.4a1.48,1.48,0,0,0,0,2,1.35,1.35,0,0,0,1,.39,1.41,1.41,0,0,0,1-2.37,1.35,1.35,0,0,0-1-.41A1.33,1.33,0,0,0,66.67,84.06Z"/><path class="d" d="M74.58,82v3.29a1.81,1.81,0,0,0,.23,1,1,1,0,0,0,.86.34,1,1,0,0,0,.86-.34,1.73,1.73,0,0,0,.23-1V82H79v3.71a2.8,2.8,0,0,1-.25,1.26,2,2,0,0,1-.68.82,3.21,3.21,0,0,1-1,.44,6,6,0,0,1-1.32.13,5.87,5.87,0,0,1-1.31-.13,3.12,3.12,0,0,1-1-.45,2,2,0,0,1-.69-.82,2.9,2.9,0,0,1-.24-1.25V82Z"/><path class="d" d="M82.52,83h0a2,2,0,0,1,.82-.82,2.46,2.46,0,0,1,1.17-.27H85V84a1.5,1.5,0,0,0-.43-.16,2.31,2.31,0,0,0-.49,0,1.34,1.34,0,0,0-1.18.49,2.41,2.41,0,0,0-.34,1.37v2.49H80.34V82h2.18Z"/><path class="d" d="M89.84,83.55a2.71,2.71,0,0,0-.57-.22,2.26,2.26,0,0,0-.6-.08,1,1,0,0,0-.46.1.36.36,0,0,0-.23.32.35.35,0,0,0,.24.34,3.1,3.1,0,0,0,.63.17l.12,0a2.7,2.7,0,0,1,1.31.59A1.55,1.55,0,0,1,90.76,86a2.12,2.12,0,0,1-.24,1,2,2,0,0,1-.66.71,3.43,3.43,0,0,1-.93.42,4.32,4.32,0,0,1-1.08.13,4.67,4.67,0,0,1-1.29-.18,4.38,4.38,0,0,1-1.19-.53l.79-1.52a4,4,0,0,0,.85.44,2.6,2.6,0,0,0,.88.18,1,1,0,0,0,.47-.12.36.36,0,0,0,.21-.34.38.38,0,0,0-.23-.37,3.5,3.5,0,0,0-.72-.22l-.42-.1a3.27,3.27,0,0,1-.53-.19,1.37,1.37,0,0,1-.42-.29,1.41,1.41,0,0,1-.3-.46,1.73,1.73,0,0,1-.11-.68,2,2,0,0,1,.22-1,1.93,1.93,0,0,1,.61-.69,2.83,2.83,0,0,1,.88-.4,3.66,3.66,0,0,1,1-.13,5,5,0,0,1,2,.39Z"/><path class="d" d="M94.08,82v3.29a1.81,1.81,0,0,0,.23,1,1,1,0,0,0,.86.34,1,1,0,0,0,.86-.34,1.73,1.73,0,0,0,.23-1V82h2.19v3.71a2.8,2.8,0,0,1-.25,1.26,2,2,0,0,1-.68.82,3.21,3.21,0,0,1-1,.44,6,6,0,0,1-1.32.13,5.87,5.87,0,0,1-1.31-.13,3.12,3.12,0,0,1-1-.45,2,2,0,0,1-.69-.82,2.9,2.9,0,0,1-.24-1.25V82Z"/><path class="d" d="M101.8,78.73a1.2,1.2,0,0,1,.36.87,1.16,1.16,0,0,1-.36.86,1.22,1.22,0,0,1-1.73,0,1.16,1.16,0,0,1-.36-.86,1.2,1.2,0,0,1,.36-.87,1.22,1.22,0,0,1,1.73,0Zm.22,9.39H99.84V82H102Z"/><path class="d" d="M105.85,88.12h-2.18V83.76H103V82h.71V80.11h2.18V82h1.24v1.8h-1.24Z"/><path class="c" d="M222.44,191.2a5.29,5.29,0,0,1-.11,1.08,2.21,2.21,0,0,1-.39.86,2.09,2.09,0,0,1-.87.72,2.72,2.72,0,0,1-1.15.24,3,3,0,0,1-1-.18,2.61,2.61,0,0,1-.84-.53,2.32,2.32,0,0,1-.53-.83,2.69,2.69,0,0,1-.19-1.05,2.83,2.83,0,0,1,.19-1.07,2.33,2.33,0,0,1,1.39-1.38,3.08,3.08,0,0,1,1.07-.18,2.52,2.52,0,0,1,1.34.34,2.23,2.23,0,0,1,.87,1l-1.2.5a1.35,1.35,0,0,0-.41-.57,1.05,1.05,0,0,0-.65-.21,1.09,1.09,0,0,0-.54.14,1.15,1.15,0,0,0-.41.35,1.84,1.84,0,0,0-.24,1.62,1.47,1.47,0,0,0,.25.5,1.16,1.16,0,0,0,.41.35,1.2,1.2,0,0,0,.55.12,1.07,1.07,0,0,0,.7-.22.81.81,0,0,0,.32-.63h-1v-1Z"/><path class="c" d="M225.53,190.62a2.07,2.07,0,0,1,.64.34,1.61,1.61,0,0,1,.44.56,1.88,1.88,0,0,1,.16.76,1.78,1.78,0,0,1-.16.74,1.61,1.61,0,0,1-.44.56,2,2,0,0,1-.64.35,2.53,2.53,0,0,1-1.54,0,1.9,1.9,0,0,1-.64-.35,1.61,1.61,0,0,1-.44-.56,1.64,1.64,0,0,1-.16-.74,1.73,1.73,0,0,1,.16-.76,1.61,1.61,0,0,1,.44-.56,2.07,2.07,0,0,1,.64-.34,2.53,2.53,0,0,1,1.54,0Zm-1.33,1.12a.75.75,0,0,0,.56,1.28.72.72,0,0,0,.76-.74.73.73,0,0,0-.21-.54.69.69,0,0,0-.55-.22A.73.73,0,0,0,224.2,191.74Z"/><path class="c" d="M230.94,193.94h-1.18v-.37h0a1.06,1.06,0,0,1-.42.36,1.45,1.45,0,0,1-.59.12,1.67,1.67,0,0,1-.67-.14,1.69,1.69,0,0,1-.54-.39,2.08,2.08,0,0,1-.35-.57,2,2,0,0,1-.12-.68,1.91,1.91,0,0,1,.12-.68,1.73,1.73,0,0,1,.88-1,1.63,1.63,0,0,1,.67-.13,1.38,1.38,0,0,1,.57.11,1.09,1.09,0,0,1,.46.32v-.32h1.18Zm-2.45-2.2a.79.79,0,0,0,0,1.07.72.72,0,0,0,.55.21.75.75,0,0,0,.56-.21.82.82,0,0,0,0-1.07.72.72,0,0,0-.56-.22A.69.69,0,0,0,228.49,191.74Z"/><path class="c" d="M232.91,193.94h-1.18v-5.39h1.18Z"/><g class="g"><path class="e" d="M144.52,252.26c1-1.95,2.3-1.68,3.69-.41-.94,1.42-1.19,4.46-3.32,4.37C143.62,256.09,144.66,253.23,144.52,252.26Z"/><path class="e" d="M146,217.57c1,2,2.24,1.77,3.67.54-.89-1.45-1-4.49-3.17-4.48C145.26,213.72,146.2,216.61,146,217.57Z"/><path class="e" d="M99.6,244.54l.35-20.85c.06-3.28,2-5.18,6.31-5.84,14.06-2.18,57,1,57,1,3.43,0,4.37,1.6,6.12,6,1.9,4.86,1.16,15.86-.35,20.85-1.77,5.83-2.88,5.9-6.31,5.84,0,0-43,1.89-57-.95C101.81,249.79,99.55,247.82,99.6,244.54Z"/><path class="d" d="M104.4,237.94l.1-6c.11-6.88,2.29-13,9.17-12.91l22.74.37c6.88.12,12,.32,12.25,12.67,0,1.5,0,4.51-.1,6-.77,10.15-5.78,12.37-12.66,12.26L113.16,250C106.28,249.83,104.29,244.83,104.4,237.94Z"/><path class="e" d="M106.52,250.34l-1.76-1.83c6.34-4.53,8.23-9.41,8-13.84,0-.06,0-.13,0-.19s0-.13,0-.2c.35-4.41-1.38-9.36-7.57-14.1l1.82-1.77s17.54,16.86,39.24.65l3.39,3.87c-6.26.64-12.43,4.87-14,6.37-.6.58-.92,2.84-.95,5.35V235c0,2.51.19,4.78.77,5.37,1.49,1.55,7.51,6,13.75,6.83L145.76,251C124.61,234.07,106.52,250.34,106.52,250.34Z"/></g><line class="h" x1="119.47" y1="256.79" x2="150.53" y2="256.78"/><polygon class="i" points="113.11 256.79 122.07 260.45 119.94 256.79 122.06 253.13 113.11 256.79"/><polygon class="i" points="156.89 256.78 147.94 260.44 150.06 256.78 147.93 253.12 156.89 256.78"/><path class="d" d="M376.81,98.4h-.73a2.78,2.78,0,0,0-.77-1.3,1.79,1.79,0,0,0-1.21-.43,1.25,1.25,0,0,0-.84.27.89.89,0,0,0-.31.71,1.13,1.13,0,0,0,.1.46,4.07,4.07,0,0,0,.39.61c.19.25.48.61.88,1.08a12.21,12.21,0,0,1,1,1.41,4.69,4.69,0,0,1,.47,1.12,5,5,0,0,1,.14,1.27,4.23,4.23,0,0,1-.46,1.91,3.61,3.61,0,0,1-1.32,1.47,3.69,3.69,0,0,1-2,.54,3.55,3.55,0,0,1-1.66-.34,2,2,0,0,1-1-.9,2.75,2.75,0,0,1-.3-1.31,4.75,4.75,0,0,1,.94-2.93,6.36,6.36,0,0,1,2.77-2,7.45,7.45,0,0,1-.92-1.22,2,2,0,0,1-.29-1,1.6,1.6,0,0,1,.28-.9,1.92,1.92,0,0,1,.82-.64,3.23,3.23,0,0,1,1.29-.24,3.86,3.86,0,0,1,1.37.25,6.24,6.24,0,0,1,1.53.84Zm-3.44,2.12a4.09,4.09,0,0,0-2,1.75,5.34,5.34,0,0,0-.73,2.78c0,1.23.54,1.84,1.62,1.84a1.76,1.76,0,0,0,1.15-.42,2.93,2.93,0,0,0,.79-1.2,4.7,4.7,0,0,0,.29-1.63,5.09,5.09,0,0,0-.26-1.67A4.78,4.78,0,0,0,373.37,100.52Z"/><path class="d" d="M383.57,101.65V100.6h9.73v1.05Zm0,3.28v-1.05h9.73v1.05Z"/><path class="d" d="M405.54,100.22l.72-.52.51.13-1.16,5a5.38,5.38,0,0,0-.18,1.17.8.8,0,0,0,.11.46.37.37,0,0,0,.32.14.89.89,0,0,0,.51-.2,5.77,5.77,0,0,0,.76-.73l.45.44a7.46,7.46,0,0,1-1.22,1.08,2,2,0,0,1-1.08.32,1,1,0,0,1-.79-.33,1.24,1.24,0,0,1-.29-.86,2.63,2.63,0,0,1,.18-.92l-.1,0a6.6,6.6,0,0,1-1.44,1.62,2.29,2.29,0,0,1-1.43.52,1.57,1.57,0,0,1-1.35-.66,3.05,3.05,0,0,1-.48-1.84,6.73,6.73,0,0,1,.53-2.61,4.89,4.89,0,0,1,1.47-2,3.26,3.26,0,0,1,2.08-.73,3.71,3.71,0,0,1,1,.12A3.43,3.43,0,0,1,405.54,100.22Zm-.7,2.36a5.64,5.64,0,0,0,.1-.56c0-.16,0-.33,0-.52a1.31,1.31,0,0,0-.26-.89,1.16,1.16,0,0,0-.89-.28,2,2,0,0,0-1.46.65,4.48,4.48,0,0,0-1,1.76,7,7,0,0,0-.36,2.2,2.62,2.62,0,0,0,.22,1.23.81.81,0,0,0,.76.41,1.51,1.51,0,0,0,1-.45,6.17,6.17,0,0,0,1-1.29,5.75,5.75,0,0,0,.75-1.92Zm6.43-.84a6.67,6.67,0,0,1,1.49-1.54,2.53,2.53,0,0,1,1.45-.49,4.29,4.29,0,0,1,1,.09l-.38,1.77H414a2.17,2.17,0,0,0-.13-.52.6.6,0,0,0-.21-.25.56.56,0,0,0-.3-.07,1.08,1.08,0,0,0-.62.24,4.61,4.61,0,0,0-.75.77,5.82,5.82,0,0,0-.67,1,5,5,0,0,0-.42,1.23l-.75,3.42h-1.36l1.14-5a5.86,5.86,0,0,0,.14-.73,2.64,2.64,0,0,0,0-.44.8.8,0,0,0-.11-.46.37.37,0,0,0-.32-.14.92.92,0,0,0-.52.2,6,6,0,0,0-.74.73l-.46-.44a8.39,8.39,0,0,1,1.22-1.08,2,2,0,0,1,1.08-.32,1,1,0,0,1,.79.33,1.26,1.26,0,0,1,.29.86,2.4,2.4,0,0,1-.15.81Zm10.14,0a4,4,0,0,0-.09-.87.79.79,0,0,0-.27-.4.9.9,0,0,0-.53-.13,2,2,0,0,0-1.43.63,4.7,4.7,0,0,0-1,1.8,6.85,6.85,0,0,0-.4,2.24,1.89,1.89,0,0,0,.31,1.2,1.15,1.15,0,0,0,1,.39,2.67,2.67,0,0,0,1.24-.27,4.64,4.64,0,0,0,1.11-.86l.49.48a5.27,5.27,0,0,1-1.5,1.2,3.48,3.48,0,0,1-1.62.38,2.15,2.15,0,0,1-1.74-.68,2.88,2.88,0,0,1-.6-2,6.37,6.37,0,0,1,.32-1.86,5.52,5.52,0,0,1,.92-1.77,3.82,3.82,0,0,1,1.43-1.15,4.09,4.09,0,0,1,1.74-.38,7.34,7.34,0,0,1,1.93.24l-.39,1.78Zm6.92,4.17a5.58,5.58,0,0,1-1.32,1.22,2.52,2.52,0,0,1-1.33.4,1.47,1.47,0,0,1-1.65-1.67,5,5,0,0,1,.13-1.12l.94-4.1h-1.33l.12-.54a3.6,3.6,0,0,0,.7-.07,1.19,1.19,0,0,0,.41-.18,1.09,1.09,0,0,0,.29-.31,2.62,2.62,0,0,0,.26-.53c.09-.21.21-.58.38-1.11H427l-.43,2H429l-.17.79h-2.41l-.7,3.07c-.14.6-.22,1-.26,1.28a4.11,4.11,0,0,0-.05.63c0,.66.27,1,.81,1a1.38,1.38,0,0,0,.74-.26,5.11,5.11,0,0,0,.93-.91Zm7.63-5.68.72-.52.51.13-1.16,5a5.38,5.38,0,0,0-.18,1.17.8.8,0,0,0,.11.46.37.37,0,0,0,.32.14.89.89,0,0,0,.51-.2,5.26,5.26,0,0,0,.75-.73l.46.44a7.46,7.46,0,0,1-1.22,1.08,2,2,0,0,1-1.08.32,1,1,0,0,1-.79-.33,1.24,1.24,0,0,1-.29-.86,2.63,2.63,0,0,1,.18-.92l-.1,0a6.81,6.81,0,0,1-1.44,1.62,2.3,2.3,0,0,1-1.44.52,1.57,1.57,0,0,1-1.34-.66A3.05,3.05,0,0,1,430,105a6.73,6.73,0,0,1,.53-2.61,4.89,4.89,0,0,1,1.47-2,3.26,3.26,0,0,1,2.08-.73,3.71,3.71,0,0,1,1,.12A3.43,3.43,0,0,1,436,100.22Zm-.7,2.36a5.64,5.64,0,0,0,.1-.56c0-.16,0-.33,0-.52a1.31,1.31,0,0,0-.26-.89,1.16,1.16,0,0,0-.89-.28,2,2,0,0,0-1.46.65,4.48,4.48,0,0,0-1,1.76,7,7,0,0,0-.36,2.2,2.62,2.62,0,0,0,.22,1.23.8.8,0,0,0,.76.41,1.51,1.51,0,0,0,1-.45,6.17,6.17,0,0,0,1-1.29,5.75,5.75,0,0,0,.75-1.92Zm5.08-.2a5.25,5.25,0,0,0,.17-1.17.81.81,0,0,0-.1-.46.39.39,0,0,0-.32-.14.9.9,0,0,0-.52.2,6.7,6.7,0,0,0-.75.73l-.45-.44a9,9,0,0,1,1.21-1.08,2,2,0,0,1,1.09-.32,1,1,0,0,1,.79.33,1.26,1.26,0,0,1,.29.86,2.85,2.85,0,0,1-.19.93l.09,0a7.43,7.43,0,0,1,1.47-1.61,2.4,2.4,0,0,1,1.45-.53,1.49,1.49,0,0,1,1.13.42,1.68,1.68,0,0,1,.39,1.18,6.46,6.46,0,0,1-.23,1.41l-.51,2.07a6,6,0,0,0-.21,1.22.81.81,0,0,0,.1.46.37.37,0,0,0,.32.14.89.89,0,0,0,.51-.2,5.77,5.77,0,0,0,.76-.73l.45.44a7.31,7.31,0,0,1-1.19,1.06,2.07,2.07,0,0,1-1.15.34,1,1,0,0,1-.82-.37,1.4,1.4,0,0,1-.31-.94,6.28,6.28,0,0,1,.26-1.51l.35-1.36c.12-.5.21-.86.25-1.1a5,5,0,0,0,.05-.58,1.32,1.32,0,0,0-.18-.78.67.67,0,0,0-.59-.25,1.24,1.24,0,0,0-.71.27,4,4,0,0,0-.82.8,5.79,5.79,0,0,0-.69,1,5.42,5.42,0,0,0-.43,1.24l-.75,3.42h-1.36Z"/><path class="d" d="M453.28,103.39a10.29,10.29,0,0,0,.88,4.56,4.53,4.53,0,0,0,2.72,2.4l-.19.61a5.74,5.74,0,0,1-3.55-2.62,10.22,10.22,0,0,1,0-9.74A5.7,5.7,0,0,1,456.69,96l.21.61A4.6,4.6,0,0,0,454.16,99,9.82,9.82,0,0,0,453.28,103.39Z"/><path class="d" d="M464.12,93.79a3.48,3.48,0,0,0,.63-.05,1,1,0,0,0,.38-.16.72.72,0,0,0,.22-.29,4.07,4.07,0,0,0,.21-.55h.67l-.13,2.31h-6.5v-.38a9.77,9.77,0,0,1,.91-1.7,18.24,18.24,0,0,1,1.64-2c.61-.68,1.05-1.19,1.32-1.54a7.65,7.65,0,0,0,.66-1,3.94,3.94,0,0,0,.31-.78,3.12,3.12,0,0,0,.09-.74,2.62,2.62,0,0,0-.19-1,1.51,1.51,0,0,0-.58-.71,1.69,1.69,0,0,0-1-.26,2,2,0,0,0-2,1.64h-1V85a9.36,9.36,0,0,1,1.79-.65,6.75,6.75,0,0,1,1.5-.2,3.32,3.32,0,0,1,2.22.64,2.33,2.33,0,0,1,.75,1.87,3.64,3.64,0,0,1-.08.77,3.7,3.7,0,0,1-.26.7,5.7,5.7,0,0,1-.48.74c-.2.26-.42.53-.66.8L463.35,91a16.86,16.86,0,0,0-2.21,2.78Z"/><path class="d" d="M473.76,88.72v1.93H472V88.72Z"/><path class="d" d="M479,94.66a1.07,1.07,0,0,0,.45-.15.84.84,0,0,0,.25-.3,2.56,2.56,0,0,0,.19-.46,10.75,10.75,0,0,0,.26-1.06l1.34-6.08a6,6,0,0,0,.18-1.27.61.61,0,0,0-.19-.52,1.06,1.06,0,0,0-.59-.17l.09-.39h3.16l-.09.39a1.53,1.53,0,0,0-.43.14,1.06,1.06,0,0,0-.23.24,2.15,2.15,0,0,0-.21.49,10.38,10.38,0,0,0-.28,1.1l-1.69,7.7h1.94a2.71,2.71,0,0,0,.84-.1,1.43,1.43,0,0,0,.57-.38,3.21,3.21,0,0,0,.54-.73,10.36,10.36,0,0,0,.53-1.17h.76l-.79,3.11H478.9Z"/><path class="d" d="M493.18,97.31A15.84,15.84,0,0,0,494.61,95a3.64,3.64,0,0,0,.49-1.55.45.45,0,0,0-.12-.35.74.74,0,0,0-.44-.13l.07-.37h1.62l.21.33c-.17.42-.34.83-.54,1.24s-.42.83-.68,1.27-.56.9-.91,1.39-.76,1-1.23,1.61h-.74l-.47-4a18.29,18.29,0,0,1-.95,1.86c-.39.66-.84,1.37-1.37,2.13h-.84l-.54-4.34c0-.23-.05-.42-.08-.56a.93.93,0,0,0-.1-.32.39.39,0,0,0-.21-.17,1.07,1.07,0,0,0-.37-.08l.09-.37h1.66l.45,4.67c.25-.38.46-.72.65-1s.35-.59.5-.85.26-.49.37-.71.19-.43.26-.63.13-.39.18-.58l.12-.6.07-.27h.92Zm6.27-3.49.08,0a6.67,6.67,0,0,1,.56-.6,3.69,3.69,0,0,1,.52-.42,2,2,0,0,1,.51-.24,1.53,1.53,0,0,1,.52-.08,1.21,1.21,0,0,1,1.05.49,2.37,2.37,0,0,1,.37,1.45A4.73,4.73,0,0,1,502.8,96a4.24,4.24,0,0,1-.69,1.28,3.24,3.24,0,0,1-1,.87,2.39,2.39,0,0,1-1.22.32,3.06,3.06,0,0,1-.76-.08,2.28,2.28,0,0,1-.69-.28l-.29.18-.28.18-.22,0-.22-.06,1.38-6.17c0-.19.07-.35.1-.47a2,2,0,0,0,0-.32.36.36,0,0,0,0-.19.22.22,0,0,0-.12-.13.63.63,0,0,0-.23-.07,1.79,1.79,0,0,0-.36,0l.08-.39,1.59-.07h.41Zm-.41,2.1c0,.2-.07.41-.11.61a3.74,3.74,0,0,0-.05.55.86.86,0,0,0,.21.66,1,1,0,0,0,.67.2,1.35,1.35,0,0,0,.87-.31,2.51,2.51,0,0,0,.68-.79,4.37,4.37,0,0,0,.45-1.1,4.61,4.61,0,0,0,.16-1.23,1.87,1.87,0,0,0-.18-.92.59.59,0,0,0-.56-.3,1.15,1.15,0,0,0-.57.17,2.44,2.44,0,0,0-.61.5,3.87,3.87,0,0,0-.56.83A4.67,4.67,0,0,0,499,95.92Z"/><path class="d" d="M514.74,88.72v1.93H513V88.72Z"/><path class="d" d="M525.39,89.42a1.75,1.75,0,0,0-.47-1.07,1.65,1.65,0,0,0-1.18-.36,1.51,1.51,0,0,0-1,.32,1,1,0,0,0-.39.84,1.31,1.31,0,0,0,.1.5,1.73,1.73,0,0,0,.4.48,8.21,8.21,0,0,0,.93.64,5.71,5.71,0,0,1,.8.55,2.74,2.74,0,0,1,.48.49,1.78,1.78,0,0,1,.25.52,2.48,2.48,0,0,1,.08.66,1.93,1.93,0,0,1-.38,1.2,2.17,2.17,0,0,1-1,.75,4.14,4.14,0,0,1-1.46.24,7.84,7.84,0,0,1-1.29-.1,9.35,9.35,0,0,1-1.41-.33L520.2,93h.62a1.6,1.6,0,0,0,.43,1.14,1.72,1.72,0,0,0,1.25.39,1.84,1.84,0,0,0,1.18-.34,1.14,1.14,0,0,0,.42-1,1.41,1.41,0,0,0-.12-.61,1.45,1.45,0,0,0-.39-.49,6.32,6.32,0,0,0-.85-.6,6.44,6.44,0,0,1-1-.67,2.22,2.22,0,0,1-.52-.65,1.86,1.86,0,0,1-.17-.81,1.83,1.83,0,0,1,.33-1.09,2.16,2.16,0,0,1,1-.73,3.89,3.89,0,0,1,1.46-.25,9.21,9.21,0,0,1,1.34.09,5.27,5.27,0,0,1,1.2.3L526,89.42Z"/><path class="d" d="M528.74,89.72a5.82,5.82,0,0,0,.18-1.18.57.57,0,0,0-.17-.48,1.34,1.34,0,0,0-.67-.15l.09-.41,1.93-.07h.46l-1.14,5.07a6.12,6.12,0,0,0-.17,1.17.75.75,0,0,0,.1.45.37.37,0,0,0,.33.15.89.89,0,0,0,.5-.2,5.38,5.38,0,0,0,.76-.74l.45.45a6.56,6.56,0,0,1-1.26,1.1,2,2,0,0,1-1.08.3,1,1,0,0,1-.82-.38,1.49,1.49,0,0,1-.31-1,7.35,7.35,0,0,1,.22-1.53Zm2.54-5.32-.36,1.53h-1.4l.36-1.53ZM534.07,90a5.56,5.56,0,0,0,.18-1.17.8.8,0,0,0-.11-.46.36.36,0,0,0-.32-.14.92.92,0,0,0-.52.2,6,6,0,0,0-.74.73l-.45-.44a7.4,7.4,0,0,1,1.21-1.08,1.94,1.94,0,0,1,1.09-.32,1,1,0,0,1,.78.33,1.26,1.26,0,0,1,.29.86,2.61,2.61,0,0,1-.19.93l.09,0a7.19,7.19,0,0,1,1.48-1.61,2.31,2.31,0,0,1,1.44-.53,1.47,1.47,0,0,1,1.13.42,1.68,1.68,0,0,1,.4,1.18,6.46,6.46,0,0,1-.23,1.41l-.52,2.07a6,6,0,0,0-.21,1.22.75.75,0,0,0,.1.45.37.37,0,0,0,.33.15.89.89,0,0,0,.5-.2,5.38,5.38,0,0,0,.76-.74l.45.45a7.31,7.31,0,0,1-1.18,1.06,2.1,2.1,0,0,1-1.16.34,1,1,0,0,1-.82-.37,1.4,1.4,0,0,1-.31-.94,6.83,6.83,0,0,1,.26-1.51l.35-1.36c.13-.5.21-.87.25-1.1a3.66,3.66,0,0,0,.06-.58,1.32,1.32,0,0,0-.18-.78.68.68,0,0,0-.6-.25,1.24,1.24,0,0,0-.71.27,3.78,3.78,0,0,0-.81.8,6.48,6.48,0,0,0-.7,1,5.44,5.44,0,0,0-.42,1.24l-.75,3.42h-1.37Z"/><path class="d" d="M544.2,91.05a10.29,10.29,0,0,0,.89,4.56,4.5,4.5,0,0,0,2.72,2.4l-.19.61A5.71,5.71,0,0,1,544.07,96a10.26,10.26,0,0,1,0-9.74,5.74,5.74,0,0,1,3.55-2.63l.21.61a4.57,4.57,0,0,0-2.74,2.38A9.81,9.81,0,0,0,544.2,91.05Z"/><path class="d" d="M557.44,87.9c-.65.88-1.42,2-2.3,3.26a17.44,17.44,0,0,0-.2,2.14,1.68,1.68,0,0,0,.12.74.41.41,0,0,0,.39.23.87.87,0,0,0,.5-.19,2.82,2.82,0,0,0,.61-.57l.46.43a5.17,5.17,0,0,1-1.16,1,2,2,0,0,1-1,.27c-.7,0-1.05-.52-1.05-1.54a7.24,7.24,0,0,1,.05-.75h-.08a6.94,6.94,0,0,1-1.54,1.75,2.57,2.57,0,0,1-1.56.54,1.47,1.47,0,0,1-1-.34,1.89,1.89,0,0,1-.58-.88,3.5,3.5,0,0,1-.19-1.19,7,7,0,0,1,.53-2.69,4.78,4.78,0,0,1,1.5-2,3.46,3.46,0,0,1,2.15-.72,1.75,1.75,0,0,1,1.38.55,2.53,2.53,0,0,1,.56,1.62h.07l1-2h1.36ZM554,91.22a9,9,0,0,0,.13-1.46,2.69,2.69,0,0,0-.26-1.33.92.92,0,0,0-.83-.44,1.88,1.88,0,0,0-1.35.65,4.57,4.57,0,0,0-1,1.76,7,7,0,0,0-.38,2.26,2.3,2.3,0,0,0,.24,1.19.79.79,0,0,0,.71.39,2,2,0,0,0,1.4-.8A8.07,8.07,0,0,0,554,91.22Z"/><path class="d" d="M562.22,91.05a9.82,9.82,0,0,0-.88-4.43,4.55,4.55,0,0,0-2.74-2.38l.21-.61a5.74,5.74,0,0,1,3.55,2.63,10.26,10.26,0,0,1,0,9.74,5.71,5.71,0,0,1-3.55,2.62l-.19-.61a4.53,4.53,0,0,0,2.72-2.4A10.29,10.29,0,0,0,562.22,91.05Z"/><path class="d" d="M508.79,109.22c.06-.28.11-.5.13-.66a2.63,2.63,0,0,0,0-.47.74.74,0,0,0-.08-.36.49.49,0,0,0-.25-.17,2.07,2.07,0,0,0-.58-.08l.09-.41,2-.07h.47l-2,8.74a6.34,6.34,0,0,0-.17,1.17.81.81,0,0,0,.1.46.39.39,0,0,0,.33.14.85.85,0,0,0,.5-.19,6,6,0,0,0,.76-.74l.45.44a6.57,6.57,0,0,1-1.25,1.1,2,2,0,0,1-1.09.3,1,1,0,0,1-.82-.38,1.48,1.48,0,0,1-.31-1,8.32,8.32,0,0,1,.22-1.54Zm7.9,7.06a6.8,6.8,0,0,1-1.43,1.62,2.39,2.39,0,0,1-1.44.51,1.59,1.59,0,0,1-1.35-.65,3.07,3.07,0,0,1-.48-1.84,6.57,6.57,0,0,1,.54-2.62,4.79,4.79,0,0,1,1.46-2,3.33,3.33,0,0,1,2.08-.72,3.57,3.57,0,0,1,.89.1,3,3,0,0,1,.83.34l.41-1.83c0-.17.08-.36.11-.57a3,3,0,0,0,.05-.56.64.64,0,0,0-.09-.36.43.43,0,0,0-.24-.17,2.16,2.16,0,0,0-.59-.08l.1-.41,2-.07H520l-2,8.74a6.34,6.34,0,0,0-.17,1.17.81.81,0,0,0,.1.46.39.39,0,0,0,.32.14.87.87,0,0,0,.51-.19,6,6,0,0,0,.76-.74l.45.44a6.94,6.94,0,0,1-1.23,1.08,2,2,0,0,1-1.07.32,1,1,0,0,1-.78-.32,1.23,1.23,0,0,1-.3-.86,2.75,2.75,0,0,1,.19-.93Zm.53-2.8a5.23,5.23,0,0,0,.12-1.07,1.32,1.32,0,0,0-.26-.9,1.12,1.12,0,0,0-.87-.28,2,2,0,0,0-1.44.65,4.41,4.41,0,0,0-1,1.76,6.82,6.82,0,0,0-.37,2.2,2.61,2.61,0,0,0,.23,1.23.79.79,0,0,0,.75.41,1.33,1.33,0,0,0,.5-.11,1.85,1.85,0,0,0,.52-.34,3.81,3.81,0,0,0,.54-.58,7.76,7.76,0,0,0,.49-.68,6.09,6.09,0,0,0,.41-.81,7.6,7.6,0,0,0,.32-1.14Z"/><rect class="d" x="458.58" y="102.26" width="110.1" height="1.06"/><path class="d" d="M572.6,103.39a10,10,0,0,0-.88-4.43A4.56,4.56,0,0,0,569,96.58l.22-.61a5.72,5.72,0,0,1,3.54,2.63,9.2,9.2,0,0,1,1.24,4.87,9.06,9.06,0,0,1-1.24,4.87,5.72,5.72,0,0,1-3.54,2.62l-.19-.61a4.51,4.51,0,0,0,2.71-2.4A10.29,10.29,0,0,0,572.6,103.39Z"/><path class="i" d="M147.72,266.57a.38.38,0,0,0,.19-.06.4.4,0,0,0,.1-.12,1.82,1.82,0,0,0,.08-.19c0-.07.06-.22.1-.43l.55-2.46a3.27,3.27,0,0,0,.07-.52.26.26,0,0,0-.08-.21.46.46,0,0,0-.24-.07l0-.16h1.28l0,.16-.18.06a.22.22,0,0,0-.09.1.63.63,0,0,0-.09.2,3.4,3.4,0,0,0-.11.44l-.69,3.12h.79a1.05,1.05,0,0,0,.34,0,.65.65,0,0,0,.23-.15,1.06,1.06,0,0,0,.22-.3,3.59,3.59,0,0,0,.21-.47h.31l-.32,1.26h-2.71Z"/><path class="i" d="M153.48,267.64a6.28,6.28,0,0,0,.58-.91,1.63,1.63,0,0,0,.2-.63.21.21,0,0,0,0-.15.32.32,0,0,0-.18-.05l0-.15h.66l.08.14c-.06.16-.14.33-.21.5s-.18.33-.28.51-.23.37-.37.57-.31.41-.5.65h-.3L153,266.5a6.12,6.12,0,0,1-.39.76c-.15.26-.34.55-.55.86h-.34l-.22-1.76c0-.09,0-.17,0-.23a.39.39,0,0,0,0-.13.19.19,0,0,0-.08-.07l-.15,0,0-.15h.67l.18,1.89.27-.41.2-.35a2.7,2.7,0,0,0,.15-.29,2.6,2.6,0,0,0,.1-.25,2.25,2.25,0,0,0,.08-.24c0-.08,0-.16,0-.24l0-.11h.38Zm2.54-1.41,0,0a3,3,0,0,1,.23-.25,2.62,2.62,0,0,1,.21-.17l.21-.1a.76.76,0,0,1,.21,0,.51.51,0,0,1,.43.2,1,1,0,0,1,.15.59,1.9,1.9,0,0,1-.11.63,1.73,1.73,0,0,1-.28.52,1.4,1.4,0,0,1-.41.36,1.09,1.09,0,0,1-.5.13,1.55,1.55,0,0,1-.31,0,1,1,0,0,1-.27-.11l-.12.07-.12.08-.09,0-.08,0,.56-2.5c0-.08,0-.14,0-.19a.83.83,0,0,0,0-.13.19.19,0,0,0,0-.08.08.08,0,0,0,0-.05.12.12,0,0,0-.09,0l-.15,0,0-.15.64,0h.17Zm-.16.85c0,.08,0,.17-.05.25a1.8,1.8,0,0,0,0,.22.34.34,0,0,0,.09.27.38.38,0,0,0,.27.08.55.55,0,0,0,.35-.12,1.24,1.24,0,0,0,.28-.32A1.77,1.77,0,0,0,157,267a2.08,2.08,0,0,0,.07-.5.7.7,0,0,0-.08-.37.22.22,0,0,0-.22-.13.55.55,0,0,0-.23.07,1,1,0,0,0-.25.21,1.74,1.74,0,0,0-.23.33A1.91,1.91,0,0,0,155.86,267.08Z"/><path class="i" d="M262.94,260.66a6.09,6.09,0,0,0-1.22-.15c-.81,0-1.21.43-1.21,1.27v.91h2.26v.75h-2.26v3.67h-.92v-3.67h-1.66v-.75h1.66v-.86c0-1.37.72-2.06,2.16-2.06a6.66,6.66,0,0,1,1.19.12Z"/><path class="i" d="M265.87,260.57h-1.53v-.74h2.44v6.54h1.54v.74h-4.15v-.74h1.7Z"/><path class="i" d="M274.37,264.48a3.23,3.23,0,0,1-.17,1.11,2.28,2.28,0,0,1-.49.86,2.16,2.16,0,0,1-.77.56,2.69,2.69,0,0,1-1.05.2,2.57,2.57,0,0,1-1-.18,1.87,1.87,0,0,1-.75-.5,2.25,2.25,0,0,1-.47-.83,3.61,3.61,0,0,1-.16-1.14,3.21,3.21,0,0,1,.17-1.1,2.28,2.28,0,0,1,.49-.86A2.23,2.23,0,0,1,271,262a2.61,2.61,0,0,1,1-.19,2.66,2.66,0,0,1,1,.17,1.9,1.9,0,0,1,.74.5,2.17,2.17,0,0,1,.47.83A3.59,3.59,0,0,1,274.37,264.48Zm-.91,0a3,3,0,0,0-.11-.84,1.69,1.69,0,0,0-.3-.6,1.22,1.22,0,0,0-.48-.36,1.52,1.52,0,0,0-.62-.12,1.35,1.35,0,0,0-.69.16,1.27,1.27,0,0,0-.47.42,1.8,1.8,0,0,0-.27.61,2.87,2.87,0,0,0-.08.73,3,3,0,0,0,.1.84,1.69,1.69,0,0,0,.3.6,1.22,1.22,0,0,0,.48.36,1.54,1.54,0,0,0,.63.12,1.34,1.34,0,0,0,.68-.16,1.19,1.19,0,0,0,.47-.42,1.7,1.7,0,0,0,.27-.61A2.92,2.92,0,0,0,273.46,264.53Z"/><path class="i" d="M279,267.11l0-.69a2.81,2.81,0,0,1-.86.6,2.23,2.23,0,0,1-.92.19,2.07,2.07,0,0,1-.75-.12,1.34,1.34,0,0,1-.52-.31,1.15,1.15,0,0,1-.3-.46,1.63,1.63,0,0,1-.1-.59,1.47,1.47,0,0,1,.58-1.22,2.85,2.85,0,0,1,1.72-.44h1.07v-.45a1,1,0,0,0-.29-.74,1.31,1.31,0,0,0-.9-.27,3.69,3.69,0,0,0-.87.1,5.39,5.39,0,0,0-.87.27v-.8a3.19,3.19,0,0,1,.37-.13l.45-.1.48-.08a4.35,4.35,0,0,1,.51,0,3.2,3.2,0,0,1,.85.1,1.69,1.69,0,0,1,.63.31,1.31,1.31,0,0,1,.4.53,1.81,1.81,0,0,1,.14.76v3.56Zm-.1-2.35h-1.14a2,2,0,0,0-.58.07.89.89,0,0,0-.39.19.71.71,0,0,0-.23.29,1,1,0,0,0-.08.39.93.93,0,0,0,.05.29.61.61,0,0,0,.15.24.73.73,0,0,0,.27.17,1.16,1.16,0,0,0,.4.06,1.68,1.68,0,0,0,.71-.19,3.51,3.51,0,0,0,.84-.59Z"/><path class="i" d="M285.57,267a4.62,4.62,0,0,1-.63.11,4.87,4.87,0,0,1-.66,0,2.12,2.12,0,0,1-1.46-.44,1.77,1.77,0,0,1-.48-1.36v-2.7H280.9v-.75h1.44v-1.43l.9-.23v1.66h2.33v.75h-2.33v2.63a1.07,1.07,0,0,0,.3.83,1.21,1.21,0,0,0,.87.28,3.44,3.44,0,0,0,.54,0l.62-.12Z"/><path d="M297,265.7a1.26,1.26,0,0,1-.1.49,1.24,1.24,0,0,1-.25.39,1.72,1.72,0,0,1-.37.28,2.28,2.28,0,0,1-.45.2,3.56,3.56,0,0,1-1,.15,9.66,9.66,0,0,1-1,0A6.19,6.19,0,0,1,293,267v-.82a7.21,7.21,0,0,0,.9.19,5.42,5.42,0,0,0,.89.07,2,2,0,0,0,1-.18.55.55,0,0,0,.31-.5.7.7,0,0,0-.05-.25.56.56,0,0,0-.18-.21,2.76,2.76,0,0,0-.4-.21c-.18-.07-.43-.15-.74-.24a5.49,5.49,0,0,1-.65-.24,2.57,2.57,0,0,1-.51-.31,1.37,1.37,0,0,1-.34-.42,1.31,1.31,0,0,1-.12-.58,1.32,1.32,0,0,1,.44-.95,1.87,1.87,0,0,1,.66-.37,3,3,0,0,1,1-.14l.67,0a7.69,7.69,0,0,1,.78.11v.8a6.68,6.68,0,0,0-.81-.15,5.74,5.74,0,0,0-.65-.05,2.94,2.94,0,0,0-.57.05,1.42,1.42,0,0,0-.37.15.57.57,0,0,0-.2.21.55.55,0,0,0-.06.26.53.53,0,0,0,.05.25.58.58,0,0,0,.2.22,1.92,1.92,0,0,0,.41.21,6.89,6.89,0,0,0,.69.23,5.55,5.55,0,0,1,.77.28,2,2,0,0,1,.51.33,1,1,0,0,1,.28.41A1.36,1.36,0,0,1,297,265.7Z"/><path d="M302.83,267a4.14,4.14,0,0,1-.63.11,4.68,4.68,0,0,1-.66,0,2.09,2.09,0,0,1-1.45-.44,1.77,1.77,0,0,1-.48-1.36v-2.7h-1.45v-.75h1.45v-1.43l.9-.23v1.66h2.32v.75h-2.32v2.63a1.1,1.1,0,0,0,.29.83,1.22,1.22,0,0,0,.88.28,3.62,3.62,0,0,0,.54,0l.61-.12Z"/><path d="M308.8,264.25c0,.13,0,.24,0,.32s0,.17,0,.24h-3.64a1.63,1.63,0,0,0,.44,1.22,1.77,1.77,0,0,0,1.28.43l.46,0,.43-.05.41-.07.36-.08V267a7.67,7.67,0,0,1-.83.16,6,6,0,0,1-1,.07,3.25,3.25,0,0,1-1.14-.18,2,2,0,0,1-.79-.53,2.18,2.18,0,0,1-.45-.84,3.84,3.84,0,0,1-.15-1.12,3.24,3.24,0,0,1,.16-1,2.49,2.49,0,0,1,.46-.85,2.13,2.13,0,0,1,1.73-.8,2.61,2.61,0,0,1,1,.16,2,2,0,0,1,.71.49,2.09,2.09,0,0,1,.43.76A3.07,3.07,0,0,1,308.8,264.25Zm-.94-.13a2.11,2.11,0,0,0-.06-.63,1.36,1.36,0,0,0-.26-.49,1.16,1.16,0,0,0-.43-.32,1.4,1.4,0,0,0-.6-.12,1.3,1.3,0,0,0-.95.43,1.88,1.88,0,0,0-.29.5,2.43,2.43,0,0,0-.13.63Z"/><path d="M314.56,264.25v.32c0,.09,0,.17,0,.24H310.9a1.59,1.59,0,0,0,.45,1.22,1.74,1.74,0,0,0,1.28.43l.45,0,.44-.05.4-.07.36-.08V267a7.22,7.22,0,0,1-.83.16,5.82,5.82,0,0,1-.95.07,3.27,3.27,0,0,1-1.15-.18,1.9,1.9,0,0,1-.78-.53,2.07,2.07,0,0,1-.46-.84,4.23,4.23,0,0,1-.14-1.12,3.53,3.53,0,0,1,.15-1,2.68,2.68,0,0,1,.46-.85,2.25,2.25,0,0,1,.74-.59,2.29,2.29,0,0,1,1-.21,2.61,2.61,0,0,1,1,.16,2.06,2.06,0,0,1,.7.49,2,2,0,0,1,.43.76A3.07,3.07,0,0,1,314.56,264.25Zm-.93-.13a2.1,2.1,0,0,0-.07-.63,1.36,1.36,0,0,0-.26-.49,1.08,1.08,0,0,0-.43-.32,1.38,1.38,0,0,0-.59-.12,1.19,1.19,0,0,0-.54.12,1.27,1.27,0,0,0-.42.31,1.85,1.85,0,0,0-.28.5,2.42,2.42,0,0,0-.14.63Z"/><path d="M316.16,261.94H317l0,.95a3.39,3.39,0,0,1,.9-.8,1.9,1.9,0,0,1,.9-.24,1.45,1.45,0,0,1,1.22.52,2.29,2.29,0,0,1,.39,1.54h-.91a1.69,1.69,0,0,0-.2-1,.7.7,0,0,0-.63-.31,1.13,1.13,0,0,0-.36.06,1.62,1.62,0,0,0-.38.21,3.9,3.9,0,0,0-.41.36c-.14.15-.29.33-.46.54v3.32h-.91Z"/><path d="M323.48,262.68H322v-.74h2.44v4.43h1.54v.74h-4.15v-.74h1.7Zm.31-2.91a.64.64,0,0,1,.28.05.67.67,0,0,1,.38.38.76.76,0,0,1,.05.27.87.87,0,0,1-.05.28.86.86,0,0,1-.15.22.73.73,0,0,1-.23.16.82.82,0,0,1-.28.05.87.87,0,0,1-.28-.05.69.69,0,0,1-.22-.16.86.86,0,0,1-.15-.22.87.87,0,0,1-.05-.28.76.76,0,0,1,.05-.27.91.91,0,0,1,.15-.23.86.86,0,0,1,.22-.15A.66.66,0,0,1,323.79,259.77Z"/><path d="M327.48,261.94h.8l0,.83a4.55,4.55,0,0,1,.44-.44,2.11,2.11,0,0,1,.42-.29,1.56,1.56,0,0,1,.41-.15,2.12,2.12,0,0,1,.44,0,1.5,1.5,0,0,1,1.21.47,2.11,2.11,0,0,1,.41,1.42v3.37h-.9v-3.3a1.45,1.45,0,0,0-.22-.9.83.83,0,0,0-.68-.29.86.86,0,0,0-.32.05,1,1,0,0,0-.33.17,3.21,3.21,0,0,0-.37.32c-.13.14-.28.31-.44.52v3.43h-.9Z"/><path d="M337.08,262.67a1.4,1.4,0,0,1,.22.42,1.8,1.8,0,0,1-.07,1.25,1.54,1.54,0,0,1-.41.57,1.92,1.92,0,0,1-.64.37,2.45,2.45,0,0,1-.83.13,2.3,2.3,0,0,1-.6-.07,1.37,1.37,0,0,1-.45-.17c-.07.1-.12.19-.17.27a.73.73,0,0,0-.07.29.41.41,0,0,0,.19.33,1,1,0,0,0,.5.14l1.36.05a3.21,3.21,0,0,1,.72.1,1.68,1.68,0,0,1,.56.25,1.09,1.09,0,0,1,.36.41,1.13,1.13,0,0,1,.14.56,1.44,1.44,0,0,1-.15.65,1.52,1.52,0,0,1-.47.55,2.42,2.42,0,0,1-.79.37,4.23,4.23,0,0,1-1.14.14,4.75,4.75,0,0,1-1.07-.1,2.4,2.4,0,0,1-.72-.28,1.09,1.09,0,0,1-.41-.42,1.08,1.08,0,0,1-.13-.54,1.3,1.3,0,0,1,.17-.66,2.14,2.14,0,0,1,.54-.55.91.91,0,0,1-.23-.15.83.83,0,0,1-.16-.21.92.92,0,0,1-.09-.23,1,1,0,0,1,0-.24,1.19,1.19,0,0,1,.16-.62,3.08,3.08,0,0,1,.37-.52,2.68,2.68,0,0,1-.17-.23,1.19,1.19,0,0,1-.13-.25.9.9,0,0,1-.08-.28,1.83,1.83,0,0,1,0-.35,2,2,0,0,1,.14-.74,1.56,1.56,0,0,1,.42-.56,1.69,1.69,0,0,1,.64-.37,2.39,2.39,0,0,1,.82-.13,2.23,2.23,0,0,1,.37,0l.31.07h1.88v.73ZM334,267.86a.57.57,0,0,0,.38.54,2.8,2.8,0,0,0,1.07.16,2.88,2.88,0,0,0,.71-.07,1.38,1.38,0,0,0,.47-.21.71.71,0,0,0,.26-.29.76.76,0,0,0,.08-.33.5.5,0,0,0-.26-.46,1.84,1.84,0,0,0-.79-.18l-1.35,0a1.3,1.3,0,0,0-.28.22.69.69,0,0,0-.17.22.47.47,0,0,0-.09.22A.83.83,0,0,0,334,267.86Zm.27-4.23a1.1,1.1,0,0,0,.09.45.86.86,0,0,0,.23.35,1.18,1.18,0,0,0,.35.23,1.33,1.33,0,0,0,.45.08,1.21,1.21,0,0,0,.48-.09.9.9,0,0,0,.35-.25,1,1,0,0,0,.22-.35,1.23,1.23,0,0,0,.07-.42,1.06,1.06,0,0,0-.08-.45,1,1,0,0,0-.23-.36,1.09,1.09,0,0,0-.36-.22,1.25,1.25,0,0,0-.45-.08,1.06,1.06,0,0,0-.82.34,1,1,0,0,0-.22.35A1.2,1.2,0,0,0,334.23,263.63Z"/><path d="M344.09,269.23h-5.8v-.74h5.8Z"/><path d="M348.2,267.11l0-.69a2.69,2.69,0,0,1-.86.6,2.18,2.18,0,0,1-.91.19,2.13,2.13,0,0,1-.76-.12,1.41,1.41,0,0,1-.52-.31,1.26,1.26,0,0,1-.3-.46,1.87,1.87,0,0,1-.09-.59,1.45,1.45,0,0,1,.58-1.22,2.8,2.8,0,0,1,1.71-.44h1.07v-.45a1,1,0,0,0-.29-.74,1.31,1.31,0,0,0-.9-.27,3.55,3.55,0,0,0-.86.1,5.2,5.2,0,0,0-.88.27v-.8a2.8,2.8,0,0,1,.38-.13l.44-.1.48-.08a4.35,4.35,0,0,1,.51,0,3.15,3.15,0,0,1,.85.1,1.82,1.82,0,0,1,.64.31,1.52,1.52,0,0,1,.4.53,2,2,0,0,1,.14.76v3.56Zm-.1-2.35H347a1.93,1.93,0,0,0-.57.07.88.88,0,0,0-.4.19.8.8,0,0,0-.23.29,1,1,0,0,0-.07.39.92.92,0,0,0,0,.29.61.61,0,0,0,.15.24.73.73,0,0,0,.27.17,1.16,1.16,0,0,0,.4.06,1.64,1.64,0,0,0,.71-.19,3.16,3.16,0,0,0,.84-.59Z"/><path d="M350.64,261.94h.8l0,.83a4.55,4.55,0,0,1,.44-.44,2.11,2.11,0,0,1,.42-.29,1.56,1.56,0,0,1,.41-.15,2.12,2.12,0,0,1,.44,0,1.5,1.5,0,0,1,1.21.47,2.11,2.11,0,0,1,.41,1.42v3.37h-.9v-3.3a1.45,1.45,0,0,0-.22-.9.83.83,0,0,0-.68-.29.86.86,0,0,0-.32.05,1,1,0,0,0-.33.17,3.21,3.21,0,0,0-.37.32c-.13.14-.28.31-.44.52v3.43h-.9Z"/><path d="M360.13,262.67a1.42,1.42,0,0,1,.23.42,1.8,1.8,0,0,1-.07,1.25,1.69,1.69,0,0,1-.42.57,1.92,1.92,0,0,1-.64.37,2.67,2.67,0,0,1-1.43.06,1.37,1.37,0,0,1-.45-.17c-.06.1-.12.19-.16.27a.59.59,0,0,0-.07.29.39.39,0,0,0,.19.33,1,1,0,0,0,.5.14l1.36.05a3.2,3.2,0,0,1,.71.1,1.52,1.52,0,0,1,.56.25,1.13,1.13,0,0,1,.5,1,1.44,1.44,0,0,1-.15.65,1.49,1.49,0,0,1-.46.55,2.52,2.52,0,0,1-.79.37,4.23,4.23,0,0,1-1.14.14,4.69,4.69,0,0,1-1.07-.1,2.37,2.37,0,0,1-.73-.28,1.26,1.26,0,0,1-.41-.42,1.2,1.2,0,0,1-.13-.54,1.21,1.21,0,0,1,.18-.66,2.14,2.14,0,0,1,.54-.55.76.76,0,0,1-.23-.15.65.65,0,0,1-.16-.21,1.6,1.6,0,0,1-.1-.23,1,1,0,0,1,0-.24,1.3,1.3,0,0,1,.16-.62,3.77,3.77,0,0,1,.37-.52l-.17-.23a2,2,0,0,1-.13-.25,2.29,2.29,0,0,1-.08-.28,1.95,1.95,0,0,1,.12-1.09,1.54,1.54,0,0,1,.41-.56,1.77,1.77,0,0,1,.64-.37,2.45,2.45,0,0,1,.83-.13,2.06,2.06,0,0,1,.36,0,1.8,1.8,0,0,1,.31.07H361v.73ZM357,267.86a.56.56,0,0,0,.38.54,2.75,2.75,0,0,0,1.06.16,2.92,2.92,0,0,0,.72-.07,1.58,1.58,0,0,0,.47-.21.69.69,0,0,0,.25-.29.64.64,0,0,0,.08-.33.48.48,0,0,0-.26-.46,1.79,1.79,0,0,0-.78-.18l-1.36,0a1.6,1.6,0,0,0-.28.22.87.87,0,0,0-.17.22.85.85,0,0,0-.09.22A1.64,1.64,0,0,0,357,267.86Zm.27-4.23a1.29,1.29,0,0,0,.08.45,1,1,0,0,0,.23.35,1.11,1.11,0,0,0,.36.23,1.25,1.25,0,0,0,.45.08,1.21,1.21,0,0,0,.48-.09,1.07,1.07,0,0,0,.35-.25,1.13,1.13,0,0,0,.21-.35,1.22,1.22,0,0,0,0-.87,1.13,1.13,0,0,0-.24-.36,1,1,0,0,0-.35-.22,1.33,1.33,0,0,0-.45-.08,1.21,1.21,0,0,0-.48.09,1.3,1.3,0,0,0-.35.25,1.15,1.15,0,0,0-.22.35A1.2,1.2,0,0,0,357.29,263.63Z"/><path d="M363.93,260.57H362.4v-.74h2.44v6.54h1.54v.74h-4.15v-.74h1.7Z"/><path d="M372.3,264.25v.32c0,.09,0,.17,0,.24h-3.63a1.59,1.59,0,0,0,.44,1.22,1.75,1.75,0,0,0,1.28.43l.45,0,.44-.05.41-.07.35-.08V267a7.46,7.46,0,0,1-.82.16,6,6,0,0,1-1,.07,3.25,3.25,0,0,1-1.14-.18,1.93,1.93,0,0,1-.79-.53,2.06,2.06,0,0,1-.45-.84,3.84,3.84,0,0,1-.15-1.12,3.24,3.24,0,0,1,.16-1,2.47,2.47,0,0,1,.45-.85,2.36,2.36,0,0,1,.74-.59,2.33,2.33,0,0,1,1-.21,2.61,2.61,0,0,1,1,.16,2,2,0,0,1,.7.49,2.11,2.11,0,0,1,.44.76A3.38,3.38,0,0,1,372.3,264.25Zm-.93-.13a1.82,1.82,0,0,0-.07-.63,1.34,1.34,0,0,0-.25-.49,1.24,1.24,0,0,0-.43-.32,1.43,1.43,0,0,0-.6-.12,1.19,1.19,0,0,0-.54.12,1.27,1.27,0,0,0-.42.31,1.85,1.85,0,0,0-.28.5,2.07,2.07,0,0,0-.13.63Z"/><path d="M383.86,263.78h-4.44V263h4.44Zm0,1.8h-4.44v-.76h4.44Z"/><path d="M394.41,267.11l0-.69a2.69,2.69,0,0,1-.86.6,2.18,2.18,0,0,1-.91.19,2.13,2.13,0,0,1-.76-.12,1.28,1.28,0,0,1-.82-.77,1.87,1.87,0,0,1-.09-.59,1.45,1.45,0,0,1,.58-1.22,2.82,2.82,0,0,1,1.71-.44h1.07v-.45a1,1,0,0,0-.29-.74,1.29,1.29,0,0,0-.9-.27,3.55,3.55,0,0,0-.86.1,5.49,5.49,0,0,0-.88.27v-.8a2.8,2.8,0,0,1,.38-.13l.44-.1.49-.08a4.18,4.18,0,0,1,.51,0,3.12,3.12,0,0,1,.84.1,1.82,1.82,0,0,1,.64.31,1.52,1.52,0,0,1,.4.53,2,2,0,0,1,.14.76v3.56Zm-.1-2.35h-1.14a1.93,1.93,0,0,0-.57.07.93.93,0,0,0-.4.19.8.8,0,0,0-.23.29,1,1,0,0,0-.07.39.92.92,0,0,0,0,.29.61.61,0,0,0,.15.24.73.73,0,0,0,.27.17,1.16,1.16,0,0,0,.4.06,1.61,1.61,0,0,0,.71-.19,3.16,3.16,0,0,0,.84-.59Z"/><path d="M401,267a4.14,4.14,0,0,1-.63.11,4.68,4.68,0,0,1-.66,0,2.09,2.09,0,0,1-1.45-.44,1.77,1.77,0,0,1-.48-1.36v-2.7h-1.45v-.75h1.45v-1.43l.9-.23v1.66H401v.75H398.7v2.63a1.06,1.06,0,0,0,.29.83,1.22,1.22,0,0,0,.88.28,3.62,3.62,0,0,0,.54,0l.61-.12Z"/><path d="M405.94,267.11l0-.69a2.69,2.69,0,0,1-.86.6,2.18,2.18,0,0,1-.91.19,2.13,2.13,0,0,1-.76-.12,1.34,1.34,0,0,1-.52-.31,1.15,1.15,0,0,1-.3-.46,1.87,1.87,0,0,1-.1-.59,1.47,1.47,0,0,1,.58-1.22,2.85,2.85,0,0,1,1.72-.44h1.07v-.45a1,1,0,0,0-.29-.74,1.31,1.31,0,0,0-.9-.27,3.55,3.55,0,0,0-.86.1,5.2,5.2,0,0,0-.88.27v-.8a2.8,2.8,0,0,1,.38-.13l.44-.1.48-.08a4.35,4.35,0,0,1,.51,0,3.15,3.15,0,0,1,.85.1,1.82,1.82,0,0,1,.64.31,1.52,1.52,0,0,1,.4.53,2,2,0,0,1,.13.76v3.56Zm-.1-2.35H404.7a1.93,1.93,0,0,0-.57.07.88.88,0,0,0-.4.19.71.71,0,0,0-.23.29,1,1,0,0,0-.08.39.93.93,0,0,0,.05.29.61.61,0,0,0,.15.24.73.73,0,0,0,.27.17,1.16,1.16,0,0,0,.4.06,1.64,1.64,0,0,0,.71-.19,3.16,3.16,0,0,0,.84-.59Z"/><path d="M408.38,261.94h.8l0,.83a3.64,3.64,0,0,1,.44-.44,2.11,2.11,0,0,1,.42-.29,1.56,1.56,0,0,1,.41-.15,2.12,2.12,0,0,1,.44,0,1.5,1.5,0,0,1,1.21.47,2.11,2.11,0,0,1,.41,1.42v3.37h-.9v-3.3a1.39,1.39,0,0,0-.23-.9.8.8,0,0,0-.67-.29.86.86,0,0,0-.32.05,1,1,0,0,0-.33.17,3.21,3.21,0,0,0-.37.32c-.13.14-.28.31-.45.52v3.43h-.89Z"/><path d="M418.51,267.11h-4.44v-.8l1.75-1.73c.28-.28.51-.53.69-.73a4.09,4.09,0,0,0,.42-.57,1.59,1.59,0,0,0,.2-.48,1.94,1.94,0,0,0,.05-.49,1.78,1.78,0,0,0-.06-.47,1.39,1.39,0,0,0-.21-.4,1,1,0,0,0-.36-.27,1.44,1.44,0,0,0-.53-.09,1.55,1.55,0,0,0-.78.19,2.48,2.48,0,0,0-.64.49l-.5-.59a3.14,3.14,0,0,1,.88-.65,2.64,2.64,0,0,1,1.16-.24,2.29,2.29,0,0,1,.81.14,1.94,1.94,0,0,1,.64.38,1.79,1.79,0,0,1,.42.62,2.41,2.41,0,0,1,.14.83,2.34,2.34,0,0,1-.1.71,2.81,2.81,0,0,1-.31.66,5,5,0,0,1-.53.68c-.21.23-.46.49-.75.77l-1.22,1.19h3.27Z"/><path d="M423,269.28a6.23,6.23,0,0,1-2.25-6.11,6.09,6.09,0,0,1,.41-1.25,7.86,7.86,0,0,1,.74-1.25,9.6,9.6,0,0,1,1.12-1.23l.53.53a6,6,0,0,0-2,4.38,5.46,5.46,0,0,0,.51,2.3,7.2,7.2,0,0,0,1.5,2.08Z"/><path class="j" d="M430,267.11h-4.44v-.8l1.74-1.73c.29-.28.52-.53.7-.73a4.09,4.09,0,0,0,.42-.57,1.89,1.89,0,0,0,.2-.48,2.54,2.54,0,0,0,.05-.49,1.45,1.45,0,0,0-.07-.47,1.16,1.16,0,0,0-.2-.4,1.14,1.14,0,0,0-.37-.27,1.36,1.36,0,0,0-.53-.09,1.54,1.54,0,0,0-.77.19,2.53,2.53,0,0,0-.65.49l-.49-.59a3.1,3.1,0,0,1,.87-.65,2.67,2.67,0,0,1,1.16-.24,2.39,2.39,0,0,1,.82.14,1.94,1.94,0,0,1,.64.38,1.92,1.92,0,0,1,.41.62,2.19,2.19,0,0,1,.15.83,2.71,2.71,0,0,1-.1.71,2.86,2.86,0,0,1-.32.66,4.93,4.93,0,0,1-.52.68c-.21.23-.46.49-.75.77l-1.22,1.19H430Z"/><path class="j" d="M433.45,265.49a.78.78,0,0,1,.33.07.71.71,0,0,1,.27.18.92.92,0,0,1,.19.28.93.93,0,0,1,.06.34,1,1,0,0,1-.06.33,1,1,0,0,1-.19.27.85.85,0,0,1-.27.18.86.86,0,0,1-.94-.18.8.8,0,0,1-.18-.27.78.78,0,0,1-.07-.33.77.77,0,0,1,.07-.34.75.75,0,0,1,.18-.28.88.88,0,0,1,.61-.25Z"/><path class="j" d="M441.7,263.75a6.22,6.22,0,0,1-.15,1.41,3.39,3.39,0,0,1-.47,1.09,2.2,2.2,0,0,1-.78.71,2.41,2.41,0,0,1-1.1.25,2.24,2.24,0,0,1-1-.21,1.88,1.88,0,0,1-.76-.62,3.18,3.18,0,0,1-.49-1.08,6.38,6.38,0,0,1-.17-1.55,6.23,6.23,0,0,1,.16-1.42,3.18,3.18,0,0,1,.47-1.09,2.2,2.2,0,0,1,.78-.71,2.37,2.37,0,0,1,1.09-.25,2.31,2.31,0,0,1,1,.21,1.9,1.9,0,0,1,.76.63,3,3,0,0,1,.48,1.08A6.33,6.33,0,0,1,441.7,263.75Zm-4,0V264c0,.1,0,.21,0,.31l2.85-2.11a2.09,2.09,0,0,0-.19-.48,1.59,1.59,0,0,0-.29-.38,1.31,1.31,0,0,0-.37-.24,1.21,1.21,0,0,0-.48-.09,1.24,1.24,0,0,0-.63.17,1.27,1.27,0,0,0-.49.51,2.52,2.52,0,0,0-.31.83A5.71,5.71,0,0,0,437.71,263.72Zm3.08.06c0-.12,0-.23,0-.35l0-.34-2.85,2.12a2.48,2.48,0,0,0,.2.5,1.62,1.62,0,0,0,.28.39,1.56,1.56,0,0,0,.38.25,1.3,1.3,0,0,0,.49.09,1.25,1.25,0,0,0,.64-.17,1.42,1.42,0,0,0,.49-.51,3.07,3.07,0,0,0,.31-.83A5.59,5.59,0,0,0,440.79,263.78Z"/><path d="M452.82,262.78l-.35.62-1.45-1,.12,1.76h-.74l.11-1.76-1.48,1-.32-.61,1.58-.78-1.58-.79.35-.6,1.46,1-.12-1.76h.74l-.13,1.76,1.46-1,.36.63-1.59.79Z"/><path d="M465.11,261.94l-.75,5.17h-1.09l-.74-2.16-.15-.53-.17.56-.72,2.13h-1.06l-.74-5.17h.87l.44,3.51.09.79.22-.69.75-2.32h.65l.81,2.29.23.69.08-.73.4-3.54Z"/><path d="M470.24,267.11h-.89v-3.3a1.49,1.49,0,0,0-.23-.9.77.77,0,0,0-.64-.29,1,1,0,0,0-.34.05,1.11,1.11,0,0,0-.32.17,3.23,3.23,0,0,0-.38.32l-.46.52v3.43h-.9v-7.28h.9v2.11l0,.81a3.3,3.3,0,0,1,.41-.42,2.3,2.3,0,0,1,.41-.28,1.45,1.45,0,0,1,.42-.16,2.06,2.06,0,0,1,.44,0,1.5,1.5,0,0,1,1.19.47,2.06,2.06,0,0,1,.42,1.42Z"/><path d="M476.22,264.25a2.92,2.92,0,0,1,0,.32,1.77,1.77,0,0,1,0,.24h-3.64A1.59,1.59,0,0,0,473,266a1.74,1.74,0,0,0,1.28.43l.45,0,.44-.05.4-.07.36-.08V267a7.22,7.22,0,0,1-.83.16,5.82,5.82,0,0,1-.95.07A3.27,3.27,0,0,1,473,267a1.9,1.9,0,0,1-.78-.53,2.07,2.07,0,0,1-.46-.84,3.86,3.86,0,0,1-.14-1.12,3.53,3.53,0,0,1,.15-1,2.68,2.68,0,0,1,.46-.85,2.25,2.25,0,0,1,.74-.59,2.29,2.29,0,0,1,1-.21,2.61,2.61,0,0,1,1,.16,2.06,2.06,0,0,1,.7.49,2.09,2.09,0,0,1,.43.76A3.07,3.07,0,0,1,476.22,264.25Zm-.93-.13a2.1,2.1,0,0,0-.07-.63A1.36,1.36,0,0,0,475,263a1.08,1.08,0,0,0-.43-.32,1.38,1.38,0,0,0-.59-.12,1.19,1.19,0,0,0-.54.12,1.27,1.27,0,0,0-.42.31,1.62,1.62,0,0,0-.28.5,2.42,2.42,0,0,0-.14.63Z"/><path d="M482,264.25v.32c0,.09,0,.17,0,.24h-3.63a1.63,1.63,0,0,0,.44,1.22,1.75,1.75,0,0,0,1.28.43l.45,0,.44-.05.41-.07.35-.08V267a7.46,7.46,0,0,1-.82.16,6,6,0,0,1-1,.07,3.25,3.25,0,0,1-1.14-.18,1.93,1.93,0,0,1-.79-.53,2.06,2.06,0,0,1-.45-.84,3.84,3.84,0,0,1-.15-1.12,3.24,3.24,0,0,1,.16-1,2.47,2.47,0,0,1,.45-.85,2.29,2.29,0,0,1,.75-.59,2.25,2.25,0,0,1,1-.21,2.61,2.61,0,0,1,1,.16,2,2,0,0,1,.7.49,2.11,2.11,0,0,1,.44.76A3.38,3.38,0,0,1,482,264.25Zm-.93-.13a1.82,1.82,0,0,0-.07-.63,1.34,1.34,0,0,0-.25-.49,1.24,1.24,0,0,0-.43-.32,1.4,1.4,0,0,0-.6-.12,1.19,1.19,0,0,0-.54.12,1.14,1.14,0,0,0-.41.31,1.64,1.64,0,0,0-.29.5,2.07,2.07,0,0,0-.13.63Z"/><path d="M485.14,260.57h-1.53v-.74h2.44v6.54h1.54v.74h-4.15v-.74h1.7Z"/><path d="M493.56,264.43a3.49,3.49,0,0,1-.18,1.16,2.38,2.38,0,0,1-.5.86,2.26,2.26,0,0,1-.8.54,2.9,2.9,0,0,1-1.06.19,5,5,0,0,1-.93-.09,4.69,4.69,0,0,1-.95-.28v-7h.9v2l-.05,1a2.41,2.41,0,0,1,.83-.73,2.2,2.2,0,0,1,.95-.21,1.66,1.66,0,0,1,.78.18,1.63,1.63,0,0,1,.56.52,2.66,2.66,0,0,1,.34.82A4.93,4.93,0,0,1,493.56,264.43Zm-.92,0a4.18,4.18,0,0,0-.06-.74,2,2,0,0,0-.18-.59,1.08,1.08,0,0,0-.33-.37.8.8,0,0,0-.48-.14,1.41,1.41,0,0,0-.35.05,1.51,1.51,0,0,0-.36.18,2.9,2.9,0,0,0-.4.34,4.1,4.1,0,0,0-.44.52v2.51a3.24,3.24,0,0,0,.53.16,2.44,2.44,0,0,0,.52.06,1.63,1.63,0,0,0,.59-.1,1.15,1.15,0,0,0,.5-.33,1.72,1.72,0,0,0,.34-.6A3.23,3.23,0,0,0,492.64,264.47Z"/><path d="M498.23,267.11l0-.69a2.69,2.69,0,0,1-.86.6,2.23,2.23,0,0,1-.92.19,2.07,2.07,0,0,1-.75-.12,1.34,1.34,0,0,1-.52-.31,1.15,1.15,0,0,1-.3-.46,1.63,1.63,0,0,1-.1-.59,1.47,1.47,0,0,1,.58-1.22,2.85,2.85,0,0,1,1.72-.44h1.07v-.45a1,1,0,0,0-.29-.74,1.31,1.31,0,0,0-.9-.27,3.69,3.69,0,0,0-.87.1,5.39,5.39,0,0,0-.87.27v-.8a3.19,3.19,0,0,1,.37-.13l.45-.1.48-.08a4.35,4.35,0,0,1,.51,0,3.2,3.2,0,0,1,.85.1,1.69,1.69,0,0,1,.63.31,1.31,1.31,0,0,1,.4.53,1.81,1.81,0,0,1,.14.76v3.56Zm-.1-2.35H497a2,2,0,0,0-.58.07.89.89,0,0,0-.39.19.71.71,0,0,0-.23.29,1,1,0,0,0-.08.39.93.93,0,0,0,.05.29.61.61,0,0,0,.15.24.66.66,0,0,0,.27.17,1.16,1.16,0,0,0,.4.06,1.68,1.68,0,0,0,.71-.19,3.51,3.51,0,0,0,.84-.59Z"/><path d="M504.87,265.7a1.2,1.2,0,0,1-.35.88,1.5,1.5,0,0,1-.37.28,2.28,2.28,0,0,1-.45.2,2.68,2.68,0,0,1-.49.11,2.81,2.81,0,0,1-.5,0,9.3,9.3,0,0,1-1,0,6.33,6.33,0,0,1-.87-.15v-.82a7.77,7.77,0,0,0,.91.19,5.34,5.34,0,0,0,.89.07,1.92,1.92,0,0,0,.95-.18.58.58,0,0,0,.26-.75.63.63,0,0,0-.17-.21,2.49,2.49,0,0,0-.41-.21c-.17-.07-.42-.15-.73-.24a4.91,4.91,0,0,1-.65-.24,2.1,2.1,0,0,1-.51-.31,1.4,1.4,0,0,1-.35-.42,1.31,1.31,0,0,1-.12-.58,1.24,1.24,0,0,1,.1-.47,1.28,1.28,0,0,1,.35-.48,1.82,1.82,0,0,1,.65-.37,3.05,3.05,0,0,1,1-.14l.68,0c.24,0,.5.06.77.11v.8a6.54,6.54,0,0,0-.8-.15,5.73,5.73,0,0,0-.66-.05,2.9,2.9,0,0,0-.56.05,1.37,1.37,0,0,0-.38.15.57.57,0,0,0-.2.21.55.55,0,0,0-.06.26.7.7,0,0,0,.05.25.68.68,0,0,0,.2.22,2.2,2.2,0,0,0,.41.21c.18.07.41.15.69.23a5.11,5.11,0,0,1,.77.28,2,2,0,0,1,.51.33.94.94,0,0,1,.28.41A1.36,1.36,0,0,1,504.87,265.7Z"/><path d="M510.91,264.25c0,.13,0,.24,0,.32s0,.17,0,.24h-3.64a1.63,1.63,0,0,0,.44,1.22,1.77,1.77,0,0,0,1.28.43l.46,0,.44-.05.4-.07.36-.08V267a7.67,7.67,0,0,1-.83.16,6,6,0,0,1-1,.07,3.25,3.25,0,0,1-1.14-.18,2,2,0,0,1-.79-.53,2.18,2.18,0,0,1-.45-.84,3.84,3.84,0,0,1-.15-1.12,3.24,3.24,0,0,1,.16-1,2.49,2.49,0,0,1,.46-.85,2.13,2.13,0,0,1,1.73-.8,2.61,2.61,0,0,1,1,.16,2,2,0,0,1,.71.49,2.09,2.09,0,0,1,.43.76A3.07,3.07,0,0,1,510.91,264.25Zm-.94-.13a2.11,2.11,0,0,0-.06-.63,1.36,1.36,0,0,0-.26-.49,1.16,1.16,0,0,0-.43-.32,1.4,1.4,0,0,0-.6-.12,1.18,1.18,0,0,0-.53.12,1.27,1.27,0,0,0-.42.31,1.62,1.62,0,0,0-.28.5,2.08,2.08,0,0,0-.14.63Z"/><path d="M522.19,262.78l-.35.62-1.45-1,.12,1.76h-.74l.12-1.76-1.48,1-.33-.61,1.59-.78-1.59-.79.36-.6,1.46,1-.13-1.76h.74l-.13,1.76,1.46-1,.36.63-1.59.79Z"/><path d="M533.69,265.7a1.26,1.26,0,0,1-.09.49,1.48,1.48,0,0,1-.26.39,1.5,1.5,0,0,1-.37.28,2.28,2.28,0,0,1-.45.2,2.68,2.68,0,0,1-.49.11,2.89,2.89,0,0,1-.5,0,9.3,9.3,0,0,1-1,0,6.08,6.08,0,0,1-.87-.15v-.82a7.77,7.77,0,0,0,.91.19,5.26,5.26,0,0,0,.89.07,2,2,0,0,0,1-.18.53.53,0,0,0,.31-.5.7.7,0,0,0,0-.25.56.56,0,0,0-.18-.21,2.31,2.31,0,0,0-.4-.21c-.18-.07-.42-.15-.74-.24a4.75,4.75,0,0,1-.64-.24,2.38,2.38,0,0,1-.52-.31,1.53,1.53,0,0,1-.34-.42,1.31,1.31,0,0,1-.12-.58,1.24,1.24,0,0,1,.1-.47,1.37,1.37,0,0,1,.34-.48,1.87,1.87,0,0,1,.66-.37,3.05,3.05,0,0,1,1-.14l.67,0a7.69,7.69,0,0,1,.78.11v.8a6.54,6.54,0,0,0-.8-.15,6.07,6.07,0,0,0-.66-.05,3.1,3.1,0,0,0-.57.05,1.42,1.42,0,0,0-.37.15.57.57,0,0,0-.2.21.55.55,0,0,0-.06.26.7.7,0,0,0,0,.25.58.58,0,0,0,.2.22,2.2,2.2,0,0,0,.41.21c.18.07.41.15.69.23a5.55,5.55,0,0,1,.77.28,2,2,0,0,1,.51.33.94.94,0,0,1,.28.41A1.36,1.36,0,0,1,533.69,265.7Z"/><path d="M537.12,262.68h-1.54v-.74H538v4.43h1.55v.74h-4.16v-.74h1.71Zm.31-2.91a.66.66,0,0,1,.28.05.71.71,0,0,1,.22.15.57.57,0,0,1,.15.23.6.6,0,0,1,.06.27.67.67,0,0,1-.06.28.54.54,0,0,1-.15.22.6.6,0,0,1-.22.16.81.81,0,0,1-.56,0,.69.69,0,0,1-.22-.16.54.54,0,0,1-.15-.22.67.67,0,0,1-.06-.28.6.6,0,0,1,.06-.27.57.57,0,0,1,.15-.23.86.86,0,0,1,.22-.15A.66.66,0,0,1,537.43,259.77Z"/><path d="M541.12,261.94h.8l0,.83a3.64,3.64,0,0,1,.44-.44,2.11,2.11,0,0,1,.42-.29,1.56,1.56,0,0,1,.41-.15,2.12,2.12,0,0,1,.44,0,1.51,1.51,0,0,1,1.21.47,2.11,2.11,0,0,1,.41,1.42v3.37h-.9v-3.3a1.39,1.39,0,0,0-.23-.9.8.8,0,0,0-.67-.29.86.86,0,0,0-.32.05,1,1,0,0,0-.33.17,3.21,3.21,0,0,0-.37.32c-.13.14-.28.31-.45.52v3.43h-.89Z"/><path d="M550,269.28a6.53,6.53,0,0,1-2.38-4.87,5.81,5.81,0,0,1,.13-1.24,5.54,5.54,0,0,1,.41-1.25,6.6,6.6,0,0,1,.74-1.25,9.6,9.6,0,0,1,1.12-1.23l.52.53a6,6,0,0,0-2,4.38,5.61,5.61,0,0,0,.5,2.3,7.2,7.2,0,0,0,1.5,2.08Z"/><path d="M556,267.11l0-.69a2.69,2.69,0,0,1-.86.6,2.22,2.22,0,0,1-.91.19,2.13,2.13,0,0,1-.76-.12,1.34,1.34,0,0,1-.52-.31,1.15,1.15,0,0,1-.3-.46,1.87,1.87,0,0,1-.1-.59,1.47,1.47,0,0,1,.58-1.22,2.85,2.85,0,0,1,1.72-.44h1.07v-.45a1,1,0,0,0-.29-.74,1.31,1.31,0,0,0-.9-.27,3.55,3.55,0,0,0-.86.1,5.2,5.2,0,0,0-.88.27v-.8a2.8,2.8,0,0,1,.38-.13l.44-.1.48-.08a4.35,4.35,0,0,1,.51,0,3.15,3.15,0,0,1,.85.1,1.69,1.69,0,0,1,.63.31,1.43,1.43,0,0,1,.41.53,2,2,0,0,1,.13.76v3.56Zm-.1-2.35h-1.14a2,2,0,0,0-.58.07.89.89,0,0,0-.39.19.71.71,0,0,0-.23.29,1,1,0,0,0-.08.39.93.93,0,0,0,0,.29.61.61,0,0,0,.15.24.73.73,0,0,0,.27.17,1.16,1.16,0,0,0,.4.06,1.64,1.64,0,0,0,.71-.19,3.16,3.16,0,0,0,.84-.59Z"/><path d="M560.17,260.57h-1.53v-.74h2.44v6.54h1.54v.74h-4.15v-.74h1.7Z"/><path d="M568.6,264.43a3.41,3.41,0,0,1-.2,1.21,2.17,2.17,0,0,1-1.34,1.37,2.91,2.91,0,0,1-1,.17,3.91,3.91,0,0,1-.49,0,4.37,4.37,0,0,1-.5-.09v2.17h-.9v-7.29h.8l.06.86a2.33,2.33,0,0,1,.82-.74,2.2,2.2,0,0,1,.95-.21,1.61,1.61,0,0,1,.78.18,1.63,1.63,0,0,1,.56.52,2.44,2.44,0,0,1,.34.82A4.35,4.35,0,0,1,568.6,264.43Zm-.92,0a4.18,4.18,0,0,0-.06-.74,2,2,0,0,0-.19-.59,1,1,0,0,0-.33-.37.76.76,0,0,0-.48-.14,1.33,1.33,0,0,0-.34.05,1.79,1.79,0,0,0-.37.18,2.86,2.86,0,0,0-.39.34,5.12,5.12,0,0,0-.45.52v2.51a2.86,2.86,0,0,0,.52.16,2.48,2.48,0,0,0,.54.06,1.41,1.41,0,0,0,1.14-.49A2.32,2.32,0,0,0,567.68,264.47Z"/><path d="M574.1,267.11h-.9v-3.3a1.57,1.57,0,0,0-.22-.9.79.79,0,0,0-.65-.29.88.88,0,0,0-.33.05,1,1,0,0,0-.33.17,3.21,3.21,0,0,0-.37.32c-.14.14-.29.31-.47.52v3.43h-.89v-7.28h.89v2.11l0,.81a2.77,2.77,0,0,1,.42-.42,1.94,1.94,0,0,1,.4-.28,1.45,1.45,0,0,1,.42-.16,2.12,2.12,0,0,1,.44,0,1.5,1.5,0,0,1,1.19.47,2,2,0,0,1,.43,1.42Z"/><path d="M579.13,267.11l0-.69a2.69,2.69,0,0,1-.86.6,2.18,2.18,0,0,1-.91.19,2.13,2.13,0,0,1-.76-.12,1.41,1.41,0,0,1-.52-.31,1.15,1.15,0,0,1-.3-.46,1.87,1.87,0,0,1-.09-.59,1.45,1.45,0,0,1,.58-1.22,2.8,2.8,0,0,1,1.71-.44H579v-.45a1,1,0,0,0-.29-.74,1.31,1.31,0,0,0-.9-.27,3.55,3.55,0,0,0-.86.1,5.2,5.2,0,0,0-.88.27v-.8a2.8,2.8,0,0,1,.38-.13l.44-.1.48-.08a4.35,4.35,0,0,1,.51,0,3.15,3.15,0,0,1,.85.1,1.82,1.82,0,0,1,.64.31,1.52,1.52,0,0,1,.4.53,2,2,0,0,1,.14.76v3.56Zm-.1-2.35h-1.14a1.93,1.93,0,0,0-.57.07.88.88,0,0,0-.4.19.8.8,0,0,0-.23.29,1,1,0,0,0-.08.39.93.93,0,0,0,0,.29.61.61,0,0,0,.15.24.73.73,0,0,0,.27.17,1.16,1.16,0,0,0,.4.06,1.64,1.64,0,0,0,.71-.19,3.16,3.16,0,0,0,.84-.59Z"/><path d="M582.63,259.44a6.57,6.57,0,0,1,2.37,4.9,5.81,5.81,0,0,1-.11,1.15,5.63,5.63,0,0,1-.39,1.23,7,7,0,0,1-.73,1.27,9,9,0,0,1-1.16,1.29l-.53-.53a7.1,7.1,0,0,0,1.5-2.08,5.4,5.4,0,0,0,.5-2.27,6,6,0,0,0-2-4.41Z"/><path d="M587.73,268.17a2.11,2.11,0,0,0,.51,0,1.62,1.62,0,0,0,.44-.17.9.9,0,0,0,.3-.28.61.61,0,0,0,.12-.37A.74.74,0,0,0,589,267a1.31,1.31,0,0,0-.17-.24,2.13,2.13,0,0,1-.16-.25.73.73,0,0,1,0-.57.57.57,0,0,1,.13-.21.73.73,0,0,1,.53-.23.81.81,0,0,1,.34.08.83.83,0,0,1,.3.23,1.19,1.19,0,0,1,.2.39,1.71,1.71,0,0,1,.08.54,2.26,2.26,0,0,1-.16.82,2,2,0,0,1-.47.7,2.21,2.21,0,0,1-.78.49,3,3,0,0,1-1.09.18Z"/><path d="M427.41,274.85h-1.53v-.74h2.44v6.54h1.54v.74h-4.15v-.74h1.7Z"/><path d="M435.92,278.76a3.5,3.5,0,0,1-.17,1.11,2.58,2.58,0,0,1-.49.86,2.29,2.29,0,0,1-.78.56,2.83,2.83,0,0,1-2,0,2,2,0,0,1-.75-.5,2.4,2.4,0,0,1-.47-.83,3.61,3.61,0,0,1-.16-1.14,3.43,3.43,0,0,1,.17-1.1,2.42,2.42,0,0,1,.49-.86,2.23,2.23,0,0,1,.78-.56,2.61,2.61,0,0,1,1-.2,2.66,2.66,0,0,1,1,.18,2,2,0,0,1,.75.5,2.16,2.16,0,0,1,.46.83A3.58,3.58,0,0,1,435.92,278.76Zm-.92.05a3,3,0,0,0-.11-.84,1.69,1.69,0,0,0-.3-.6,1.22,1.22,0,0,0-.48-.36,1.52,1.52,0,0,0-.62-.12,1.35,1.35,0,0,0-.69.16,1.27,1.27,0,0,0-.47.42,1.8,1.8,0,0,0-.27.61,3.4,3.4,0,0,0-.08.73,3,3,0,0,0,.1.84,1.69,1.69,0,0,0,.3.6,1.29,1.29,0,0,0,.48.36,1.54,1.54,0,0,0,.63.12,1.35,1.35,0,0,0,1.16-.58,1.68,1.68,0,0,0,.26-.61A2.92,2.92,0,0,0,435,278.81Z"/><path d="M441.68,278.76a3.5,3.5,0,0,1-.17,1.11,2.42,2.42,0,0,1-.49.86,2.11,2.11,0,0,1-.78.56,2.61,2.61,0,0,1-1,.2,2.66,2.66,0,0,1-1-.18,1.9,1.9,0,0,1-.74-.5A2.12,2.12,0,0,1,437,280a3.6,3.6,0,0,1-.17-1.14,3.43,3.43,0,0,1,.17-1.1,2.58,2.58,0,0,1,.49-.86,2.43,2.43,0,0,1,.78-.56,2.68,2.68,0,0,1,1-.2,2.62,2.62,0,0,1,1,.18,1.94,1.94,0,0,1,.75.5,2.31,2.31,0,0,1,.47.83A3.59,3.59,0,0,1,441.68,278.76Zm-.92.05a3,3,0,0,0-.1-.84,1.69,1.69,0,0,0-.3-.6,1.29,1.29,0,0,0-.48-.36,1.61,1.61,0,0,0-.63-.12,1.35,1.35,0,0,0-1.16.58,1.61,1.61,0,0,0-.26.61,2.86,2.86,0,0,0-.09.73,3,3,0,0,0,.11.84,1.69,1.69,0,0,0,.3.6,1.26,1.26,0,0,0,.47.36,1.61,1.61,0,0,0,.63.12,1.35,1.35,0,0,0,.69-.16,1.27,1.27,0,0,0,.47-.42,1.89,1.89,0,0,0,.27-.61A3.47,3.47,0,0,0,440.76,278.81Z"/><path d="M447.59,281.39h-1.23L444,278.62v2.77h-.9v-7.28h.9v4.47l2.32-2.36h1.19L445,278.6Z"/><path d="M452,281.39l0-.69a2.81,2.81,0,0,1-.86.6,2.23,2.23,0,0,1-.92.19,2.07,2.07,0,0,1-.75-.12,1.34,1.34,0,0,1-.52-.31,1.15,1.15,0,0,1-.3-.46,1.63,1.63,0,0,1-.1-.59,1.47,1.47,0,0,1,.58-1.22,2.85,2.85,0,0,1,1.72-.44h1.07v-.45a1,1,0,0,0-.29-.74,1.31,1.31,0,0,0-.9-.27,3.69,3.69,0,0,0-.87.1,5.39,5.39,0,0,0-.87.27v-.81l.37-.12.45-.1.48-.08.51,0a3.18,3.18,0,0,1,.85.11,1.69,1.69,0,0,1,.63.31,1.31,1.31,0,0,1,.4.53,1.81,1.81,0,0,1,.14.76v3.56Zm-.1-2.35h-1.14a2.46,2.46,0,0,0-.58.06,1,1,0,0,0-.39.2.71.71,0,0,0-.23.29,1,1,0,0,0-.08.39.93.93,0,0,0,.05.29.61.61,0,0,0,.15.24.73.73,0,0,0,.27.17,1.16,1.16,0,0,0,.4.06,1.68,1.68,0,0,0,.71-.19,3.51,3.51,0,0,0,.84-.59Z"/><path d="M458.73,281.39h-.9v-3.3a1.49,1.49,0,0,0-.22-.9.77.77,0,0,0-.64-.29,1,1,0,0,0-.34.05,1.3,1.3,0,0,0-.33.17,4.36,4.36,0,0,0-.37.32c-.13.14-.29.31-.46.52v3.43h-.9v-7.28h.9v2.11l0,.81a3.3,3.3,0,0,1,.41-.42,2,2,0,0,1,.41-.28,1.39,1.39,0,0,1,.41-.16,2.2,2.2,0,0,1,.44-.05,1.51,1.51,0,0,1,1.2.48,2.06,2.06,0,0,1,.42,1.42Z"/><path d="M464.71,278.53a2.92,2.92,0,0,1,0,.32c0,.09,0,.17,0,.24h-3.64a1.63,1.63,0,0,0,.44,1.22,1.77,1.77,0,0,0,1.28.43l.46,0,.44-.05.4-.07.36-.08v.74a7.67,7.67,0,0,1-.83.16,6,6,0,0,1-1,.07,3.25,3.25,0,0,1-1.14-.18,2,2,0,0,1-.79-.53,2.18,2.18,0,0,1-.45-.84,3.84,3.84,0,0,1-.15-1.12,3.54,3.54,0,0,1,.16-1,2.49,2.49,0,0,1,.46-.85,2.18,2.18,0,0,1,1.73-.81,2.61,2.61,0,0,1,1,.17,2,2,0,0,1,.71.49,2.13,2.13,0,0,1,.43.75A3.13,3.13,0,0,1,464.71,278.53Zm-.94-.13a2.11,2.11,0,0,0-.06-.63,1.36,1.36,0,0,0-.26-.49A1.06,1.06,0,0,0,463,277a1.4,1.4,0,0,0-.6-.12,1.32,1.32,0,0,0-.53.11,1.34,1.34,0,0,0-.42.32,1.62,1.62,0,0,0-.28.5,2.08,2.08,0,0,0-.14.63Z"/><path d="M469.42,281.39l0-.69a2.59,2.59,0,0,1-.86.6,2.18,2.18,0,0,1-.91.19,2.13,2.13,0,0,1-.76-.12,1.28,1.28,0,0,1-.82-.77A1.87,1.87,0,0,1,466,280a1.45,1.45,0,0,1,.58-1.22,2.84,2.84,0,0,1,1.71-.44h1.08v-.45a1,1,0,0,0-.3-.74,1.27,1.27,0,0,0-.9-.27,3.55,3.55,0,0,0-.86.1,5.49,5.49,0,0,0-.88.27v-.81l.38-.12.44-.1.49-.08a4.24,4.24,0,0,1,.51,0,3.11,3.11,0,0,1,.84.11,1.74,1.74,0,0,1,.64.31,1.41,1.41,0,0,1,.4.53,2,2,0,0,1,.14.76v3.56Zm-.09-2.35h-1.14a2.4,2.4,0,0,0-.58.06,1.07,1.07,0,0,0-.4.2.8.8,0,0,0-.23.29,1,1,0,0,0-.07.39.92.92,0,0,0,0,.29.61.61,0,0,0,.15.24.73.73,0,0,0,.27.17,1.2,1.2,0,0,0,.4.06,1.61,1.61,0,0,0,.71-.19,3.36,3.36,0,0,0,.85-.59Z"/><path d="M471.6,278.91a3.51,3.51,0,0,1,.18-1.17,2.5,2.5,0,0,1,.51-.87,2.2,2.2,0,0,1,.8-.53,2.87,2.87,0,0,1,1-.18,3.79,3.79,0,0,1,1,.12v-2.17h.9v7.28h-.8l0-1a2.62,2.62,0,0,1-.82.81,1.78,1.78,0,0,1-.95.27,1.55,1.55,0,0,1-.78-.19,1.63,1.63,0,0,1-.56-.52,2.71,2.71,0,0,1-.34-.81A4.93,4.93,0,0,1,471.6,278.91Zm.92-.05a2.87,2.87,0,0,0,.27,1.4.87.87,0,0,0,.78.46,1.13,1.13,0,0,0,.72-.31,4.08,4.08,0,0,0,.8-.9v-2.4a2.35,2.35,0,0,0-.49-.16,3.27,3.27,0,0,0-.53-.05,1.43,1.43,0,0,0-1.14.47A2.21,2.21,0,0,0,472.52,278.86Z"/><path d="M482.61,283.51H476.8v-.74h5.81Z"/><path d="M483.13,278.91a3.51,3.51,0,0,1,.18-1.17,2.5,2.5,0,0,1,.51-.87,2.2,2.2,0,0,1,.8-.53,2.87,2.87,0,0,1,1-.18l.49,0a3.89,3.89,0,0,1,.47.09v-2.17h.9v7.28h-.81l0-1a2.6,2.6,0,0,1-.81.81,1.78,1.78,0,0,1-.95.27,1.5,1.5,0,0,1-.78-.19,1.55,1.55,0,0,1-.56-.52,2.47,2.47,0,0,1-.34-.81A4.37,4.37,0,0,1,483.13,278.91Zm.91-.05a2.85,2.85,0,0,0,.28,1.4.85.85,0,0,0,.78.46,1.13,1.13,0,0,0,.72-.31,4.35,4.35,0,0,0,.8-.9v-2.4a2.35,2.35,0,0,0-.49-.16,3.27,3.27,0,0,0-.53-.05,1.47,1.47,0,0,0-1.15.47A2.27,2.27,0,0,0,484,278.86Z"/><path d="M490.92,277h-1.54v-.74h2.44v4.43h1.55v.74h-4.16v-.74h1.71Zm.31-2.91a.66.66,0,0,1,.28.05.71.71,0,0,1,.22.15.57.57,0,0,1,.15.23.6.6,0,0,1,.06.27.67.67,0,0,1-.06.28.54.54,0,0,1-.15.22.6.6,0,0,1-.22.16.81.81,0,0,1-.56,0,.69.69,0,0,1-.22-.16.54.54,0,0,1-.15-.22.67.67,0,0,1-.06-.28.6.6,0,0,1,.06-.27.57.57,0,0,1,.15-.23.86.86,0,0,1,.22-.15A.66.66,0,0,1,491.23,274.05Z"/><path d="M499,280a1.26,1.26,0,0,1-.1.49,1.24,1.24,0,0,1-.25.39,1.72,1.72,0,0,1-.37.28,2.28,2.28,0,0,1-.45.2,2.88,2.88,0,0,1-.49.11,4.38,4.38,0,0,1-.5,0,9.66,9.66,0,0,1-1-.05,6.19,6.19,0,0,1-.86-.15v-.82a7.21,7.21,0,0,0,.9.19,5.42,5.42,0,0,0,.89.07,2,2,0,0,0,1-.18.55.55,0,0,0,.31-.5.7.7,0,0,0,0-.25.56.56,0,0,0-.18-.21,2.76,2.76,0,0,0-.4-.21c-.18-.07-.43-.15-.74-.24a5.49,5.49,0,0,1-.65-.24,2.57,2.57,0,0,1-.51-.31,1.37,1.37,0,0,1-.34-.42,1.31,1.31,0,0,1-.12-.58,1.32,1.32,0,0,1,.44-.95,1.91,1.91,0,0,1,.65-.37,3.09,3.09,0,0,1,1-.15c.2,0,.42,0,.67,0a7.69,7.69,0,0,1,.78.11v.8a6.68,6.68,0,0,0-.81-.15,5.74,5.74,0,0,0-.65-.05,2.94,2.94,0,0,0-.57.05,1.29,1.29,0,0,0-.37.15.57.57,0,0,0-.2.21.56.56,0,0,0-.07.26.54.54,0,0,0,.06.25.58.58,0,0,0,.2.22,1.92,1.92,0,0,0,.41.21,6.89,6.89,0,0,0,.69.23,5.55,5.55,0,0,1,.77.28,2,2,0,0,1,.51.33,1,1,0,0,1,.28.41A1.36,1.36,0,0,1,499,280Z"/><path d="M505,281.32a4.62,4.62,0,0,1-.63.11,4.87,4.87,0,0,1-.66,0,2.12,2.12,0,0,1-1.46-.44,1.77,1.77,0,0,1-.48-1.36V277h-1.44v-.75h1.44v-1.43l.9-.23v1.66H505V277h-2.33v2.63a1.07,1.07,0,0,0,.3.83,1.21,1.21,0,0,0,.87.28,3.44,3.44,0,0,0,.54,0l.62-.12Z"/><path d="M509.87,281.39l0-.69a2.66,2.66,0,0,1-.85.6,2.23,2.23,0,0,1-.92.19,2.13,2.13,0,0,1-.76-.12,1.41,1.41,0,0,1-.52-.31,1.24,1.24,0,0,1-.29-.46,1.63,1.63,0,0,1-.1-.59,1.45,1.45,0,0,1,.58-1.22,2.84,2.84,0,0,1,1.71-.44h1.08v-.45a1,1,0,0,0-.3-.74,1.26,1.26,0,0,0-.89-.27,3.63,3.63,0,0,0-.87.1,5.82,5.82,0,0,0-.88.27v-.81l.38-.12.44-.1.49-.08.51,0a3.11,3.11,0,0,1,.84.11,1.74,1.74,0,0,1,.64.31,1.41,1.41,0,0,1,.4.53,2,2,0,0,1,.14.76v3.56Zm-.09-2.35h-1.14a2.4,2.4,0,0,0-.58.06,1.16,1.16,0,0,0-.4.2.8.8,0,0,0-.23.29,1,1,0,0,0-.07.39.92.92,0,0,0,0,.29,1,1,0,0,0,.15.24.73.73,0,0,0,.27.17,1.22,1.22,0,0,0,.41.06,1.6,1.6,0,0,0,.7-.19,3.36,3.36,0,0,0,.85-.59Z"/><path d="M512.31,276.22h.8l0,.83a3.64,3.64,0,0,1,.44-.44,2.4,2.4,0,0,1,.41-.29,1.77,1.77,0,0,1,.42-.15,2,2,0,0,1,.44-.05,1.48,1.48,0,0,1,1.2.48,2.06,2.06,0,0,1,.41,1.42v3.37h-.89v-3.3a1.45,1.45,0,0,0-.23-.9.82.82,0,0,0-.68-.29.89.89,0,0,0-.32.05,1.3,1.3,0,0,0-.33.17,3.2,3.2,0,0,0-.36.32,5.12,5.12,0,0,0-.45.52v3.43h-.9Z"/><path d="M522.1,281.2a4.22,4.22,0,0,1-1.48.27,2.56,2.56,0,0,1-1.89-.67,2.64,2.64,0,0,1-.66-1.94,3.1,3.1,0,0,1,.19-1.12,2.31,2.31,0,0,1,.53-.85,2.36,2.36,0,0,1,.83-.55,2.78,2.78,0,0,1,1.06-.19,4.57,4.57,0,0,1,.75.05,3,3,0,0,1,.67.19v.85a3.12,3.12,0,0,0-.68-.25,2.94,2.94,0,0,0-.72-.08,1.6,1.6,0,0,0-1.2.51,1.78,1.78,0,0,0-.36.6,2.29,2.29,0,0,0-.14.81,2,2,0,0,0,.46,1.4,1.71,1.71,0,0,0,1.27.47,3.36,3.36,0,0,0,.71-.08,3.31,3.31,0,0,0,.66-.25Z"/><path d="M528.21,278.53v.32c0,.09,0,.17,0,.24h-3.63a1.59,1.59,0,0,0,.44,1.22,1.75,1.75,0,0,0,1.28.43l.45,0,.44-.05.41-.07.35-.08v.74a7.46,7.46,0,0,1-.82.16,6,6,0,0,1-1,.07,3.21,3.21,0,0,1-1.14-.18,2,2,0,0,1-1.24-1.37,3.84,3.84,0,0,1-.15-1.12,3.24,3.24,0,0,1,.16-1,2.47,2.47,0,0,1,.45-.85,2.36,2.36,0,0,1,.74-.59,2.33,2.33,0,0,1,1-.22,2.61,2.61,0,0,1,1,.17,2,2,0,0,1,.7.49,2.16,2.16,0,0,1,.44.75A3.45,3.45,0,0,1,528.21,278.53Zm-.93-.13a1.82,1.82,0,0,0-.07-.63,1.34,1.34,0,0,0-.25-.49,1.13,1.13,0,0,0-.43-.32,1.4,1.4,0,0,0-.6-.12,1.33,1.33,0,0,0-.54.11,1.46,1.46,0,0,0-.42.32,1.85,1.85,0,0,0-.28.5,2.07,2.07,0,0,0-.13.63Z"/><path d="M530.66,273.72a6.55,6.55,0,0,1,2.38,4.9,5.84,5.84,0,0,1-.12,1.15,5.35,5.35,0,0,1-.38,1.22,6.79,6.79,0,0,1-.74,1.28,7.94,7.94,0,0,1-1.16,1.29l-.52-.53a7.1,7.1,0,0,0,1.5-2.08,5.39,5.39,0,0,0,.49-2.27,6,6,0,0,0-2-4.41Z"/><path d="M535.83,282.45a2.11,2.11,0,0,0,.51,0,1.75,1.75,0,0,0,.44-.17,1.15,1.15,0,0,0,.3-.28.67.67,0,0,0,.11-.37.74.74,0,0,0-.07-.36A2.07,2.07,0,0,0,537,281a2.2,2.2,0,0,1-.17-.25.78.78,0,0,1,0-.57.57.57,0,0,1,.13-.21.49.49,0,0,1,.21-.16.62.62,0,0,1,.31-.07.85.85,0,0,1,.35.08.93.93,0,0,1,.3.23,1.19,1.19,0,0,1,.2.39,1.73,1.73,0,0,1,.07.54,2.07,2.07,0,0,1-.16.82,1.94,1.94,0,0,1-.46.7,2.21,2.21,0,0,1-.78.49,3,3,0,0,1-1.09.18Zm1.62-6.33a.82.82,0,0,1,.3.07.74.74,0,0,1,.25.17,1.14,1.14,0,0,1,.18.25.83.83,0,0,1,0,.62,1.44,1.44,0,0,1-.18.25.92.92,0,0,1-.25.17.8.8,0,0,1-.3.06.78.78,0,0,1-.31-.06.92.92,0,0,1-.25-.17,1,1,0,0,1-.17-.25.83.83,0,0,1,0-.62.85.85,0,0,1,.17-.25.74.74,0,0,1,.25-.17A.78.78,0,0,1,537.45,276.12Z"/><path class="i" d="M118,265.46h0l.77-2.37h.76l.72,2.37h0l.69-2.37h1l-1.18,3.67h-1l-.64-2.13h0l-.72,2.13h-1l-1.1-3.67h1Z"/><path class="i" d="M123,262.72v1.86h0a.9.9,0,0,1,.35-.3.93.93,0,0,1,.45-.1.86.86,0,0,1,.7.28,1.16,1.16,0,0,1,.24.77v1.53h-.89v-1.28a1.62,1.62,0,0,0,0-.23.48.48,0,0,0-.06-.18.41.41,0,0,0-.12-.14.41.41,0,0,0-.21,0,.37.37,0,0,0-.35.17.77.77,0,0,0-.11.42v1.28h-.88v-4Z"/><path class="i" d="M127.91,265.66H126a.49.49,0,0,0,.56.55A.45.45,0,0,0,127,266h.85a1,1,0,0,1-.45.63,1.68,1.68,0,0,1-1.86-.13,1.22,1.22,0,0,1-.4-1,1.38,1.38,0,0,1,.1-.55,1,1,0,0,1,.28-.42,1.16,1.16,0,0,1,.44-.27,1.69,1.69,0,0,1,.56-.09,1.34,1.34,0,0,1,1,.37,1.41,1.41,0,0,1,.36,1Zm-.83-.51a.48.48,0,0,0-.17-.29.52.52,0,0,0-.33-.11.58.58,0,0,0-.34.11.39.39,0,0,0-.18.29Z"/><path class="i" d="M130.88,265.66H129a.49.49,0,0,0,.56.55A.45.45,0,0,0,130,266h.85a1,1,0,0,1-.46.63,1.45,1.45,0,0,1-.81.22,1.49,1.49,0,0,1-1-.35,1.22,1.22,0,0,1-.4-1,1.38,1.38,0,0,1,.1-.55,1,1,0,0,1,.28-.42,1.16,1.16,0,0,1,.44-.27,1.69,1.69,0,0,1,.56-.09,1.34,1.34,0,0,1,1,.37,1.41,1.41,0,0,1,.36,1Zm-.83-.51a.48.48,0,0,0-.17-.29.55.55,0,0,0-.33-.11.55.55,0,0,0-.34.11.39.39,0,0,0-.18.29Z"/><path class="i" d="M132.17,266.76h-.89v-4h.89Z"/><path class="i" d="M132.72,262.72h.89v1.79a.86.86,0,0,1,.34-.25,1.26,1.26,0,0,1,.43-.08,1.18,1.18,0,0,1,.5.11,1,1,0,0,1,.4.28,1.45,1.45,0,0,1,.26,1.45,1.34,1.34,0,0,1-.26.43,1.28,1.28,0,0,1-.4.29,1.25,1.25,0,0,1-.51.1,1,1,0,0,1-.43-.09.66.66,0,0,1-.32-.27h0v.28h-.89Zm1,2.39a.59.59,0,0,0-.15.4.58.58,0,0,0,.15.41.57.57,0,0,0,.42.15.56.56,0,0,0,.41-.15.58.58,0,0,0,.16-.41.59.59,0,0,0-.16-.4.53.53,0,0,0-.41-.16A.54.54,0,0,0,133.73,265.11Z"/><path class="i" d="M138.8,266.76h-.89v-.28h0a.68.68,0,0,1-.31.27,1.12,1.12,0,0,1-.44.09,1.18,1.18,0,0,1-.5-.1,1.33,1.33,0,0,1-.41-.29,1.42,1.42,0,0,1,0-1.88,1.12,1.12,0,0,1,.4-.28,1.18,1.18,0,0,1,.5-.11,1.26,1.26,0,0,1,.43.08.86.86,0,0,1,.34.25v-.25h.89ZM137,265.11a.55.55,0,0,0-.16.4.54.54,0,0,0,.16.41.56.56,0,0,0,.41.15.57.57,0,0,0,.42-.15.58.58,0,0,0,.15-.41.59.59,0,0,0-.15-.4.54.54,0,0,0-.42-.16A.53.53,0,0,0,137,265.11Z"/><path class="i" d="M141,264.91a.85.85,0,0,0-.24-.09,1,1,0,0,0-.24,0,.45.45,0,0,0-.19.05.14.14,0,0,0-.09.12.14.14,0,0,0,.1.14,1.26,1.26,0,0,0,.25.07h.05a1.23,1.23,0,0,1,.54.24.69.69,0,0,1,.19.5.82.82,0,0,1-.1.42.75.75,0,0,1-.27.29,1.4,1.4,0,0,1-.37.17,2.2,2.2,0,0,1-.44,0,1.81,1.81,0,0,1-.52-.07,2.13,2.13,0,0,1-.49-.21l.32-.62a2.28,2.28,0,0,0,.35.18,1,1,0,0,0,.35.07.38.38,0,0,0,.19-.05.15.15,0,0,0,.09-.14.16.16,0,0,0-.09-.15,1.44,1.44,0,0,0-.29-.09l-.17,0-.22-.07a.66.66,0,0,1-.17-.12.52.52,0,0,1-.12-.19.72.72,0,0,1-.05-.27.8.8,0,0,1,.09-.39.68.68,0,0,1,.25-.28,1.09,1.09,0,0,1,.36-.17,1.75,1.75,0,0,1,.4-.05,1.91,1.91,0,0,1,.82.16Z"/><path class="i" d="M144.45,265.66h-1.86a.48.48,0,0,0,.55.55.45.45,0,0,0,.42-.22h.86a1,1,0,0,1-.46.63,1.68,1.68,0,0,1-1.86-.13,1.22,1.22,0,0,1-.4-1,1.38,1.38,0,0,1,.1-.55,1.15,1.15,0,0,1,.28-.42,1.25,1.25,0,0,1,.44-.27,1.69,1.69,0,0,1,.56-.09,1.34,1.34,0,0,1,1,.37,1.41,1.41,0,0,1,.36,1Zm-.82-.51a.5.5,0,0,0-.18-.29.52.52,0,0,0-.32-.11.58.58,0,0,0-.35.11.46.46,0,0,0-.18.29Z"/><line class="k" x1="158.56" y1="212.33" x2="158.56" y2="258.11"/><line class="k" x1="111.33" y1="212.33" x2="111.33" y2="258.11"/><line class="l" x1="106.75" y1="235.68" x2="186.15" y2="235.68"/><polygon class="c" points="197.44 235.68 181.53 242.18 185.3 235.68 181.53 229.18 197.44 235.68"/><line class="m" x1="106.03" y1="235.92" x2="106.03" y2="178"/><polygon class="n" points="106.03 166.7 112.54 182.62 106.03 178.84 99.53 182.62 106.03 166.7"/></svg>