<svg xmlns="http://www.w3.org/2000/svg" viewBox="0 0 600 300"><defs><style>.a{opacity:0.2;}.b{fill:#32aec5;}.c{fill:#08374a;}.d,.e,.f,.h,.j{fill:none;stroke-linecap:round;stroke-linejoin:round;}.d,.e{stroke:#32aec5;}.d,.e,.f{stroke-width:5px;}.e{stroke-dasharray:12.27 12.27;}.f{stroke:#fec111;}.g{fill:#fec111;}.h{stroke:#ef4638;}.h,.j{stroke-width:4px;}.i{fill:#ef4638;}.j{stroke:#128a7b;}.k{fill:#128a7b;}</style></defs><g class="a"><path class="b" d="M144.52,252.26c1-1.95,2.3-1.68,3.69-.41-.94,1.42-1.19,4.46-3.32,4.37C143.62,256.09,144.66,253.23,144.52,252.26Z"/><path class="b" d="M146,217.57c1,2,2.24,1.77,3.67.54-.89-1.45-1-4.49-3.17-4.48C145.26,213.72,146.2,216.61,146,217.57Z"/><path class="b" d="M99.6,244.54l.35-20.85c.06-3.28,2-5.18,6.31-5.84,14.06-2.18,57,1,57,1,3.43,0,4.37,1.6,6.12,6,1.9,4.86,1.16,15.86-.35,20.85-1.77,5.83-2.88,5.9-6.31,5.84,0,0-43,1.89-57-.95C101.81,249.79,99.55,247.82,99.6,244.54Z"/><path class="c" d="M104.4,237.94l.1-6c.11-6.88,2.29-13,9.17-12.91l22.74.37c6.88.12,12,.32,12.25,12.67,0,1.5,0,4.51-.1,6-.77,10.15-5.78,12.37-12.66,12.26L113.16,250C106.28,249.83,104.29,244.83,104.4,237.94Z"/><path class="b" d="M106.52,250.34l-1.76-1.83c6.34-4.53,8.23-9.41,8-13.84,0-.06,0-.13,0-.19s0-.13,0-.2c.35-4.41-1.38-9.36-7.57-14.1l1.82-1.77s17.54,16.86,39.24.65l3.39,3.87c-6.26.64-12.43,4.87-14,6.37-.6.58-.92,2.84-.95,5.35V235c0,2.51.19,4.78.77,5.37,1.49,1.55,7.51,6,13.75,6.83L145.76,251C124.61,234.07,106.52,250.34,106.52,250.34Z"/></g><path class="d" d="M43.41,245.53s.22-2.22.86-5.94"/><path class="e" d="M46.87,227.61c6.62-25.33,24.94-68.19,72.95-64.84,40.07,2.79,130.88,75.44,195.08,30.75"/><path class="d" d="M319.82,189.83q2.28-1.86,4.53-3.93"/><line class="f" x1="108.75" y1="234.7" x2="212.04" y2="208.94"/><polygon class="g" points="225.74 205.52 208.4 218.22 211.01 209.19 204.47 202.45 225.74 205.52"/><line class="h" x1="106.75" y1="235.68" x2="186.15" y2="235.68"/><polygon class="i" points="197.44 235.68 181.53 242.18 185.3 235.68 181.53 229.18 197.44 235.68"/><line class="j" x1="106.03" y1="235.92" x2="106.03" y2="178"/><polygon class="k" points="106.03 166.7 112.54 182.62 106.03 178.84 99.53 182.62 106.03 166.7"/><path class="c" d="M33.63,81.24v1.51h2.58v2H33.63v3.55H31.28v-9h5.2v2Z"/><path class="c" d="M42.41,82.16a3.55,3.55,0,0,1,1.18.64,2.77,2.77,0,0,1,.81,1,3.32,3.32,0,0,1,0,2.76,2.9,2.9,0,0,1-.8,1,3.7,3.7,0,0,1-1.19.65A4.74,4.74,0,0,1,41,88.5a4.44,4.44,0,0,1-1.42-.22,3.55,3.55,0,0,1-1.18-.64,2.85,2.85,0,0,1-.81-1,3.32,3.32,0,0,1,0-2.76,2.77,2.77,0,0,1,.81-1,3.55,3.55,0,0,1,1.18-.64,4.5,4.5,0,0,1,2.84,0ZM40,84.23a1.4,1.4,0,0,0-.37,1,1.37,1.37,0,0,0,.37,1,1.56,1.56,0,0,0,2.06,0,1.37,1.37,0,0,0,.37-1,1.4,1.4,0,0,0-.37-1,1.53,1.53,0,0,0-2.06,0Z"/><path class="c" d="M47.87,88.29H45.68v-10h2.19Z"/><path class="c" d="M51.49,88.29H49.31v-10h2.18Z"/><path class="c" d="M57.6,82.16a3.6,3.6,0,0,1,1.19.64,3,3,0,0,1,.81,1,3.25,3.25,0,0,1,.29,1.38,3.28,3.28,0,0,1-.29,1.38,3,3,0,0,1-.81,1,3.6,3.6,0,0,1-1.19.65,4.74,4.74,0,0,1-1.42.22,4.38,4.38,0,0,1-1.41-.22,3.5,3.5,0,0,1-1.19-.64,2.85,2.85,0,0,1-.81-1,3.32,3.32,0,0,1,0-2.76,2.77,2.77,0,0,1,.81-1,3.5,3.5,0,0,1,1.19-.64,4.39,4.39,0,0,1,1.41-.23A4.45,4.45,0,0,1,57.6,82.16Zm-2.44,2.07a1.37,1.37,0,0,0-.38,1,1.33,1.33,0,0,0,.38,1,1.35,1.35,0,0,0,1,.39,1.32,1.32,0,0,0,1.41-1.38,1.41,1.41,0,0,0-.38-1,1.34,1.34,0,0,0-1-.4A1.32,1.32,0,0,0,55.16,84.23Z"/><path class="c" d="M63.93,85.47l1.55-3.33h1.3l1.55,3.33,1.54-3.33h2.42l-3.22,6.15H67.65l-1.52-3.37-1.52,3.37H63.19L60,82.14H62.4Z"/><path class="c" d="M76.17,83.54v1.8H72.74v-1.8Z"/><path class="c" d="M79.92,88.29H77.73V83.94H77v-1.8h.71V80.29h2.19v1.85h1.23v1.8H79.92Z"/><path class="c" d="M84,78.33v4.59h0a2.42,2.42,0,0,1,.86-.75,2.38,2.38,0,0,1,1.1-.24,2.15,2.15,0,0,1,1.73.7,2.81,2.81,0,0,1,.59,1.9v3.76H86.16V85.14a3.18,3.18,0,0,0,0-.57,1.25,1.25,0,0,0-.14-.45.74.74,0,0,0-.3-.33,1.11,1.11,0,0,0-1.38.31,1.89,1.89,0,0,0-.27,1v3.15H81.85v-10Z"/><path class="c" d="M96.1,85.58H91.51A1.21,1.21,0,0,0,92.88,87a1.13,1.13,0,0,0,1-.56H96A2.46,2.46,0,0,1,94.89,88a3.72,3.72,0,0,1-2,.54,3.78,3.78,0,0,1-2.58-.87,3,3,0,0,1-1-2.41,3.75,3.75,0,0,1,.24-1.37,3,3,0,0,1,.7-1,2.93,2.93,0,0,1,1.09-.65,4.06,4.06,0,0,1,1.37-.23,3.32,3.32,0,0,1,2.49.92,3.45,3.45,0,0,1,.88,2.5Zm-2-1.26a1.15,1.15,0,0,0-.43-.7,1.3,1.3,0,0,0-.81-.27,1.37,1.37,0,0,0-.84.25,1.15,1.15,0,0,0-.46.72Z"/><path class="c" d="M100.45,83.54v1.8H97v-1.8Z"/><path class="c" d="M106.25,84.14a2.81,2.81,0,0,0-.55-.32,1.66,1.66,0,0,0-.58-.11,1.44,1.44,0,0,0-1.07.43,1.57,1.57,0,0,0,0,2.16,1.52,1.52,0,0,0,1.1.42,1.7,1.7,0,0,0,.58-.11,1.79,1.79,0,0,0,.52-.31v1.85a3.45,3.45,0,0,1-1.54.35,3.52,3.52,0,0,1-1.29-.24,3.58,3.58,0,0,1-1.07-.67,3.16,3.16,0,0,1-.73-1,3.22,3.22,0,0,1-.26-1.28,3.49,3.49,0,0,1,.26-1.35,3.23,3.23,0,0,1,1.84-1.76,3.76,3.76,0,0,1,1.35-.24,3,3,0,0,1,1.44.36Z"/><path class="c" d="M114.33,88.29h-2.18v-.68h0a1.69,1.69,0,0,1-.78.66,2.58,2.58,0,0,1-1.08.23,3,3,0,0,1-2.23-1,3.55,3.55,0,0,1-.65-3.56,3.12,3.12,0,0,1,.64-1,2.93,2.93,0,0,1,2.22-1,2.75,2.75,0,0,1,1.06.21,2.06,2.06,0,0,1,.85.6v-.6h2.18Zm-4.54-4.06a1.41,1.41,0,0,0-.38,1,1.37,1.37,0,0,0,.38,1,1.54,1.54,0,0,0,2,0,1.37,1.37,0,0,0,.38-1,1.41,1.41,0,0,0-.38-1,1.51,1.51,0,0,0-2,0Z"/><path class="c" d="M118,83.15h0a2,2,0,0,1,.82-.83,2.46,2.46,0,0,1,1.17-.27h.42v2.1A1.45,1.45,0,0,0,120,84a2.47,2.47,0,0,0-.5,0,1.3,1.3,0,0,0-1.17.49,2.33,2.33,0,0,0-.34,1.37v2.48h-2.18V82.14H118Z"/><path class="c" d="M123.4,83.15h0a2,2,0,0,1,.82-.83,2.46,2.46,0,0,1,1.17-.27h.42v2.1a1.56,1.56,0,0,0-.42-.16,2.53,2.53,0,0,0-.5,0,1.32,1.32,0,0,0-1.18.49,2.41,2.41,0,0,0-.34,1.37v2.48h-2.18V82.14h2.18Z"/><path class="c" d="M131.11,82.16a3.6,3.6,0,0,1,1.19.64,3,3,0,0,1,.81,1,3.25,3.25,0,0,1,.29,1.38,3.28,3.28,0,0,1-.29,1.38,3,3,0,0,1-.81,1,3.65,3.65,0,0,1-1.18.65,4.86,4.86,0,0,1-1.43.22,4.43,4.43,0,0,1-1.41-.22,3.5,3.5,0,0,1-1.19-.64,3.28,3.28,0,0,1-.81-3.8,3,3,0,0,1,.81-1,3.5,3.5,0,0,1,1.19-.64,4.47,4.47,0,0,1,2.83,0Zm-2.44,2.07a1.41,1.41,0,0,0-.38,1,1.37,1.37,0,0,0,.38,1,1.35,1.35,0,0,0,1,.39,1.32,1.32,0,0,0,1.41-1.38,1.41,1.41,0,0,0-.38-1,1.34,1.34,0,0,0-1-.4A1.32,1.32,0,0,0,128.67,84.23Z"/><path class="c" d="M136.77,88.29h-2.18V83.94h-.71v-1.8h.71V80.29h2.18v1.85H138v1.8h-1.24Z"/><ellipse class="i" cx="232.06" cy="203.3" rx="5.93" ry="5.63" transform="translate(-70.51 143.04) rotate(-29.96)"/><path class="c" d="M430.29,210.68c-.7.95-1.52,2.11-2.47,3.5a20.61,20.61,0,0,0-.21,2.29,1.94,1.94,0,0,0,.12.8.45.45,0,0,0,.43.24,1,1,0,0,0,.53-.2,3,3,0,0,0,.65-.61l.49.45a5.2,5.2,0,0,1-1.23,1,2.24,2.24,0,0,1-1.09.28c-.75,0-1.13-.54-1.13-1.64a6.19,6.19,0,0,1,.06-.81h-.09a7.44,7.44,0,0,1-1.65,1.88,2.79,2.79,0,0,1-1.67.57,1.54,1.54,0,0,1-1-.35,2,2,0,0,1-.63-.95,3.78,3.78,0,0,1-.21-1.28,7.41,7.41,0,0,1,.58-2.88,5.19,5.19,0,0,1,1.6-2.14,3.8,3.8,0,0,1,2.31-.77,1.94,1.94,0,0,1,1.49.59,2.74,2.74,0,0,1,.59,1.74h.08l1.11-2.19h1.47Zm-3.68,3.56a10.56,10.56,0,0,0,.14-1.56,3,3,0,0,0-.28-1.44,1,1,0,0,0-.89-.46,2,2,0,0,0-1.45.69,5,5,0,0,0-1.07,1.89,7.47,7.47,0,0,0-.41,2.43,2.48,2.48,0,0,0,.26,1.27.83.83,0,0,0,.76.42,2.12,2.12,0,0,0,1.5-.86A9,9,0,0,0,426.61,214.24Z"/><path class="c" d="M437.19,212.19v-1.12h10.44v1.12Zm0,3.52v-1.13h10.44v1.13Z"/><path class="c" d="M461,210.66l.78-.56.54.14-1.24,5.37a5.72,5.72,0,0,0-.19,1.26.89.89,0,0,0,.11.49.4.4,0,0,0,.35.15.92.92,0,0,0,.54-.21,6.13,6.13,0,0,0,.81-.79l.49.47a7.17,7.17,0,0,1-1.31,1.16,2.07,2.07,0,0,1-1.16.34,1.08,1.08,0,0,1-.84-.34,1.32,1.32,0,0,1-.31-.93,2.84,2.84,0,0,1,.19-1l-.11,0a7.36,7.36,0,0,1-1.54,1.73,2.52,2.52,0,0,1-1.54.56,1.68,1.68,0,0,1-1.45-.71,3.32,3.32,0,0,1-.51-2,7.08,7.08,0,0,1,.57-2.8,5.07,5.07,0,0,1,1.57-2.12,3.54,3.54,0,0,1,2.23-.78,4.22,4.22,0,0,1,1,.12A3.86,3.86,0,0,1,461,210.66Zm-.75,2.53a4.49,4.49,0,0,0,.1-.61,4.68,4.68,0,0,0,0-.55,1.35,1.35,0,0,0-.28-.95,1.22,1.22,0,0,0-.95-.31,2.16,2.16,0,0,0-1.57.7,4.8,4.8,0,0,0-1.08,1.89,7.53,7.53,0,0,0-.39,2.36,2.82,2.82,0,0,0,.24,1.32.85.85,0,0,0,.81.44,1.68,1.68,0,0,0,1.1-.49,6.51,6.51,0,0,0,1.11-1.38,6,6,0,0,0,.81-2.06Zm6.9-.9a7.3,7.3,0,0,1,1.6-1.66,2.72,2.72,0,0,1,1.55-.52,5,5,0,0,1,1,.09l-.41,1.9H470a1.85,1.85,0,0,0-.15-.55.56.56,0,0,0-.22-.27.61.61,0,0,0-.32-.08,1.13,1.13,0,0,0-.66.27,4.18,4.18,0,0,0-.81.82,6.69,6.69,0,0,0-.72,1.07,5.22,5.22,0,0,0-.44,1.32l-.81,3.67h-1.47l1.23-5.38c.08-.33.13-.6.16-.78s0-.35,0-.47a.86.86,0,0,0-.11-.49.4.4,0,0,0-.35-.15,1,1,0,0,0-.55.21,5.67,5.67,0,0,0-.8.79l-.49-.48a8.4,8.4,0,0,1,1.31-1.16,2.07,2.07,0,0,1,1.16-.34,1.06,1.06,0,0,1,.84.35,1.33,1.33,0,0,1,.31.92,2.57,2.57,0,0,1-.16.88Zm10.88,0a3.75,3.75,0,0,0-.1-.93.83.83,0,0,0-.29-.44,1,1,0,0,0-.56-.14,2.14,2.14,0,0,0-1.54.68,5,5,0,0,0-1.12,1.94,7.25,7.25,0,0,0-.43,2.4,2,2,0,0,0,.34,1.28,1.23,1.23,0,0,0,1,.42,2.78,2.78,0,0,0,1.33-.29,4.78,4.78,0,0,0,1.19-.92l.52.52a5.74,5.74,0,0,1-1.61,1.29,3.83,3.83,0,0,1-1.74.4,2.31,2.31,0,0,1-1.86-.73,3.09,3.09,0,0,1-.64-2.12,6.65,6.65,0,0,1,.34-2,5.92,5.92,0,0,1,1-1.9,4.24,4.24,0,0,1,3.39-1.64,8,8,0,0,1,2.08.25l-.42,1.92Zm7.43,4.47a6.18,6.18,0,0,1-1.42,1.31,2.7,2.7,0,0,1-1.43.42,1.57,1.57,0,0,1-1.77-1.78,5.75,5.75,0,0,1,.14-1.2l1-4.4h-1.42l.13-.58a4.2,4.2,0,0,0,.76-.08,1.55,1.55,0,0,0,.43-.19,1.32,1.32,0,0,0,.32-.34,3.22,3.22,0,0,0,.28-.56c.09-.23.22-.63.4-1.2H484l-.46,2.09h2.57l-.18.86h-2.58l-.75,3.29a13.79,13.79,0,0,0-.28,1.38,5,5,0,0,0-.06.67q0,1,.87,1.05a1.41,1.41,0,0,0,.79-.28,5.43,5.43,0,0,0,1-1Zm8.18-6.09.78-.56.54.14-1.25,5.37a6.24,6.24,0,0,0-.18,1.26.81.81,0,0,0,.11.49.4.4,0,0,0,.35.15.92.92,0,0,0,.54-.21,6.13,6.13,0,0,0,.81-.79l.49.47a7.17,7.17,0,0,1-1.31,1.16,2.09,2.09,0,0,1-1.16.34,1.08,1.08,0,0,1-.84-.34,1.32,1.32,0,0,1-.31-.93,2.84,2.84,0,0,1,.19-1l-.11,0a7.36,7.36,0,0,1-1.54,1.73,2.52,2.52,0,0,1-1.55.56,1.68,1.68,0,0,1-1.44-.71,3.32,3.32,0,0,1-.51-2,7.08,7.08,0,0,1,.57-2.8,5.07,5.07,0,0,1,1.57-2.12,3.54,3.54,0,0,1,2.23-.78,4.22,4.22,0,0,1,1,.12A3.86,3.86,0,0,1,493.62,210.66Zm-.75,2.53a4.49,4.49,0,0,0,.1-.61,4.68,4.68,0,0,0,0-.55,1.35,1.35,0,0,0-.28-.95,1.22,1.22,0,0,0-1-.31,2.16,2.16,0,0,0-1.57.7,4.8,4.8,0,0,0-1.08,1.89,7.53,7.53,0,0,0-.39,2.36A2.82,2.82,0,0,0,489,217a.85.85,0,0,0,.81.44,1.68,1.68,0,0,0,1.1-.49,7.19,7.19,0,0,0,1.11-1.38,6,6,0,0,0,.81-2.06Zm5.45-.22a6.43,6.43,0,0,0,.19-1.25.86.86,0,0,0-.11-.49.41.41,0,0,0-.35-.15,1,1,0,0,0-.56.21,7,7,0,0,0-.8.79l-.48-.48a8.41,8.41,0,0,1,1.3-1.16,2,2,0,0,1,1.17-.34,1.09,1.09,0,0,1,.84.35,1.33,1.33,0,0,1,.31.92,3,3,0,0,1-.2,1l.1,0a7.9,7.9,0,0,1,1.58-1.74,2.57,2.57,0,0,1,1.55-.56,1.58,1.58,0,0,1,1.21.45,1.78,1.78,0,0,1,.42,1.26,6.94,6.94,0,0,1-.24,1.52l-.55,2.22a5.92,5.92,0,0,0-.23,1.31.81.81,0,0,0,.11.49.39.39,0,0,0,.34.15,1,1,0,0,0,.55-.21,6.13,6.13,0,0,0,.81-.79l.48.47a7.49,7.49,0,0,1-1.27,1.14,2.18,2.18,0,0,1-1.24.36,1.1,1.1,0,0,1-.88-.39,1.51,1.51,0,0,1-.33-1,7.36,7.36,0,0,1,.28-1.62l.37-1.47c.14-.53.23-.92.27-1.18a4.33,4.33,0,0,0,.07-.62,1.4,1.4,0,0,0-.2-.84.75.75,0,0,0-.64-.26,1.43,1.43,0,0,0-.76.28,4.37,4.37,0,0,0-.88.86,7.38,7.38,0,0,0-.74,1.11,5.87,5.87,0,0,0-.46,1.33l-.8,3.67h-1.47Z"/><path class="c" d="M512.17,214.25a11.06,11.06,0,0,0,1,4.89,4.92,4.92,0,0,0,2.92,2.58l-.21.65a6.14,6.14,0,0,1-3.8-2.81,10.93,10.93,0,0,1,0-10.45,6.08,6.08,0,0,1,3.8-2.82l.23.65a4.94,4.94,0,0,0-2.94,2.55A10.62,10.62,0,0,0,512.17,214.25Z"/><path class="c" d="M523.32,204.59c-.16-1-.38-2.18-.67-3.58s-.49-2.41-.59-2.77a1.9,1.9,0,0,0-.37-.82.4.4,0,0,0-.3-.11.73.73,0,0,0-.51.22,4.15,4.15,0,0,0-.58.76l-.55-.36a4.65,4.65,0,0,1,1.09-1.24,1.93,1.93,0,0,1,1.14-.36,1.49,1.49,0,0,1,.59.1,1.09,1.09,0,0,1,.34.22,1.54,1.54,0,0,1,.3.44,3.8,3.8,0,0,1,.23.63,10.19,10.19,0,0,1,.21,1c.14.72.27,1.49.4,2.3s.23,1.55.32,2.24a19.6,19.6,0,0,0,1.4-2.32,12.94,12.94,0,0,0,.82-2,4.88,4.88,0,0,0,.25-1.36.68.68,0,0,0-.17-.55,1,1,0,0,0-.57-.17l.08-.41h2.23l.23.42a27,27,0,0,1-1.75,3.78,39.14,39.14,0,0,1-2.48,3.91,19.61,19.61,0,0,1-2.23,2.69,4.09,4.09,0,0,1-1.2.81,2.43,2.43,0,0,1-1,.19l-.41,0a1.64,1.64,0,0,1-.36-.08l.36-1.65h.67c0,.37.13.55.38.55a1.86,1.86,0,0,0,1.14-.62A12.45,12.45,0,0,0,523.32,204.59Z"/><path class="c" d="M532.88,206.66a7.1,7.1,0,0,1-.62.74,4.2,4.2,0,0,1-.58.5,2.2,2.2,0,0,1-.58.28,2,2,0,0,1-.61.09,1.34,1.34,0,0,1-1.12-.53,2.52,2.52,0,0,1-.39-1.53,5.29,5.29,0,0,1,.12-1.13,5,5,0,0,1,.35-1,4.51,4.51,0,0,1,.55-.9,3.81,3.81,0,0,1,.7-.69,3.46,3.46,0,0,1,.82-.45,2.78,2.78,0,0,1,2.43.27l.61-.42.47.13c-.12.52-.23,1-.34,1.55s-.22,1-.34,1.56-.24,1.2-.34,1.72-.21,1-.33,1.4a5,5,0,0,1-.43,1.06,2.54,2.54,0,0,1-.64.74,2.81,2.81,0,0,1-1,.45,5.1,5.1,0,0,1-1.4.17,4.62,4.62,0,0,1-1.94-.31,1,1,0,0,1-.65-1,.89.89,0,0,1,.21-.6,1.92,1.92,0,0,1,.29-.27c.12-.09.26-.18.42-.28l.56.43a1.09,1.09,0,0,0-.29.35.85.85,0,0,0-.08.35.56.56,0,0,0,.35.52,2.55,2.55,0,0,0,1.1.18,3.6,3.6,0,0,0,.69-.05,2,2,0,0,0,.57-.19,1.6,1.6,0,0,0,.46-.37,2.66,2.66,0,0,0,.39-.58,5.39,5.39,0,0,0,.34-.89c.11-.35.21-.78.32-1.27Zm.41-2c.05-.23.09-.46.13-.68a2.68,2.68,0,0,0,.07-.59.89.89,0,0,0-.24-.71,1,1,0,0,0-.71-.21,1.45,1.45,0,0,0-.68.16,2,2,0,0,0-.57.43,2.83,2.83,0,0,0-.46.64,4.09,4.09,0,0,0-.34.77,5,5,0,0,0-.29,1.67c0,.88.26,1.31.79,1.31a1.21,1.21,0,0,0,.67-.2,2.69,2.69,0,0,0,.71-.67,4.32,4.32,0,0,0,.35-.46,3.28,3.28,0,0,0,.26-.43,3.8,3.8,0,0,0,.18-.47C533.2,205.06,533.25,204.87,533.29,204.66Zm5.5,3.61a2.65,2.65,0,0,1-.92-.15,2.06,2.06,0,0,1-.69-.45,1.94,1.94,0,0,1-.44-.7,2.67,2.67,0,0,1-.15-.93,4.67,4.67,0,0,1,.28-1.64,4.22,4.22,0,0,1,.75-1.33,3.83,3.83,0,0,1,1.15-.89,3.17,3.17,0,0,1,1.44-.32,2.63,2.63,0,0,1,1,.17,2.1,2.1,0,0,1,.7.49,2,2,0,0,1,.41.72,2.8,2.8,0,0,1,.14.88,4.81,4.81,0,0,1-.28,1.7,3.78,3.78,0,0,1-.77,1.31,3.29,3.29,0,0,1-1.15.84A3.44,3.44,0,0,1,538.79,208.27Zm-1-2a1.57,1.57,0,0,0,.29,1,1.13,1.13,0,0,0,.89.33,1.28,1.28,0,0,0,.63-.16,2.27,2.27,0,0,0,.55-.44,3.52,3.52,0,0,0,.44-.65,5.16,5.16,0,0,0,.33-.8,5.34,5.34,0,0,0,.2-.88,5.42,5.42,0,0,0,.07-.89,1.7,1.7,0,0,0-.27-1,1,1,0,0,0-.85-.35,1.44,1.44,0,0,0-.65.15,2,2,0,0,0-.55.43,3.18,3.18,0,0,0-.46.64,5.83,5.83,0,0,0-.34.8,6.27,6.27,0,0,0-.21.88A5.82,5.82,0,0,0,537.81,206.3Zm10.07.33a6.18,6.18,0,0,1-.62.74,3.31,3.31,0,0,1-.58.51,2.06,2.06,0,0,1-.59.3,2.11,2.11,0,0,1-.62.09,1.34,1.34,0,0,1-1.13-.53,2.47,2.47,0,0,1-.4-1.53,5.34,5.34,0,0,1,.12-1.15,5.54,5.54,0,0,1,.36-1,4.85,4.85,0,0,1,.55-.88,3.85,3.85,0,0,1,.71-.69,3.19,3.19,0,0,1,.81-.44,2.74,2.74,0,0,1,.9-.15,2.7,2.7,0,0,1,1.54.42l.6-.42.5.13-.93,4a4.6,4.6,0,0,0-.11.57,3,3,0,0,0,0,.4.53.53,0,0,0,.09.34.37.37,0,0,0,.28.1.6.6,0,0,0,.22,0,.83.83,0,0,0,.23-.14l.28-.23.34-.35c.07.07.13.14.2.2l.21.2c-.21.21-.39.39-.56.54a4.69,4.69,0,0,1-.49.38,2.07,2.07,0,0,1-.47.2,1.51,1.51,0,0,1-.48.07.88.88,0,0,1-.69-.29,1.17,1.17,0,0,1-.24-.78,1.61,1.61,0,0,1,.08-.54Zm.4-2c.05-.25.1-.48.13-.69a3,3,0,0,0,.05-.58.91.91,0,0,0-.23-.71,1.06,1.06,0,0,0-.73-.21,1.45,1.45,0,0,0-.68.16,1.82,1.82,0,0,0-.57.44,2.56,2.56,0,0,0-.46.64,4.09,4.09,0,0,0-.34.77,4,4,0,0,0-.21.84,4.7,4.7,0,0,0-.07.82,2.13,2.13,0,0,0,.18,1,.65.65,0,0,0,.61.32,1.14,1.14,0,0,0,.41-.07,2.17,2.17,0,0,0,.41-.23,4,4,0,0,0,.92-1A4.63,4.63,0,0,0,548.28,204.66Zm4,1.13c.18-.79.36-1.57.53-2.36s.32-1.39.43-1.81a5.11,5.11,0,0,0,.15-.92.48.48,0,0,0,0-.22.31.31,0,0,0-.12-.14,1,1,0,0,0-.24-.08,3.88,3.88,0,0,0-.4,0l.08-.42,1.7-.08h.44c-.25,1.15-.48,2.2-.7,3.15l-.69,3.15c-.06.25-.1.44-.12.58a1.84,1.84,0,0,0,0,.39.53.53,0,0,0,.09.34.4.4,0,0,0,.3.1.57.57,0,0,0,.22,0,.83.83,0,0,0,.23-.14,2.6,2.6,0,0,0,.28-.23l.34-.35.4.4c-.21.22-.4.4-.57.55a3.71,3.71,0,0,1-.49.37,1.78,1.78,0,0,1-.45.2,1.53,1.53,0,0,1-.49.07,1,1,0,0,1-.42-.09.82.82,0,0,1-.32-.23.91.91,0,0,1-.21-.37,1.34,1.34,0,0,1-.08-.46,4.42,4.42,0,0,1,.05-.56C552.14,206.33,552.19,206.08,552.25,205.79Z"/><path class="c" d="M525.11,226.22c-.09-.45-.17-.88-.26-1.29s-.19-.8-.28-1.15a4,4,0,0,0-.24-.7.58.58,0,0,0-.2-.23.45.45,0,0,0-.27-.07.69.69,0,0,0-.32.08,1.28,1.28,0,0,0-.31.28,5.1,5.1,0,0,0-.45.63l-.55-.37a5.15,5.15,0,0,1,1-1.2,1.78,1.78,0,0,1,1.16-.4,1.68,1.68,0,0,1,.47.06,1.06,1.06,0,0,1,.35.18,1.24,1.24,0,0,1,.27.32,3.08,3.08,0,0,1,.23.53c.07.22.14.5.21.83s.12.67.17,1h.08c.55-.76,1-1.32,1.24-1.67a5.48,5.48,0,0,1,.71-.79,1.9,1.9,0,0,1,.55-.37,2,2,0,0,1,.71-.1,1.74,1.74,0,0,1,.65.1l-.34,1.53h-.59c0-.23-.13-.35-.3-.35l-.16,0a1.46,1.46,0,0,0-.21.11,3.9,3.9,0,0,0-.36.33c-.16.17-.33.37-.53.61s-.4.48-.61.74l-.58.72c.1.54.2,1,.29,1.41s.17.72.24,1a6.09,6.09,0,0,0,.19.62,1.07,1.07,0,0,0,.17.34.54.54,0,0,0,.19.16.43.43,0,0,0,.23,0,.68.68,0,0,0,.44-.18,3.93,3.93,0,0,0,.63-.8l.55.36a5.24,5.24,0,0,1-1.08,1.24,1.81,1.81,0,0,1-1.14.36,1.25,1.25,0,0,1-.61-.13,1.12,1.12,0,0,1-.45-.42,3.18,3.18,0,0,1-.33-.9,14.28,14.28,0,0,1-.32-1.66h-.08c-.6.85-1,1.45-1.34,1.82a7.46,7.46,0,0,1-.72.81,1.71,1.71,0,0,1-.55.37,2,2,0,0,1-.71.11,1.73,1.73,0,0,1-.65-.11l.34-1.53h.59q.06.36.3.36a.63.63,0,0,0,.25-.07,1.68,1.68,0,0,0,.38-.3c.16-.16.39-.42.67-.76S524.56,226.91,525.11,226.22Z"/><path class="c" d="M534.77,232.14c-.22.28-.43.53-.62.73a3.27,3.27,0,0,1-.59.5,2.19,2.19,0,0,1-.57.29,2.1,2.1,0,0,1-.61.09,1.34,1.34,0,0,1-1.12-.53,2.55,2.55,0,0,1-.4-1.54,4.7,4.7,0,0,1,.13-1.12,5.09,5.09,0,0,1,.35-1,4.69,4.69,0,0,1,.54-.89,3.85,3.85,0,0,1,.71-.69,2.87,2.87,0,0,1,.82-.45,2.51,2.51,0,0,1,.9-.16,2.84,2.84,0,0,1,.86.12,2.56,2.56,0,0,1,.67.31l.6-.43.47.13q-.17.79-.33,1.56c-.11.51-.22,1-.34,1.56s-.25,1.19-.35,1.72a12.76,12.76,0,0,1-.32,1.4,5.45,5.45,0,0,1-.43,1.05,2.41,2.41,0,0,1-.64.74,3,3,0,0,1-1,.46,5.54,5.54,0,0,1-1.41.17,4.58,4.58,0,0,1-1.93-.32,1,1,0,0,1-.65-1,.81.81,0,0,1,.05-.31.88.88,0,0,1,.16-.28A1.52,1.52,0,0,1,530,234a3.06,3.06,0,0,1,.42-.28l.56.42a1.27,1.27,0,0,0-.3.35.86.86,0,0,0-.07.36.55.55,0,0,0,.35.52,2.52,2.52,0,0,0,1.1.18,3.69,3.69,0,0,0,.69-.06,2,2,0,0,0,.56-.18,1.83,1.83,0,0,0,.47-.37,2.74,2.74,0,0,0,.39-.59,5.25,5.25,0,0,0,.34-.88c.11-.36.21-.78.31-1.27Zm.41-2c0-.23.09-.46.13-.69a3.47,3.47,0,0,0,.07-.59.91.91,0,0,0-.24-.71,1,1,0,0,0-.72-.21,1.57,1.57,0,0,0-.67.16,2.14,2.14,0,0,0-.57.43,3.41,3.41,0,0,0-.47.64,4.86,4.86,0,0,0-.34.77,5.73,5.73,0,0,0-.21.84,4.92,4.92,0,0,0-.07.84c0,.87.26,1.31.79,1.31a1.36,1.36,0,0,0,.67-.2,3,3,0,0,0,.71-.67c.13-.16.25-.32.35-.46a3.28,3.28,0,0,0,.25-.44,3.14,3.14,0,0,0,.18-.46A5.72,5.72,0,0,0,535.18,230.14Zm5.5,3.61a2.6,2.6,0,0,1-.92-.16,1.86,1.86,0,0,1-.7-.44,2.17,2.17,0,0,1-.43-.7,2.75,2.75,0,0,1-.15-.93,4.86,4.86,0,0,1,.27-1.64,4.44,4.44,0,0,1,.76-1.33,3.67,3.67,0,0,1,1.15-.89,3.17,3.17,0,0,1,1.44-.33,2.43,2.43,0,0,1,1,.18,1.94,1.94,0,0,1,.69.48,2,2,0,0,1,.42.72,2.86,2.86,0,0,1,.14.89,4.85,4.85,0,0,1-.28,1.7,3.88,3.88,0,0,1-.77,1.31,3.43,3.43,0,0,1-2.59,1.14Zm-1-2a1.52,1.52,0,0,0,.3,1,1.09,1.09,0,0,0,.89.34,1.4,1.4,0,0,0,.63-.16,1.91,1.91,0,0,0,.54-.45,2.85,2.85,0,0,0,.44-.65,4.79,4.79,0,0,0,.33-.8,6,6,0,0,0,.21-.88,5.3,5.3,0,0,0,.07-.88,1.68,1.68,0,0,0-.27-1,1,1,0,0,0-.85-.36,1.33,1.33,0,0,0-.65.16,2,2,0,0,0-.56.42,3.46,3.46,0,0,0-.45.64,5.2,5.2,0,0,0-.34.8,6.09,6.09,0,0,0-.21.89A5.84,5.84,0,0,0,539.69,231.78Zm10.07.32a6.34,6.34,0,0,1-.61.75,3.72,3.72,0,0,1-.58.51,2.3,2.3,0,0,1-.59.29,2.12,2.12,0,0,1-.62.1,1.33,1.33,0,0,1-1.13-.53,2.5,2.5,0,0,1-.41-1.54,5.4,5.4,0,0,1,.13-1.15,4.57,4.57,0,0,1,.36-1,4.65,4.65,0,0,1,.55-.88,4.13,4.13,0,0,1,.71-.68,2.9,2.9,0,0,1,.81-.44,2.51,2.51,0,0,1,.9-.16,2.84,2.84,0,0,1,.86.12,2.63,2.63,0,0,1,.68.31l.6-.43.5.13-.93,4a4.64,4.64,0,0,0-.12.58,3,3,0,0,0,0,.39.51.51,0,0,0,.1.34.34.34,0,0,0,.27.11.54.54,0,0,0,.22,0,1,1,0,0,0,.24-.13l.28-.24.34-.35.2.21.21.2q-.32.31-.57.54a3.71,3.71,0,0,1-.49.37,1.7,1.7,0,0,1-.46.21,1.92,1.92,0,0,1-.48.07.85.85,0,0,1-.69-.29,1.2,1.2,0,0,1-.25-.79,1.6,1.6,0,0,1,.09-.53Zm.4-2c.06-.26.11-.49.14-.69a4.15,4.15,0,0,0,.05-.59,1,1,0,0,0-.23-.71,1.08,1.08,0,0,0-.73-.21,1.55,1.55,0,0,0-.68.16,2.4,2.4,0,0,0-.58.44,3.88,3.88,0,0,0-.46.64,6.65,6.65,0,0,0-.34.77,6.45,6.45,0,0,0-.21.84,6.06,6.06,0,0,0-.07.83,2.11,2.11,0,0,0,.19,1,.67.67,0,0,0,.61.32,1.09,1.09,0,0,0,.4-.07,1.61,1.61,0,0,0,.41-.24,3.88,3.88,0,0,0,.93-1A4.26,4.26,0,0,0,550.16,230.14Zm4,1.13c.18-.79.35-1.58.53-2.36s.32-1.39.43-1.81a4.93,4.93,0,0,0,.14-.92.69.69,0,0,0,0-.22.27.27,0,0,0-.12-.14.53.53,0,0,0-.25-.08l-.4,0,.09-.42,1.7-.07h.44c-.25,1.15-.49,2.19-.7,3.15l-.69,3.14c-.06.25-.1.45-.13.59a2.75,2.75,0,0,0,0,.38.51.51,0,0,0,.09.34.37.37,0,0,0,.29.11.64.64,0,0,0,.23,0,.78.78,0,0,0,.23-.13l.28-.24.34-.35.4.41c-.21.21-.4.4-.57.55a2.9,2.9,0,0,1-.49.36,1.57,1.57,0,0,1-.46.21,1.85,1.85,0,0,1-.48.07.93.93,0,0,1-.42-.09,1,1,0,0,1-.33-.24,1.07,1.07,0,0,1-.21-.36,1.35,1.35,0,0,1-.07-.46,4.31,4.31,0,0,1,0-.57C554,231.81,554.07,231.55,554.14,231.27Z"/><rect class="c" x="519.18" y="212.88" width="41.33" height="1.13"/><path class="c" d="M564.72,214.25a10.62,10.62,0,0,0-1-4.76,4.89,4.89,0,0,0-2.94-2.55l.23-.65a6.08,6.08,0,0,1,3.8,2.82,10.93,10.93,0,0,1,0,10.45,6.14,6.14,0,0,1-3.8,2.81l-.21-.65a4.87,4.87,0,0,0,2.91-2.58A10.92,10.92,0,0,0,564.72,214.25Z"/><path class="b" d="M373.31,264.51a6,6,0,0,0-1.22-.15c-.81,0-1.21.42-1.21,1.27v.9h2.27v.75h-2.27V271H370v-3.68H368.3v-.75H370v-.85q0-2.07,2.16-2.07a6.66,6.66,0,0,1,1.19.12Z"/><path class="b" d="M376.24,264.41h-1.53v-.74h2.44v6.54h1.54V271h-4.15v-.75h1.7Z"/><path class="b" d="M384.75,268.33a3.48,3.48,0,0,1-.17,1.1,2.48,2.48,0,0,1-.49.86,2.29,2.29,0,0,1-.78.56,2.68,2.68,0,0,1-1,.2,2.79,2.79,0,0,1-1-.17,2,2,0,0,1-.75-.51,2.31,2.31,0,0,1-.47-.83,3.61,3.61,0,0,1-.16-1.14,3.48,3.48,0,0,1,.17-1.1,2.51,2.51,0,0,1,.49-.86,2.09,2.09,0,0,1,.78-.55,2.44,2.44,0,0,1,1-.2,2.87,2.87,0,0,1,1,.17,1.93,1.93,0,0,1,.74.51,2,2,0,0,1,.47.82A3.6,3.6,0,0,1,384.75,268.33Zm-.92,0a3,3,0,0,0-.11-.84,1.69,1.69,0,0,0-.3-.6,1.22,1.22,0,0,0-.48-.36,1.52,1.52,0,0,0-.62-.12,1.35,1.35,0,0,0-.69.16,1.27,1.27,0,0,0-.47.42,1.89,1.89,0,0,0-.27.61,2.87,2.87,0,0,0-.08.73,3,3,0,0,0,.1.84,1.69,1.69,0,0,0,.3.6,1.22,1.22,0,0,0,.48.36,1.54,1.54,0,0,0,.63.12,1.38,1.38,0,0,0,.69-.16,1.24,1.24,0,0,0,.46-.42,1.48,1.48,0,0,0,.27-.61A2.86,2.86,0,0,0,383.83,268.37Z"/><path class="b" d="M389.33,271l0-.7a2.69,2.69,0,0,1-.86.6,2.23,2.23,0,0,1-.92.19,2.37,2.37,0,0,1-.75-.11,1.35,1.35,0,0,1-.52-.32,1.08,1.08,0,0,1-.3-.46,1.86,1.86,0,0,1-.1-.58,1.46,1.46,0,0,1,.58-1.22,2.78,2.78,0,0,1,1.72-.44h1.07v-.46a1,1,0,0,0-.29-.73,1.26,1.26,0,0,0-.9-.28,3.55,3.55,0,0,0-.86.1,5.26,5.26,0,0,0-.88.28V266l.38-.12.44-.11a3.46,3.46,0,0,1,.48-.07,4.36,4.36,0,0,1,.51,0,3.2,3.2,0,0,1,.85.1,1.69,1.69,0,0,1,.63.31,1.34,1.34,0,0,1,.4.54,1.73,1.73,0,0,1,.14.75V271Zm-.1-2.36h-1.14a2,2,0,0,0-.58.07,1,1,0,0,0-.39.19.71.71,0,0,0-.23.29,1,1,0,0,0-.08.39.93.93,0,0,0,.05.29.61.61,0,0,0,.15.24.73.73,0,0,0,.27.17,1.16,1.16,0,0,0,.4.06,1.68,1.68,0,0,0,.71-.19,3.33,3.33,0,0,0,.84-.59Z"/><path class="b" d="M395.94,270.88a4.13,4.13,0,0,1-.63.12l-.66,0a2.12,2.12,0,0,1-1.46-.44,1.81,1.81,0,0,1-.47-1.36v-2.7h-1.45v-.75h1.45v-1.42l.89-.24v1.66h2.33v.75h-2.33v2.63a1.1,1.1,0,0,0,.3.84,1.26,1.26,0,0,0,.87.27,3.44,3.44,0,0,0,.54,0,3.75,3.75,0,0,0,.62-.12Z"/><path d="M406.59,271l0-.7a2.59,2.59,0,0,1-.86.6,2.18,2.18,0,0,1-.91.19,2.39,2.39,0,0,1-.76-.11,1.43,1.43,0,0,1-.52-.32,1.31,1.31,0,0,1-.3-.46,1.85,1.85,0,0,1-.09-.58,1.43,1.43,0,0,1,.58-1.22,2.77,2.77,0,0,1,1.71-.44h1.08v-.46a.94.94,0,0,0-.3-.73,1.23,1.23,0,0,0-.9-.28,3.55,3.55,0,0,0-.86.1,5.57,5.57,0,0,0-.88.28V266l.38-.12.44-.11a3.85,3.85,0,0,1,.49-.07,4.24,4.24,0,0,1,.51,0,3.12,3.12,0,0,1,.84.1,1.74,1.74,0,0,1,.64.31,1.44,1.44,0,0,1,.4.54,1.89,1.89,0,0,1,.14.75V271Zm-.09-2.36h-1.14a2,2,0,0,0-.58.07,1.14,1.14,0,0,0-.4.19.8.8,0,0,0-.23.29,1,1,0,0,0-.07.39.92.92,0,0,0,0,.29.61.61,0,0,0,.15.24.73.73,0,0,0,.27.17,1.2,1.2,0,0,0,.4.06,1.61,1.61,0,0,0,.71-.19,3.36,3.36,0,0,0,.85-.59Z"/><path d="M410.8,264.41h-1.54v-.74h2.44v6.54h1.54V271h-4.15v-.75h1.71Z"/><path d="M419.22,268.28a3.6,3.6,0,0,1-.19,1.2,2.34,2.34,0,0,1-.54.86,2.15,2.15,0,0,1-.8.51,3,3,0,0,1-1,.17,4,4,0,0,1-.49,0,3.05,3.05,0,0,1-.5-.08v2.16h-.89v-7.29h.79l.06.87a2.22,2.22,0,0,1,.83-.75,2.12,2.12,0,0,1,.94-.21,1.61,1.61,0,0,1,.78.18,1.69,1.69,0,0,1,.57.53,2.5,2.5,0,0,1,.34.81A5,5,0,0,1,419.22,268.28Zm-.92,0a4.38,4.38,0,0,0-.06-.75,1.8,1.8,0,0,0-.19-.58.94.94,0,0,0-.33-.38.83.83,0,0,0-.48-.14,1.06,1.06,0,0,0-.34.06,1,1,0,0,0-.36.18,2.24,2.24,0,0,0-.4.33,5.12,5.12,0,0,0-.45.52v2.51a3.13,3.13,0,0,0,.52.16,2.55,2.55,0,0,0,.54.06,1.41,1.41,0,0,0,1.14-.49A2.29,2.29,0,0,0,418.3,268.32Z"/><path d="M424.72,271h-.9v-3.31a1.46,1.46,0,0,0-.22-.89.75.75,0,0,0-.64-.3,1.21,1.21,0,0,0-.34.05,1,1,0,0,0-.33.17,2.59,2.59,0,0,0-.37.33c-.13.13-.29.31-.46.51V271h-.9v-7.29h.9v2.11l0,.81a3.29,3.29,0,0,1,.41-.42,2,2,0,0,1,.41-.28,1.59,1.59,0,0,1,.41-.16,2.12,2.12,0,0,1,.44,0,1.5,1.5,0,0,1,1.2.47,2.08,2.08,0,0,1,.42,1.42Z"/><path d="M429.65,271l0-.7a2.69,2.69,0,0,1-.86.6,2.23,2.23,0,0,1-.92.19,2.37,2.37,0,0,1-.75-.11,1.35,1.35,0,0,1-.52-.32,1.08,1.08,0,0,1-.3-.46,1.61,1.61,0,0,1-.1-.58,1.46,1.46,0,0,1,.58-1.22,2.78,2.78,0,0,1,1.72-.44h1.07v-.46a1,1,0,0,0-.29-.73,1.26,1.26,0,0,0-.9-.28,3.55,3.55,0,0,0-.86.1,5.26,5.26,0,0,0-.88.28V266l.38-.12.44-.11a3.46,3.46,0,0,1,.48-.07,4.36,4.36,0,0,1,.51,0,3.2,3.2,0,0,1,.85.1,1.69,1.69,0,0,1,.63.31,1.34,1.34,0,0,1,.4.54,1.73,1.73,0,0,1,.14.75V271Zm-.1-2.36h-1.14a2,2,0,0,0-.58.07,1,1,0,0,0-.39.19.71.71,0,0,0-.23.29,1,1,0,0,0-.08.39.93.93,0,0,0,.05.29.61.61,0,0,0,.15.24.73.73,0,0,0,.27.17,1.16,1.16,0,0,0,.4.06,1.68,1.68,0,0,0,.71-.19,3.33,3.33,0,0,0,.84-.59Z"/><path d="M442.15,267.63h-4.44v-.76h4.44Zm0,1.79h-4.44v-.76h4.44Z"/><path d="M452.81,271l0-.7a2.69,2.69,0,0,1-.86.6,2.23,2.23,0,0,1-.92.19,2.37,2.37,0,0,1-.75-.11,1.35,1.35,0,0,1-.52-.32,1.08,1.08,0,0,1-.3-.46,1.86,1.86,0,0,1-.1-.58,1.46,1.46,0,0,1,.58-1.22,2.78,2.78,0,0,1,1.72-.44h1.07v-.46a1,1,0,0,0-.29-.73,1.26,1.26,0,0,0-.9-.28,3.55,3.55,0,0,0-.86.1,5.26,5.26,0,0,0-.88.28V266l.38-.12.44-.11a3.46,3.46,0,0,1,.48-.07,4.36,4.36,0,0,1,.51,0,3.2,3.2,0,0,1,.85.1,1.69,1.69,0,0,1,.63.31,1.34,1.34,0,0,1,.4.54,1.73,1.73,0,0,1,.14.75V271Zm-.1-2.36h-1.14a2,2,0,0,0-.58.07,1,1,0,0,0-.39.19.71.71,0,0,0-.23.29,1,1,0,0,0-.08.39.93.93,0,0,0,0,.29.61.61,0,0,0,.15.24.73.73,0,0,0,.27.17,1.16,1.16,0,0,0,.4.06,1.68,1.68,0,0,0,.71-.19,3.33,3.33,0,0,0,.84-.59Z"/><path d="M459.42,270.88a4.38,4.38,0,0,1-.63.12l-.66,0a2.12,2.12,0,0,1-1.46-.44,1.81,1.81,0,0,1-.47-1.36v-2.7h-1.45v-.75h1.45v-1.42l.89-.24v1.66h2.33v.75h-2.33v2.63a1.1,1.1,0,0,0,.3.84,1.26,1.26,0,0,0,.87.27,3.44,3.44,0,0,0,.54,0,3.75,3.75,0,0,0,.62-.12Z"/><path d="M464.34,271l0-.7a2.81,2.81,0,0,1-.86.6,2.23,2.23,0,0,1-.92.19,2.44,2.44,0,0,1-.76-.11,1.31,1.31,0,0,1-.51-.32,1.08,1.08,0,0,1-.3-.46,1.61,1.61,0,0,1-.1-.58,1.43,1.43,0,0,1,.58-1.22,2.78,2.78,0,0,1,1.72-.44h1.07v-.46a.94.94,0,0,0-.3-.73,1.22,1.22,0,0,0-.89-.28,3.63,3.63,0,0,0-.87.1,5.91,5.91,0,0,0-.88.28V266l.38-.12.44-.11a3.85,3.85,0,0,1,.49-.07,4.36,4.36,0,0,1,.51,0,3.12,3.12,0,0,1,.84.1,1.66,1.66,0,0,1,.64.31,1.34,1.34,0,0,1,.4.54,1.89,1.89,0,0,1,.14.75V271Zm-.1-2.36H463.1a2,2,0,0,0-.58.07,1.14,1.14,0,0,0-.4.19.8.8,0,0,0-.23.29,1,1,0,0,0-.07.39.93.93,0,0,0,.05.29.61.61,0,0,0,.15.24.62.62,0,0,0,.26.17,1.22,1.22,0,0,0,.41.06,1.68,1.68,0,0,0,.71-.19,3.51,3.51,0,0,0,.84-.59Z"/><path d="M466.77,265.78h.8l0,.84a3.79,3.79,0,0,1,.44-.45,3.13,3.13,0,0,1,.41-.29,1.77,1.77,0,0,1,.42-.15,2.12,2.12,0,0,1,.44,0,1.51,1.51,0,0,1,1.21.47,2.13,2.13,0,0,1,.41,1.42V271H470v-3.31a1.49,1.49,0,0,0-.23-.9.8.8,0,0,0-.67-.29,1.26,1.26,0,0,0-.33.05,1.11,1.11,0,0,0-.32.17,2.15,2.15,0,0,0-.37.33c-.13.13-.28.31-.45.51V271h-.9Z"/><path d="M476.91,271h-4.44v-.81l1.74-1.73c.29-.28.52-.53.7-.73a4.09,4.09,0,0,0,.42-.57,1.89,1.89,0,0,0,.2-.48,2.46,2.46,0,0,0,.05-.49,1.49,1.49,0,0,0-.07-.47,1,1,0,0,0-.2-.39A1,1,0,0,0,475,265a1.27,1.27,0,0,0-.54-.1,1.54,1.54,0,0,0-.77.19,2.78,2.78,0,0,0-.65.49l-.49-.59a2.81,2.81,0,0,1,.88-.64,2.6,2.6,0,0,1,1.15-.25,2.35,2.35,0,0,1,.82.14,1.81,1.81,0,0,1,.64.39,1.64,1.64,0,0,1,.41.61,2.19,2.19,0,0,1,.15.83,2.37,2.37,0,0,1-.1.72,2.61,2.61,0,0,1-.32.65,4.25,4.25,0,0,1-.52.68c-.21.24-.46.49-.75.77l-1.22,1.19h3.27Z"/><path d="M481.4,273.12a6.14,6.14,0,0,1-2.25-6.11,5.7,5.7,0,0,1,.41-1.25,6.24,6.24,0,0,1,.74-1.24,9,9,0,0,1,1.12-1.24l.52.53a6.06,6.06,0,0,0-2,4.38,5.43,5.43,0,0,0,.51,2.3,7,7,0,0,0,1.49,2.08Z"/><path d="M487.79,266.51a1.42,1.42,0,0,1,.23.42,1.77,1.77,0,0,1,.08.52,1.73,1.73,0,0,1-.56,1.31,2,2,0,0,1-.65.36,2.39,2.39,0,0,1-.82.14,2.92,2.92,0,0,1-.61-.07A1.61,1.61,0,0,1,485,269a2.79,2.79,0,0,0-.16.28.54.54,0,0,0-.07.29.37.37,0,0,0,.19.32.92.92,0,0,0,.5.14l1.36,0a3.12,3.12,0,0,1,.71.1,1.86,1.86,0,0,1,.57.25,1.29,1.29,0,0,1,.36.41,1.13,1.13,0,0,1,.13.56,1.52,1.52,0,0,1-.15.66,1.55,1.55,0,0,1-.46.54,2.32,2.32,0,0,1-.79.37,3.86,3.86,0,0,1-1.14.14A4.69,4.69,0,0,1,485,273a2.17,2.17,0,0,1-.72-.28,1.2,1.2,0,0,1-.42-.42,1.19,1.19,0,0,1-.12-.54,1.2,1.2,0,0,1,.17-.66,2,2,0,0,1,.54-.54,1.34,1.34,0,0,1-.23-.16.74.74,0,0,1-.16-.2A1.17,1.17,0,0,1,484,270a1,1,0,0,1,0-.24,1.25,1.25,0,0,1,.15-.61,3.22,3.22,0,0,1,.38-.53l-.18-.23a2.09,2.09,0,0,1-.21-.53,1.83,1.83,0,0,1,0-.35,1.73,1.73,0,0,1,.15-.73,1.81,1.81,0,0,1,.41-.57,1.92,1.92,0,0,1,.64-.37,2.45,2.45,0,0,1,.83-.13l.37,0,.31.07h1.87v.73Zm-3.11,5.19a.56.56,0,0,0,.38.54,2.76,2.76,0,0,0,1.06.17,2.86,2.86,0,0,0,.72-.08,1.28,1.28,0,0,0,.47-.21.85.85,0,0,0,.26-.28.8.8,0,0,0,.07-.34.49.49,0,0,0-.25-.46,1.88,1.88,0,0,0-.79-.18l-1.35,0a1.82,1.82,0,0,0-.29.22.87.87,0,0,0-.17.22,1,1,0,0,0-.09.22A1.64,1.64,0,0,0,484.68,271.7Zm.27-4.23a1.34,1.34,0,0,0,.08.46,1.21,1.21,0,0,0,.24.35,1,1,0,0,0,.35.22,1.33,1.33,0,0,0,.45.08,1.21,1.21,0,0,0,.48-.09,1,1,0,0,0,.35-.25,1.15,1.15,0,0,0,.22-.35,1.2,1.2,0,0,0,.07-.42,1.33,1.33,0,0,0-.08-.45,1,1,0,0,0-.23-.35,1.11,1.11,0,0,0-.36-.23,1.25,1.25,0,0,0-.45-.08,1.06,1.06,0,0,0-.48.1,1.21,1.21,0,0,0-.35.24,1.13,1.13,0,0,0-.21.35A1.25,1.25,0,0,0,485,267.47Z"/><path d="M494.44,268.33a3.48,3.48,0,0,1-.17,1.1,2.33,2.33,0,0,1-.49.86,2.11,2.11,0,0,1-.78.56,2.61,2.61,0,0,1-1,.2,2.87,2.87,0,0,1-1-.17,2.07,2.07,0,0,1-1.21-1.34,3.6,3.6,0,0,1-.17-1.14,3.48,3.48,0,0,1,.17-1.1,2.68,2.68,0,0,1,.49-.86,2.26,2.26,0,0,1,.78-.55,2.51,2.51,0,0,1,1-.2,2.79,2.79,0,0,1,1,.17,1.89,1.89,0,0,1,.75.51,2.26,2.26,0,0,1,.47.82A3.61,3.61,0,0,1,494.44,268.33Zm-.92,0a3,3,0,0,0-.1-.84,1.69,1.69,0,0,0-.3-.6,1.22,1.22,0,0,0-.48-.36,1.61,1.61,0,0,0-.63-.12,1.35,1.35,0,0,0-.69.16,1.24,1.24,0,0,0-.46.42,1.54,1.54,0,0,0-.27.61,2.86,2.86,0,0,0-.09.73,3,3,0,0,0,.11.84,1.69,1.69,0,0,0,.3.6,1.26,1.26,0,0,0,.47.36,1.61,1.61,0,0,0,.63.12,1.35,1.35,0,0,0,.69-.16,1.27,1.27,0,0,0,.47-.42,1.8,1.8,0,0,0,.27-.61A3.4,3.4,0,0,0,493.52,268.37Z"/><path d="M499,271l0-.7a2.59,2.59,0,0,1-.86.6,2.18,2.18,0,0,1-.91.19,2.39,2.39,0,0,1-.76-.11,1.43,1.43,0,0,1-.52-.32,1.31,1.31,0,0,1-.3-.46,1.85,1.85,0,0,1-.09-.58,1.43,1.43,0,0,1,.58-1.22,2.77,2.77,0,0,1,1.71-.44h1.08v-.46a.94.94,0,0,0-.3-.73,1.22,1.22,0,0,0-.89-.28,3.57,3.57,0,0,0-.87.1,5.57,5.57,0,0,0-.88.28V266l.38-.12.44-.11a3.85,3.85,0,0,1,.49-.07,4.24,4.24,0,0,1,.51,0,3.12,3.12,0,0,1,.84.1,1.74,1.74,0,0,1,.64.31,1.44,1.44,0,0,1,.4.54,1.89,1.89,0,0,1,.14.75V271Zm-.09-2.36h-1.14a2,2,0,0,0-.58.07,1.14,1.14,0,0,0-.4.19.8.8,0,0,0-.23.29,1,1,0,0,0-.07.39.92.92,0,0,0,0,.29.75.75,0,0,0,.15.24.73.73,0,0,0,.27.17,1.2,1.2,0,0,0,.4.06,1.61,1.61,0,0,0,.71-.19,3.36,3.36,0,0,0,.85-.59Z"/><path d="M503.23,264.41h-1.54v-.74h2.44v6.54h1.54V271h-4.15v-.75h1.71Z"/><path d="M512.21,273.07H506.4v-.74h5.81Z"/><path d="M517.59,265.78l-1.76,4.63a9.46,9.46,0,0,1-.56,1.22,3.86,3.86,0,0,1-.64.84,2.44,2.44,0,0,1-.76.48,2.65,2.65,0,0,1-.92.15h-.24l-.24,0v-.81l.25,0,.28,0a1.7,1.7,0,0,0,.46-.07,1.33,1.33,0,0,0,.41-.24,2.61,2.61,0,0,0,.36-.42,3.92,3.92,0,0,0,.34-.62l-2.07-5.18h1l1.31,3.42.26.81.3-.83,1.21-3.4Z"/><path d="M519.15,272a1.8,1.8,0,0,0,.52,0,1.68,1.68,0,0,0,.43-.17.81.81,0,0,0,.3-.28.61.61,0,0,0,.12-.37.7.7,0,0,0-.08-.35,1.38,1.38,0,0,0-.17-.25l-.16-.24A.7.7,0,0,1,520,270a1,1,0,0,1,0-.23.67.67,0,0,1,.13-.21.6.6,0,0,1,.22-.16.71.71,0,0,1,.31-.06.87.87,0,0,1,.35.07.8.8,0,0,1,.29.23,1.19,1.19,0,0,1,.2.39,1.71,1.71,0,0,1,.08.54,2.35,2.35,0,0,1-.16.83,2.16,2.16,0,0,1-.47.7,2.34,2.34,0,0,1-.78.48,3,3,0,0,1-1.09.18Z"/><path d="M534,266.51a1.4,1.4,0,0,1,.22.42,1.49,1.49,0,0,1,.08.52,2,2,0,0,1-.14.74,1.69,1.69,0,0,1-.42.57,1.9,1.9,0,0,1-.64.36,2.39,2.39,0,0,1-.82.14,2.92,2.92,0,0,1-.61-.07,1.61,1.61,0,0,1-.45-.18,3,3,0,0,0-.17.28.65.65,0,0,0-.06.29.37.37,0,0,0,.19.32.89.89,0,0,0,.49.14l1.36,0a3.21,3.21,0,0,1,.72.1,1.8,1.8,0,0,1,.56.25,1.21,1.21,0,0,1,.37.41,1.25,1.25,0,0,1,.13.56,1.52,1.52,0,0,1-.15.66,1.66,1.66,0,0,1-.46.54,2.32,2.32,0,0,1-.79.37,3.86,3.86,0,0,1-1.14.14,4.69,4.69,0,0,1-1.07-.1,2.14,2.14,0,0,1-.73-.28,1.09,1.09,0,0,1-.41-.42,1.08,1.08,0,0,1-.13-.54,1.21,1.21,0,0,1,.18-.66,1.73,1.73,0,0,1,.54-.54,1.43,1.43,0,0,1-.24-.16,1.56,1.56,0,0,1-.16-.2,1.17,1.17,0,0,1-.09-.24,1,1,0,0,1,0-.24,1.16,1.16,0,0,1,.16-.61,3.16,3.16,0,0,1,.37-.53l-.17-.23a2,2,0,0,1-.13-.25,1.15,1.15,0,0,1-.08-.28,1.83,1.83,0,0,1,0-.35,1.73,1.73,0,0,1,.15-.73,1.54,1.54,0,0,1,.41-.57,1.92,1.92,0,0,1,.64-.37,2.41,2.41,0,0,1,.83-.13l.36,0,.31.07h1.88v.73Zm-3.12,5.19a.56.56,0,0,0,.39.54,2.69,2.69,0,0,0,1.06.17,3,3,0,0,0,.72-.08,1.36,1.36,0,0,0,.47-.21.82.82,0,0,0,.25-.28.81.81,0,0,0,.08-.34.5.5,0,0,0-.26-.46,1.8,1.8,0,0,0-.79-.18l-1.35,0a1.71,1.71,0,0,0-.28.22.87.87,0,0,0-.17.22,1,1,0,0,0-.09.22A.83.83,0,0,0,530.89,271.7Zm.28-4.23a1.14,1.14,0,0,0,.08.46,1,1,0,0,0,.23.35,1.15,1.15,0,0,0,.35.22,1.34,1.34,0,0,0,.46.08,1.19,1.19,0,0,0,.47-.09.9.9,0,0,0,.35-.25,1,1,0,0,0,.22-.35,1.2,1.2,0,0,0,.07-.42,1.12,1.12,0,0,0-.08-.45.86.86,0,0,0-.23-.35,1.18,1.18,0,0,0-.35-.23,1.33,1.33,0,0,0-.45-.08,1.06,1.06,0,0,0-.48.1,1,1,0,0,0-.57.59A1.23,1.23,0,0,0,531.17,267.47Z"/><path d="M540.55,268.33a3.48,3.48,0,0,1-.17,1.1,2.33,2.33,0,0,1-.49.86,2.11,2.11,0,0,1-.78.56,2.61,2.61,0,0,1-1,.2,2.87,2.87,0,0,1-1-.17,2,2,0,0,1-1.21-1.34,3.6,3.6,0,0,1-.17-1.14,3.48,3.48,0,0,1,.17-1.1,2.68,2.68,0,0,1,.49-.86,2.26,2.26,0,0,1,.78-.55,2.48,2.48,0,0,1,1-.2,2.83,2.83,0,0,1,1,.17,2,2,0,0,1,.75.51,2.26,2.26,0,0,1,.47.82A3.61,3.61,0,0,1,540.55,268.33Zm-.92,0a3,3,0,0,0-.1-.84,1.69,1.69,0,0,0-.3-.6,1.29,1.29,0,0,0-.48-.36,1.61,1.61,0,0,0-.63-.12A1.35,1.35,0,0,0,537,267a1.68,1.68,0,0,0-.26.61,2.86,2.86,0,0,0-.09.73,3,3,0,0,0,.11.84,1.69,1.69,0,0,0,.3.6,1.26,1.26,0,0,0,.47.36,1.61,1.61,0,0,0,.63.12,1.35,1.35,0,0,0,.69-.16,1.27,1.27,0,0,0,.47-.42,1.8,1.8,0,0,0,.27-.61A3.4,3.4,0,0,0,539.63,268.37Z"/><path d="M545.13,271l0-.7a2.69,2.69,0,0,1-.86.6,2.18,2.18,0,0,1-.91.19,2.39,2.39,0,0,1-.76-.11,1.43,1.43,0,0,1-.52-.32,1.31,1.31,0,0,1-.3-.46,1.85,1.85,0,0,1-.09-.58,1.43,1.43,0,0,1,.58-1.22,2.75,2.75,0,0,1,1.71-.44H545v-.46a.94.94,0,0,0-.3-.73,1.23,1.23,0,0,0-.9-.28,3.55,3.55,0,0,0-.86.1,5.57,5.57,0,0,0-.88.28V266l.38-.12.44-.11a3.85,3.85,0,0,1,.49-.07,4.12,4.12,0,0,1,.51,0,3.12,3.12,0,0,1,.84.1,1.74,1.74,0,0,1,.64.31,1.44,1.44,0,0,1,.4.54,1.89,1.89,0,0,1,.14.75V271ZM545,268.6H543.9a2,2,0,0,0-.58.07,1.06,1.06,0,0,0-.4.19.8.8,0,0,0-.23.29,1,1,0,0,0-.07.39.92.92,0,0,0,0,.29.61.61,0,0,0,.15.24.73.73,0,0,0,.27.17,1.2,1.2,0,0,0,.4.06,1.61,1.61,0,0,0,.71-.19,3.36,3.36,0,0,0,.85-.59Z"/><path d="M549.33,264.41H547.8v-.74h2.44v6.54h1.54V271h-4.15v-.75h1.7Z"/><path d="M558.32,273.07h-5.81v-.74h5.81Z"/><path d="M563.76,271h-1.19l-1.39-2-1.39,2h-1.16l2-2.6-1.91-2.58h1.15l1.36,2,1.33-2h1.11l-1.94,2.6Z"/><path d="M566,263.28a6.56,6.56,0,0,1,2.38,4.9,6.67,6.67,0,0,1-.11,1.15,6.23,6.23,0,0,1-.39,1.23,7.23,7.23,0,0,1-.73,1.27,8.53,8.53,0,0,1-1.17,1.29l-.52-.53a7,7,0,0,0,1.5-2.08,5.37,5.37,0,0,0,.5-2.27,6.06,6.06,0,0,0-2-4.41Z"/><path class="i" d="M229.15,191.92A6.1,6.1,0,0,1,229,193a2.37,2.37,0,0,1-.39.86,2.18,2.18,0,0,1-.88.72,2.69,2.69,0,0,1-1.15.24,3,3,0,0,1-1.05-.18,2.34,2.34,0,0,1-1.37-1.36,2.89,2.89,0,0,1-.19-1.05,3,3,0,0,1,.19-1.07,2.32,2.32,0,0,1,.55-.84,2.47,2.47,0,0,1,.84-.54,3.14,3.14,0,0,1,1.08-.18,2.51,2.51,0,0,1,1.33.34,2.25,2.25,0,0,1,.88,1l-1.21.5a1.27,1.27,0,0,0-.41-.57,1,1,0,0,0-.65-.21,1.09,1.09,0,0,0-.54.14,1.12,1.12,0,0,0-.4.35,1.8,1.8,0,0,0-.25.5,2,2,0,0,0,0,1.12,1.67,1.67,0,0,0,.25.5,1.25,1.25,0,0,0,.41.35,1.23,1.23,0,0,0,.55.12,1.1,1.1,0,0,0,.71-.22.84.84,0,0,0,.32-.63h-1v-1Z"/><path class="i" d="M232.23,191.33a2.39,2.39,0,0,1,.65.35,1.59,1.59,0,0,1,.43.56,1.73,1.73,0,0,1,.16.76,1.64,1.64,0,0,1-.16.74,1.59,1.59,0,0,1-.43.56,2,2,0,0,1-.65.35,2.5,2.5,0,0,1-1.53,0,1.81,1.81,0,0,1-.64-.35,1.5,1.5,0,0,1-.44-.56,1.64,1.64,0,0,1-.16-.74,1.73,1.73,0,0,1,.16-.76,1.5,1.5,0,0,1,.44-.56,2.19,2.19,0,0,1,.64-.35,2.5,2.5,0,0,1,1.53,0Zm-1.32,1.13a.72.72,0,0,0-.2.54.72.72,0,0,0,.2.53.75.75,0,0,0,.56.21.74.74,0,0,0,.55-.21.79.79,0,0,0,0-1.07.71.71,0,0,0-.55-.22A.72.72,0,0,0,230.91,192.46Z"/><path class="i" d="M237.65,194.66h-1.18v-.37h0a1.09,1.09,0,0,1-.43.36,1.4,1.4,0,0,1-.58.12,1.67,1.67,0,0,1-.67-.14,1.5,1.5,0,0,1-.54-.39,1.87,1.87,0,0,1-.35-.57,2,2,0,0,1-.12-.68,1.91,1.91,0,0,1,.12-.68,1.73,1.73,0,0,1,.34-.57,1.78,1.78,0,0,1,.54-.39,1.6,1.6,0,0,1,.67-.14,1.42,1.42,0,0,1,.57.12,1.16,1.16,0,0,1,.46.32v-.32h1.18Zm-2.46-2.2a.72.72,0,0,0-.2.54.72.72,0,0,0,.2.53.75.75,0,0,0,.56.21.72.72,0,0,0,.76-.74.73.73,0,0,0-.21-.54.69.69,0,0,0-.55-.22A.72.72,0,0,0,235.19,192.46Z"/><path class="i" d="M239.62,194.66h-1.18v-5.39h1.18Z"/></svg>