<svg xmlns="http://www.w3.org/2000/svg" viewBox="0 0 600 600"><defs><style>.a{fill:#fec111;}.b,.e,.f{fill:none;stroke:#fec111;stroke-linecap:round;stroke-linejoin:round;}.b{stroke-width:5px;}.c{fill:#32aec5;}.d{fill:#08374a;}.e{stroke-width:4px;}.f{stroke-width:2px;}.g{fill:#ef4638;}.h{fill:#fff;stroke:#e0e0e0;stroke-miterlimit:10;}</style></defs><path class="a" d="M141.89,508.24a2.46,2.46,0,0,1-1.32-.38,2.5,2.5,0,0,1-.8-3.44l2.11-3.4a2.5,2.5,0,0,1,4.24,2.64l-2.11,3.4A2.5,2.5,0,0,1,141.89,508.24Z"/><path class="a" d="M148.3,497.92a2.54,2.54,0,0,1-1.32-.37,2.51,2.51,0,0,1-.8-3.45l4.3-6.92a2.5,2.5,0,0,1,4.25,2.64l-4.31,6.92A2.5,2.5,0,0,1,148.3,497.92Zm8.6-13.84a2.54,2.54,0,0,1-1.32-.37,2.51,2.51,0,0,1-.8-3.45l4.3-6.92a2.5,2.5,0,0,1,4.25,2.64L159,482.9A2.52,2.52,0,0,1,156.9,484.08Zm8.6-13.84a2.46,2.46,0,0,1-1.32-.38,2.5,2.5,0,0,1-.8-3.44l4.3-6.92a2.5,2.5,0,0,1,4.25,2.64l-4.3,6.92A2.51,2.51,0,0,1,165.5,470.24Zm8.6-13.84a2.43,2.43,0,0,1-1.31-.38,2.49,2.49,0,0,1-.81-3.44l4.3-6.92a2.5,2.5,0,0,1,4.25,2.64l-4.3,6.92A2.51,2.51,0,0,1,174.1,456.4Zm8.6-13.84a2.43,2.43,0,0,1-1.31-.38,2.49,2.49,0,0,1-.81-3.44l4.3-6.92a2.5,2.5,0,1,1,4.25,2.64l-4.3,6.92A2.5,2.5,0,0,1,182.7,442.56Zm8.6-13.84a2.43,2.43,0,0,1-1.31-.38,2.5,2.5,0,0,1-.81-3.44l4.3-6.92a2.5,2.5,0,1,1,4.25,2.64l-4.3,6.92A2.5,2.5,0,0,1,191.3,428.72Zm8.61-13.84a2.55,2.55,0,0,1-1.32-.38,2.51,2.51,0,0,1-.81-3.44l4.31-6.92a2.49,2.49,0,1,1,4.24,2.63L202,413.7A2.5,2.5,0,0,1,199.91,414.88Zm8.6-13.84a2.55,2.55,0,0,1-1.32-.38,2.5,2.5,0,0,1-.8-3.44l4.3-6.93a2.5,2.5,0,0,1,4.24,2.64l-4.3,6.92A2.48,2.48,0,0,1,208.51,401Z"/><path class="a" d="M217.11,387.19a2.54,2.54,0,0,1-1.32-.37,2.51,2.51,0,0,1-.8-3.45L217.1,380a2.49,2.49,0,0,1,3.44-.81,2.52,2.52,0,0,1,.81,3.45L219.23,386A2.5,2.5,0,0,1,217.11,387.19Z"/><path class="b" d="M485.31,172.67s51.37-69.1,13.09-125.39"/><path class="b" d="M458.2,469.12s51.37-69.1,13.09-125.39"/><path class="b" d="M474.2,440.67s51.37-69.1,13.09-125.39"/><path class="c" d="M196.75,198.33c-1.18-1.86-.32-2.83,1.48-3.4.76,1.53,3.27,3.26,2.13,5.06C199.61,201,197.66,198.7,196.75,198.33Z"/><path class="c" d="M167.45,179.71c2.19.15,2.64-1.07,2.3-2.92-1.71.05-4.42-1.34-5.47.51C163.72,178.45,166.7,179.08,167.45,179.71Z"/><path class="c" d="M167.63,233.39l-17.89-10.71c-2.82-1.68-3.47-4.36-1.91-8.38C153,201,177.1,165.4,177.1,165.4c1.76-2.94,3.57-3,8.29-2.28,5.16.78,14.33,6.91,17.89,10.71,4.17,4.45,3.67,5.44,1.91,8.39,0,0-19.85,38.23-29.27,48.89C173.28,234.1,170.44,235.08,167.63,233.39Z"/><path class="d" d="M164.31,225.94l-5.15-3.08c-5.91-3.53-10.15-8.49-6.61-14.4L164.23,189c3.54-5.9,6.28-10.25,17.09-4.29,1.32.72,3.91,2.24,5.15,3.08,8.41,5.74,7.83,11.19,4.29,17.1l-11.68,19.51C175.55,230.25,170.21,229.48,164.31,225.94Z"/><path class="c" d="M176.11,230.3l-2.47.61c-.75-7.76-4-11.84-8-13.87a.56.56,0,0,0-.17-.09.91.91,0,0,0-.16-.11c-3.65-2.51-8.8-3.48-16-.48l-.62-2.46s23.37-6.78,20.16-33.68l5-1c-2.57,5.74-2,13.2-1.45,15.28.2.8,2,2.2,4.16,3.49l.33.2c2.15,1.29,4.24,2.22,5,2,2.08-.51,8.94-3.51,12.78-8.49l1.5,4.92C171.05,206.5,176.11,230.3,176.11,230.3Z"/><path class="c" d="M160.87,290.85a2.44,2.44,0,0,1-1.45-.47c-.08-.05-1.93-1.38-4.86-3.82a2.5,2.5,0,1,1,3.19-3.84c2.78,2.31,4.56,3.58,4.57,3.59a2.5,2.5,0,0,1-1.45,4.54Z"/><path class="c" d="M147.07,278.9a2.48,2.48,0,0,1-1.75-.72c-3-3-5.87-6-8.52-9.13a2.5,2.5,0,0,1,3.81-3.25c2.55,3,5.32,6,8.22,8.82a2.5,2.5,0,0,1-1.76,4.28Zm-15.86-18.68a2.52,2.52,0,0,1-2.06-1.08,104.85,104.85,0,0,1-6.55-10.72,2.5,2.5,0,1,1,4.43-2.33,98.62,98.62,0,0,0,6.23,10.2,2.51,2.51,0,0,1-2,3.93ZM119.9,238.53a2.5,2.5,0,0,1-2.37-1.68,70.48,70.48,0,0,1-3.1-12.31,2.5,2.5,0,0,1,4.95-.76,63.39,63.39,0,0,0,2.88,11.43,2.5,2.5,0,0,1-1.54,3.18A2.36,2.36,0,0,1,119.9,238.53Zm-3.59-24.1h-.15a2.5,2.5,0,0,1-2.35-2.64,59.59,59.59,0,0,1,2.11-12.6,2.5,2.5,0,1,1,4.82,1.35,54.18,54.18,0,0,0-1.94,11.54A2.49,2.49,0,0,1,116.31,214.43Zm6.5-23.46a2.42,2.42,0,0,1-1.13-.28,2.5,2.5,0,0,1-1.1-3.36,76.1,76.1,0,0,1,4.67-7.91c.63-.94,1.34-1.91,2.12-2.88a2.5,2.5,0,0,1,3.91,3.11c-.69.87-1.33,1.74-1.88,2.57A69.51,69.51,0,0,0,125,189.6,2.5,2.5,0,0,1,122.81,191Zm15-19.22a2.5,2.5,0,0,1-1.69-4.35c2.69-2.45,5.8-5.08,9.51-8a2.5,2.5,0,1,1,3.12,3.91c-3.63,2.88-6.65,5.44-9.26,7.81A2.48,2.48,0,0,1,137.81,171.75Zm19.12-15.41a2.48,2.48,0,0,1-2-1,2.5,2.5,0,0,1,.5-3.5c3.18-2.38,6.49-4.82,9.89-7.32a2.5,2.5,0,1,1,3,4c-3.39,2.49-6.69,4.92-9.86,7.3A2.54,2.54,0,0,1,156.93,156.34Zm19.75-14.61a2.5,2.5,0,0,1-1.49-4.5c3.64-2.72,6.83-5.13,9.75-7.39a2.5,2.5,0,0,1,3.06,4c-2.95,2.27-6.16,4.71-9.83,7.44A2.49,2.49,0,0,1,176.68,141.73Zm19.41-15a2.49,2.49,0,0,1-1.58-4.43c3.28-2.68,6.4-5.33,9.29-7.88a2.5,2.5,0,0,1,3.31,3.75c-2.94,2.59-6.11,5.28-9.44,8A2.46,2.46,0,0,1,196.09,126.68Zm18.37-16.28a2.5,2.5,0,0,1-1.75-4.29c3-2.92,5.82-5.85,8.41-8.73a2.5,2.5,0,0,1,3.71,3.35c-2.66,3-5.56,6-8.63,9A2.49,2.49,0,0,1,214.46,110.4Zm16.37-18.26a2.55,2.55,0,0,1-1.52-.51,2.51,2.51,0,0,1-.46-3.51c2.52-3.28,4.82-6.6,6.86-9.87A2.5,2.5,0,1,1,240,80.9c-2.12,3.4-4.52,6.86-7.13,10.27A2.5,2.5,0,0,1,230.83,92.14Zm12.86-20.82a2.5,2.5,0,0,1-2.26-3.56,87.05,87.05,0,0,0,4.3-11.09,2.5,2.5,0,0,1,4.78,1.47A90.22,90.22,0,0,1,246,69.88,2.48,2.48,0,0,1,243.69,71.32ZM250.84,48a2.22,2.22,0,0,1-.37,0,2.5,2.5,0,0,1-2.11-2.84,76.25,76.25,0,0,0,.81-11.1v-.71a2.5,2.5,0,1,1,5-.05V34a82.08,82.08,0,0,1-.86,11.83A2.52,2.52,0,0,1,250.84,48Z"/><path class="c" d="M250.63,23.56a2.51,2.51,0,0,1-2.47-2.11c-.3-1.89-.67-3.81-1.11-5.72a2.5,2.5,0,1,1,4.87-1.12c.47,2,.86,4.05,1.18,6.06A2.5,2.5,0,0,1,251,23.53Z"/><line class="b" x1="197.07" y1="165" x2="212.47" y2="127.4"/><polygon class="a" points="217.81 114.33 217.8 135.83 212.06 128.38 202.75 129.67 217.81 114.33"/><path class="d" d="M33.63,81.91v1.51h2.58v2H33.63V89H31.28v-9h5.2v2Z"/><path class="d" d="M42.41,82.82a3.74,3.74,0,0,1,1.18.64,2.93,2.93,0,0,1,.81,1,3.18,3.18,0,0,1,.3,1.39,3.09,3.09,0,0,1-.3,1.37,2.93,2.93,0,0,1-.8,1,3.68,3.68,0,0,1-1.19.64,4.45,4.45,0,0,1-1.42.23A4.74,4.74,0,0,1,39.57,89a3.74,3.74,0,0,1-1.18-.64,2.93,2.93,0,0,1-.81-1,3.11,3.11,0,0,1-.3-1.38,3.18,3.18,0,0,1,.3-1.39,2.93,2.93,0,0,1,.81-1,3.74,3.74,0,0,1,1.18-.64,4.69,4.69,0,0,1,2.84,0ZM40,84.9a1.4,1.4,0,0,0-.37,1,1.37,1.37,0,0,0,.37,1,1.56,1.56,0,0,0,2.06,0,1.37,1.37,0,0,0,.37-1,1.4,1.4,0,0,0-.37-1,1.53,1.53,0,0,0-2.06,0Z"/><path class="d" d="M47.87,89H45.68V79h2.19Z"/><path class="d" d="M51.49,89H49.31V79h2.18Z"/><path class="d" d="M57.6,82.82a3.79,3.79,0,0,1,1.19.64,3.18,3.18,0,0,1,.81,1,3.32,3.32,0,0,1,.29,1.39,3.23,3.23,0,0,1-.29,1.37,3.08,3.08,0,0,1-.81,1,3.58,3.58,0,0,1-1.19.64,4.45,4.45,0,0,1-1.42.23A4.67,4.67,0,0,1,54.77,89a3.68,3.68,0,0,1-1.19-.64,2.93,2.93,0,0,1-.81-1,3.11,3.11,0,0,1-.3-1.38,3.18,3.18,0,0,1,.3-1.39,2.93,2.93,0,0,1,.81-1,3.68,3.68,0,0,1,1.19-.64,4.38,4.38,0,0,1,1.41-.22A4.44,4.44,0,0,1,57.6,82.82ZM55.16,84.9a1.37,1.37,0,0,0-.38,1,1.33,1.33,0,0,0,.38,1,1.35,1.35,0,0,0,1,.39,1.32,1.32,0,0,0,1.41-1.38,1.41,1.41,0,0,0-.38-1,1.34,1.34,0,0,0-1-.4A1.32,1.32,0,0,0,55.16,84.9Z"/><path class="d" d="M63.93,86.14l1.55-3.34h1.3l1.55,3.34,1.54-3.34h2.42L69.07,89H67.65l-1.52-3.37L64.61,89H63.19L60,82.8H62.4Z"/><path class="d" d="M76.17,84.21V86H72.74v-1.8Z"/><path class="d" d="M79.92,89H77.73V84.6H77V82.8h.71V81h2.19V82.8h1.23v1.8H79.92Z"/><path class="d" d="M84,79v4.58h0a2.49,2.49,0,0,1,.86-.74A2.38,2.38,0,0,1,86,82.6a2.12,2.12,0,0,1,1.73.7,2.78,2.78,0,0,1,.59,1.89V89H86.16V85.8a3.13,3.13,0,0,0,0-.56,1.25,1.25,0,0,0-.14-.45.74.74,0,0,0-.3-.33,1,1,0,0,0-.51-.12.94.94,0,0,0-.87.43,1.88,1.88,0,0,0-.27,1V89H81.85V79Z"/><path class="d" d="M96.1,86.25H91.51a1.21,1.21,0,0,0,1.37,1.37,1.12,1.12,0,0,0,1-.57H96a2.44,2.44,0,0,1-1.13,1.57,3.64,3.64,0,0,1-2,.55,3.78,3.78,0,0,1-2.58-.87,3.06,3.06,0,0,1-1-2.41,3.72,3.72,0,0,1,.24-1.37,2.81,2.81,0,0,1,.7-1,3.1,3.1,0,0,1,1.09-.66,4.06,4.06,0,0,1,1.37-.22,3.32,3.32,0,0,1,2.49.92A3.44,3.44,0,0,1,96.1,86Zm-2-1.26a1.15,1.15,0,0,0-.43-.7,1.3,1.3,0,0,0-.81-.27,1.37,1.37,0,0,0-.84.25,1.15,1.15,0,0,0-.46.72Z"/><path class="d" d="M100.45,84.21V86H97v-1.8Z"/><path class="d" d="M106.25,84.81a2.38,2.38,0,0,0-.55-.32,1.66,1.66,0,0,0-.58-.11A1.52,1.52,0,0,0,104.05,87a1.49,1.49,0,0,0,1.1.43,1.7,1.7,0,0,0,.58-.11,1.79,1.79,0,0,0,.52-.31v1.85a3.45,3.45,0,0,1-1.54.35,3.53,3.53,0,0,1-1.29-.25,3.39,3.39,0,0,1-1.07-.67,3.07,3.07,0,0,1-1-2.3,3.49,3.49,0,0,1,.26-1.35,3.23,3.23,0,0,1,1.84-1.76,3.76,3.76,0,0,1,1.35-.24,3,3,0,0,1,1.44.36Z"/><path class="d" d="M114.33,89h-2.18v-.68h0a1.75,1.75,0,0,1-.78.66,2.58,2.58,0,0,1-1.08.23,3,3,0,0,1-2.23-1,3.36,3.36,0,0,1-.87-2.31,3.56,3.56,0,0,1,.22-1.26,3.33,3.33,0,0,1,.64-1.05,3.12,3.12,0,0,1,1-.71,3,3,0,0,1,1.24-.26,2.93,2.93,0,0,1,1.06.2,2.18,2.18,0,0,1,.85.61V82.8h2.18Zm-4.54-4.06a1.41,1.41,0,0,0-.38,1,1.37,1.37,0,0,0,.38,1,1.54,1.54,0,0,0,2,0,1.37,1.37,0,0,0,.38-1,1.41,1.41,0,0,0-.38-1,1.51,1.51,0,0,0-2,0Z"/><path class="d" d="M118,83.81h0a2.09,2.09,0,0,1,.82-.82,2.46,2.46,0,0,1,1.17-.27h.42v2.1a1.45,1.45,0,0,0-.42-.16,2.47,2.47,0,0,0-.5,0,1.32,1.32,0,0,0-1.17.48,2.37,2.37,0,0,0-.34,1.38V89h-2.18V82.8H118Z"/><path class="d" d="M123.4,83.81h0a2.09,2.09,0,0,1,.82-.82,2.46,2.46,0,0,1,1.17-.27h.42v2.1a1.56,1.56,0,0,0-.42-.16,2.53,2.53,0,0,0-.5,0,1.34,1.34,0,0,0-1.18.48,2.44,2.44,0,0,0-.34,1.38V89h-2.18V82.8h2.18Z"/><path class="d" d="M131.11,82.82a3.79,3.79,0,0,1,1.19.64,3.18,3.18,0,0,1,.81,1,3.32,3.32,0,0,1,.29,1.39,3.23,3.23,0,0,1-.29,1.37,3.08,3.08,0,0,1-.81,1,3.63,3.63,0,0,1-1.18.64,4.56,4.56,0,0,1-1.43.23,4.72,4.72,0,0,1-1.41-.22,3.68,3.68,0,0,1-1.19-.64,3.18,3.18,0,0,1-.81-1,3.1,3.1,0,0,1-.29-1.38,3,3,0,0,1,1.1-2.43,3.68,3.68,0,0,1,1.19-.64,4.66,4.66,0,0,1,2.83,0Zm-2.44,2.08a1.41,1.41,0,0,0-.38,1,1.37,1.37,0,0,0,.38,1,1.35,1.35,0,0,0,1,.39,1.32,1.32,0,0,0,1.41-1.38,1.41,1.41,0,0,0-.38-1,1.34,1.34,0,0,0-1-.4A1.32,1.32,0,0,0,128.67,84.9Z"/><path class="d" d="M136.77,89h-2.18V84.6h-.71V82.8h.71V81h2.18V82.8H138v1.8h-1.24Z"/><path class="c" d="M490.87,196.91c-1.18-1.86-.32-2.84,1.48-3.4.76,1.52,3.27,3.25,2.13,5.06C493.73,199.6,491.78,197.27,490.87,196.91Z"/><path class="c" d="M461.57,178.28c2.19.16,2.64-1.06,2.3-2.91-1.71,0-4.42-1.35-5.47.51C457.84,177,460.82,177.65,461.57,178.28Z"/><path class="c" d="M461.74,232l-17.88-10.71c-2.82-1.68-3.47-4.35-1.91-8.38C447.08,199.6,471.22,164,471.22,164c1.76-2.95,3.57-3,8.29-2.28,5.16.77,14.33,6.9,17.89,10.71,4.17,4.44,3.67,5.44,1.91,8.38,0,0-19.85,38.24-29.27,48.89C467.4,232.67,464.56,233.65,461.74,232Z"/><path class="d" d="M458.43,224.52l-5.15-3.09c-5.91-3.53-10.15-8.49-6.61-14.39l11.68-19.52c3.54-5.9,6.28-10.25,17.09-4.29,1.32.73,3.91,2.24,5.15,3.09,8.41,5.73,7.83,11.18,4.29,17.09L473.2,222.92C469.67,228.83,464.33,228.05,458.43,224.52Z"/><path class="c" d="M470.23,228.87l-2.47.62c-.75-7.77-4-11.84-8-13.88l-.17-.09a.91.91,0,0,0-.16-.11c-3.65-2.5-8.8-3.48-16-.48l-.62-2.46S466.2,205.69,463,178.8l5-1c-2.57,5.74-2,13.2-1.45,15.28.2.8,2,2.21,4.16,3.49l.33.2c2.15,1.29,4.24,2.22,5,2,2.08-.52,8.94-3.52,12.78-8.5l1.5,4.92C465.17,205.07,470.23,228.87,470.23,228.87Z"/><path class="c" d="M455,289.42a2.44,2.44,0,0,1-1.45-.47c-.08-.05-1.93-1.37-4.86-3.82a2.5,2.5,0,1,1,3.19-3.84c2.78,2.31,4.55,3.58,4.57,3.6a2.5,2.5,0,0,1-1.45,4.53Z"/><path class="c" d="M441.19,277.47a2.48,2.48,0,0,1-1.75-.72c-3-2.95-5.87-6-8.52-9.13a2.5,2.5,0,0,1,3.81-3.24c2.55,3,5.32,5.95,8.22,8.81a2.51,2.51,0,0,1,0,3.54A2.47,2.47,0,0,1,441.19,277.47Zm-15.86-18.68a2.51,2.51,0,0,1-2.06-1.07A106.07,106.07,0,0,1,416.72,247a2.5,2.5,0,0,1,4.43-2.33,99.81,99.81,0,0,0,6.23,10.21,2.5,2.5,0,0,1-.63,3.48A2.48,2.48,0,0,1,425.33,258.79ZM414,237.1a2.5,2.5,0,0,1-2.36-1.67,70.36,70.36,0,0,1-3.1-12.32,2.5,2.5,0,0,1,4.95-.76,63.18,63.18,0,0,0,2.88,11.43,2.5,2.5,0,0,1-1.54,3.18A2.37,2.37,0,0,1,414,237.1ZM410.43,213h-.15a2.5,2.5,0,0,1-2.35-2.64,59.06,59.06,0,0,1,2.11-12.6,2.5,2.5,0,0,1,4.82,1.35,54.18,54.18,0,0,0-1.94,11.54A2.51,2.51,0,0,1,410.43,213Zm6.5-23.47a2.5,2.5,0,0,1-2.23-3.64,75,75,0,0,1,4.67-7.9c.63-.95,1.35-1.92,2.12-2.89a2.5,2.5,0,1,1,3.91,3.12c-.69.86-1.32,1.73-1.88,2.56a70.53,70.53,0,0,0-4.36,7.38A2.5,2.5,0,0,1,416.93,189.54Zm15-19.22a2.5,2.5,0,0,1-1.69-4.35c2.7-2.46,5.81-5.08,9.51-8a2.51,2.51,0,1,1,3.12,3.92c-3.62,2.87-6.65,5.43-9.26,7.81A2.52,2.52,0,0,1,431.93,170.32Zm19.12-15.4a2.5,2.5,0,0,1-1.5-4.5c3.18-2.38,6.49-4.82,9.89-7.32a2.5,2.5,0,1,1,3,4c-3.39,2.5-6.69,4.92-9.86,7.3A2.55,2.55,0,0,1,451.05,154.92Zm19.75-14.61a2.5,2.5,0,0,1-1.49-4.51c3.63-2.7,6.82-5.12,9.75-7.39a2.5,2.5,0,0,1,3.06,4c-3,2.28-6.17,4.72-9.83,7.44A2.43,2.43,0,0,1,470.8,140.31Zm19.41-15a2.53,2.53,0,0,1-1.94-.92,2.51,2.51,0,0,1,.36-3.52c3.27-2.68,6.4-5.33,9.29-7.88a2.5,2.5,0,1,1,3.31,3.75c-2.94,2.59-6.11,5.28-9.44,8A2.48,2.48,0,0,1,490.21,125.26ZM508.58,109a2.5,2.5,0,0,1-1.75-4.29c3-2.92,5.82-5.86,8.41-8.72A2.5,2.5,0,1,1,519,99.31c-2.66,2.94-5.56,6-8.63,9A2.49,2.49,0,0,1,508.58,109ZM525,90.72a2.51,2.51,0,0,1-2-4,119.44,119.44,0,0,0,6.85-9.86,2.5,2.5,0,1,1,4.25,2.64c-2.12,3.41-4.52,6.86-7.13,10.27A2.51,2.51,0,0,1,525,90.72Zm12.86-20.83a2.51,2.51,0,0,1-2.27-3.56,85.1,85.1,0,0,0,4.31-11.09,2.5,2.5,0,1,1,4.77,1.48,92,92,0,0,1-4.55,11.73A2.48,2.48,0,0,1,537.81,69.89ZM545,46.56l-.37,0a2.5,2.5,0,0,1-2.1-2.84,76.11,76.11,0,0,0,.81-11.09v-.72a2.5,2.5,0,0,1,2.47-2.53h0a2.5,2.5,0,0,1,2.5,2.47v.78a80.45,80.45,0,0,1-.87,11.82A2.5,2.5,0,0,1,545,46.56Z"/><path class="c" d="M544.75,22.13a2.5,2.5,0,0,1-2.47-2.1c-.3-1.9-.67-3.82-1.11-5.73A2.5,2.5,0,0,1,546,13.18c.46,2,.86,4.06,1.18,6.06a2.5,2.5,0,0,1-2.08,2.86A2.56,2.56,0,0,1,544.75,22.13Z"/><path class="d" d="M325.4,78.49H329a3.65,3.65,0,0,1,2.41.73,2.79,2.79,0,0,1,.88,2.24,3,3,0,0,1-.82,2.32,3.41,3.41,0,0,1-2.39.75h-1.33v3H325.4Zm2.35,4.15h.4a6.21,6.21,0,0,0,.69,0,1.41,1.41,0,0,0,.49-.12.79.79,0,0,0,.37-.33,1.23,1.23,0,0,0,.14-.63,1.3,1.3,0,0,0-.13-.64.81.81,0,0,0-.36-.35,1.27,1.27,0,0,0-.49-.13,6.88,6.88,0,0,0-.71,0h-.4Z"/><path class="d" d="M335.43,81.38v3.29a1.72,1.72,0,0,0,.24,1,1.25,1.25,0,0,0,1.71,0,1.72,1.72,0,0,0,.24-1V81.38h2.18v3.71a2.86,2.86,0,0,1-.25,1.26,2,2,0,0,1-.68.81,3,3,0,0,1-1,.44,6,6,0,0,1-1.32.14,5.91,5.91,0,0,1-1.31-.14,2.92,2.92,0,0,1-1-.44,2.1,2.1,0,0,1-.68-.82,2.79,2.79,0,0,1-.25-1.25V81.38Z"/><path class="d" d="M343.38,82.39h0a2,2,0,0,1,.82-.83,2.46,2.46,0,0,1,1.17-.27h.42v2.1a1.45,1.45,0,0,0-.42-.16,2.47,2.47,0,0,0-.5,0,1.33,1.33,0,0,0-1.18.49,2.41,2.41,0,0,0-.33,1.37v2.48h-2.19V81.38h2.19Z"/><path class="d" d="M353,84.82h-4.59a1.21,1.21,0,0,0,1.36,1.37,1.15,1.15,0,0,0,1-.56h2.1a2.5,2.5,0,0,1-1.13,1.57,3.72,3.72,0,0,1-2,.54,3.77,3.77,0,0,1-2.58-.87,3,3,0,0,1-1-2.41,3.56,3.56,0,0,1,.25-1.37,3,3,0,0,1,.7-1,2.86,2.86,0,0,1,1.09-.65,4,4,0,0,1,1.37-.23,3.3,3.3,0,0,1,2.48.92,3.42,3.42,0,0,1,.89,2.5Zm-2-1.26a1.11,1.11,0,0,0-.43-.7,1.27,1.27,0,0,0-.8-.27,1.42,1.42,0,0,0-.85.25,1.18,1.18,0,0,0-.45.72Z"/><path class="d" d="M360.18,82.07h0a1.85,1.85,0,0,1,.79-.67,2.6,2.6,0,0,1,1.07-.23,3.07,3.07,0,0,1,1.25.26,2.94,2.94,0,0,1,1,.72,3.45,3.45,0,0,1,.64,1.06,3.56,3.56,0,0,1,.23,1.26,3.79,3.79,0,0,1-.22,1.26,3.33,3.33,0,0,1-.64,1,3,3,0,0,1-1,.71,3.21,3.21,0,0,1-1.25.25,2.78,2.78,0,0,1-1.06-.21,2.11,2.11,0,0,1-.84-.58v3.66H358V81.38h2.19Zm.3,1.4a1.41,1.41,0,0,0-.38,1,1.32,1.32,0,0,0,1.41,1.38,1.35,1.35,0,0,0,1-.39,1.33,1.33,0,0,0,.38-1,1.37,1.37,0,0,0-.38-1,1.32,1.32,0,0,0-1-.4A1.34,1.34,0,0,0,360.48,83.47Z"/><path class="d" d="M368.4,81.38v3.29a1.73,1.73,0,0,0,.23,1,1,1,0,0,0,.86.34,1,1,0,0,0,.86-.34,1.81,1.81,0,0,0,.23-1V81.38h2.18v3.71a3,3,0,0,1-.24,1.26,2,2,0,0,1-.69.81,2.92,2.92,0,0,1-1,.44,5.85,5.85,0,0,1-1.31.14,6,6,0,0,1-1.32-.14,3,3,0,0,1-1-.44,2.1,2.1,0,0,1-.68-.82,2.79,2.79,0,0,1-.25-1.25V81.38Z"/><path class="d" d="M376.34,82.39h0a2.07,2.07,0,0,1,.83-.83,2.46,2.46,0,0,1,1.17-.27h.42v2.1a1.62,1.62,0,0,0-.43-.16,2.47,2.47,0,0,0-.5,0,1.3,1.3,0,0,0-1.17.49,2.33,2.33,0,0,0-.34,1.37v2.48h-2.18V81.38h2.18Z"/><path class="d" d="M383.66,83a2.33,2.33,0,0,0-.58-.21,2.18,2.18,0,0,0-.6-.09,1.07,1.07,0,0,0-.46.11.33.33,0,0,0-.22.31.34.34,0,0,0,.24.34,3.12,3.12,0,0,0,.62.18l.12,0a2.7,2.7,0,0,1,1.32.6,1.58,1.58,0,0,1,.47,1.23,2.08,2.08,0,0,1-.24,1,2.14,2.14,0,0,1-.65.72,3.19,3.19,0,0,1-.94.41,4.24,4.24,0,0,1-1.07.14,4.67,4.67,0,0,1-1.29-.18,4.93,4.93,0,0,1-1.2-.53l.8-1.52a4,4,0,0,0,.85.43,2.41,2.41,0,0,0,.87.19.94.94,0,0,0,.47-.12.38.38,0,0,0,.22-.35.37.37,0,0,0-.23-.36,3.39,3.39,0,0,0-.72-.23L381,85a4,4,0,0,1-.53-.19,1.57,1.57,0,0,1-.42-.29,1.23,1.23,0,0,1-.3-.46,1.76,1.76,0,0,1-.12-.68,2.12,2.12,0,0,1,.22-1,2,2,0,0,1,.62-.69,2.66,2.66,0,0,1,.87-.4,3.77,3.77,0,0,1,1-.14,4.93,4.93,0,0,1,2,.4Z"/><path class="d" d="M387.9,81.38v3.29a1.73,1.73,0,0,0,.23,1A1,1,0,0,0,389,86a1,1,0,0,0,.86-.34,1.81,1.81,0,0,0,.23-1V81.38h2.18v3.71a3,3,0,0,1-.24,1.26,2,2,0,0,1-.69.81,2.92,2.92,0,0,1-1,.44,5.85,5.85,0,0,1-1.31.14,6,6,0,0,1-1.32-.14,3,3,0,0,1-1-.44,2.1,2.1,0,0,1-.68-.82,2.79,2.79,0,0,1-.25-1.25V81.38Z"/><path class="d" d="M395.61,78.15a1.22,1.22,0,1,1-.86-.36A1.18,1.18,0,0,1,395.61,78.15Zm.23,9.38h-2.18V81.38h2.18Z"/><path class="d" d="M399.67,87.53h-2.19V83.18h-.7v-1.8h.7V79.53h2.19v1.85h1.23v1.8h-1.23Z"/><path class="c" d="M170.08,494.33c-1.18-1.86-.31-2.83,1.48-3.4.76,1.53,3.27,3.26,2.13,5.06C173,497,171,494.7,170.08,494.33Z"/><path class="c" d="M140.78,475.71c2.2.15,2.65-1.07,2.3-2.92-1.7,0-4.41-1.34-5.47.51C137.06,474.45,140,475.08,140.78,475.71Z"/><path class="c" d="M141,529.39l-17.89-10.71c-2.82-1.68-3.46-4.36-1.91-8.38,5.14-13.27,29.27-48.9,29.27-48.9,1.77-2.94,3.58-3,8.3-2.28,5.15.78,14.32,6.91,17.89,10.71,4.16,4.45,3.67,5.44,1.9,8.39,0,0-19.85,38.23-29.27,48.89C146.61,530.1,143.77,531.08,141,529.39Z"/><path class="d" d="M137.64,521.94l-5.15-3.08c-5.9-3.53-10.14-8.49-6.61-14.4L137.56,485c3.54-5.9,6.28-10.25,17.1-4.29,1.31.72,3.91,2.24,5.15,3.08,8.4,5.74,7.82,11.19,4.29,17.1l-11.68,19.51C148.88,526.25,143.55,525.48,137.64,521.94Z"/><path class="c" d="M149.44,526.3l-2.47.61c-.75-7.76-4-11.84-8-13.87l-.18-.09-.15-.11c-3.66-2.51-8.81-3.48-16-.48L122,509.9s23.37-6.78,20.16-33.68l5-1c-2.57,5.74-2,13.2-1.45,15.28.2.8,2,2.2,4.16,3.49l.33.2c2.15,1.29,4.24,2.22,5,2,2.09-.51,8.94-3.51,12.79-8.49l1.49,4.92C144.38,502.5,149.44,526.3,149.44,526.3Z"/><path class="c" d="M134.2,586.85a2.46,2.46,0,0,1-1.45-.47c-.08,0-1.92-1.38-4.86-3.82a2.5,2.5,0,1,1,3.2-3.84c2.78,2.31,4.55,3.58,4.57,3.59a2.51,2.51,0,0,1-1.46,4.54Z"/><path class="c" d="M120.41,574.9a2.5,2.5,0,0,1-1.76-.72c-3-3-5.87-6-8.51-9.13a2.5,2.5,0,1,1,3.8-3.25c2.55,3,5.32,6,8.22,8.82a2.5,2.5,0,0,1-1.75,4.28Zm-15.87-18.68a2.52,2.52,0,0,1-2.06-1.08,103,103,0,0,1-6.54-10.72,2.5,2.5,0,1,1,4.42-2.33,100.39,100.39,0,0,0,6.23,10.2,2.49,2.49,0,0,1-.63,3.48A2.42,2.42,0,0,1,104.54,556.22ZM93.23,534.53a2.49,2.49,0,0,1-2.36-1.68,69.6,69.6,0,0,1-3.1-12.31,2.5,2.5,0,0,1,4.94-.76,65.11,65.11,0,0,0,2.88,11.43,2.5,2.5,0,0,1-1.54,3.18A2.36,2.36,0,0,1,93.23,534.53Zm-3.59-24.1H89.5a2.5,2.5,0,0,1-2.36-2.64,59.71,59.71,0,0,1,2.12-12.6,2.5,2.5,0,1,1,4.81,1.35,54.16,54.16,0,0,0-1.93,11.54A2.5,2.5,0,0,1,89.64,510.43ZM96.14,487a2.45,2.45,0,0,1-1.13-.28,2.49,2.49,0,0,1-1.09-3.36,76,76,0,0,1,4.66-7.91c.63-.94,1.35-1.91,2.12-2.88a2.5,2.5,0,0,1,3.92,3.11c-.7.87-1.33,1.74-1.89,2.57a71.25,71.25,0,0,0-4.36,7.38A2.5,2.5,0,0,1,96.14,487Zm15-19.22a2.5,2.5,0,0,1-1.68-4.35c2.69-2.46,5.8-5.08,9.51-8a2.5,2.5,0,1,1,3.11,3.91c-3.62,2.88-6.65,5.43-9.25,7.81A2.5,2.5,0,0,1,111.14,467.75Zm19.13-15.41a2.5,2.5,0,0,1-1.5-4.5c3.18-2.38,6.49-4.82,9.88-7.32a2.5,2.5,0,0,1,3,4c-3.39,2.49-6.69,4.92-9.86,7.29A2.45,2.45,0,0,1,130.27,452.34ZM150,437.73a2.5,2.5,0,0,1-1.5-4.5c3.65-2.72,6.84-5.14,9.76-7.39a2.5,2.5,0,0,1,3.05,4c-2.94,2.27-6.15,4.7-9.82,7.44A2.51,2.51,0,0,1,150,437.73Zm19.4-15.05a2.5,2.5,0,0,1-1.58-4.43c3.33-2.73,6.37-5.3,9.29-7.88a2.5,2.5,0,0,1,3.31,3.75c-3,2.62-6.05,5.23-9.43,8A2.51,2.51,0,0,1,169.42,422.68Zm18.37-16.28a2.5,2.5,0,0,1-1.75-4.29c3-2.92,5.82-5.86,8.41-8.73a2.5,2.5,0,0,1,3.71,3.35c-2.66,2.95-5.56,6-8.62,8.95A2.49,2.49,0,0,1,187.79,406.4Zm16.38-18.26a2.53,2.53,0,0,1-1.52-.51,2.49,2.49,0,0,1-.46-3.51c2.51-3.27,4.81-6.59,6.85-9.87a2.5,2.5,0,0,1,4.25,2.64c-2.13,3.42-4.53,6.87-7.14,10.27A2.46,2.46,0,0,1,204.17,388.14ZM217,367.32a2.55,2.55,0,0,1-1.06-.24,2.49,2.49,0,0,1-1.2-3.32,87.64,87.64,0,0,0,4.3-11.09,2.5,2.5,0,0,1,4.78,1.47,91.6,91.6,0,0,1-4.55,11.74A2.52,2.52,0,0,1,217,367.32ZM224.17,344a2.3,2.3,0,0,1-.37,0,2.51,2.51,0,0,1-2.11-2.84,76.26,76.26,0,0,0,.82-11.1v-.72a2.5,2.5,0,0,1,2.48-2.52h0a2.5,2.5,0,0,1,2.5,2.48V330a81.88,81.88,0,0,1-.87,11.83A2.5,2.5,0,0,1,224.17,344Z"/><path class="c" d="M224,319.56a2.49,2.49,0,0,1-2.46-2.11c-.3-1.88-.68-3.81-1.12-5.72a2.5,2.5,0,1,1,4.88-1.12c.46,2,.86,4.06,1.17,6.06a2.5,2.5,0,0,1-2.07,2.86A2.69,2.69,0,0,1,224,319.56Z"/><line class="e" x1="109.25" y1="482.98" x2="122.14" y2="490.35"/><polygon class="a" points="101.89 478.78 109.83 488.94 109.8 483.3 114.67 480.47 101.89 478.78"/><polygon class="a" points="129.49 494.55 116.71 492.86 121.59 490.03 121.55 484.39 129.49 494.55"/><path class="f" d="M169.8,427.2c.49,8.72,8.17,12.57,14.68,10.27"/><polygon class="a" points="170.1 422.97 167.37 428.81 169.87 427.52 172.24 429.05 170.1 422.97"/><path class="d" d="M36.25,378.24a2.9,2.9,0,0,0-.74-.44,2.34,2.34,0,0,0-.82-.16,1.29,1.29,0,0,0-.69.2.65.65,0,0,0-.32.56.58.58,0,0,0,.29.52,3.22,3.22,0,0,0,.76.34l.6.18a5.27,5.27,0,0,1,.9.35,3.14,3.14,0,0,1,.7.49,2,2,0,0,1,.47.7,2.66,2.66,0,0,1,.16.93,4.08,4.08,0,0,1-.22,1.38,2.34,2.34,0,0,1-.72,1.06,3.25,3.25,0,0,1-1.17.64,4.7,4.7,0,0,1-1.4.21,5.29,5.29,0,0,1-1.66-.27,5.7,5.7,0,0,1-1.52-.76l1-1.9a4.78,4.78,0,0,0,1,.69,2.52,2.52,0,0,0,1.08.25,1.33,1.33,0,0,0,.8-.24.75.75,0,0,0,.34-.67.58.58,0,0,0-.13-.39,1.18,1.18,0,0,0-.33-.29,2.17,2.17,0,0,0-.41-.19l-.49-.14-.07,0a10.39,10.39,0,0,1-1.07-.35,2.89,2.89,0,0,1-.72-.44,1.77,1.77,0,0,1-.49-.7,2.94,2.94,0,0,1-.17-1.06,3.26,3.26,0,0,1,.23-1.24,2.68,2.68,0,0,1,.65-1,2.77,2.77,0,0,1,1-.62,3.59,3.59,0,0,1,1.24-.22,5.55,5.55,0,0,1,1.47.21,5.44,5.44,0,0,1,1.37.54Z"/><path class="d" d="M41,385H38.83V380.6h-.71v-1.8h.71V377H41v1.84h1.24v1.8H41Z"/><path class="d" d="M49.68,385H47.49v-.68h0a1.75,1.75,0,0,1-.78.66,2.65,2.65,0,0,1-1.08.23,3.06,3.06,0,0,1-1.24-.26,2.94,2.94,0,0,1-1-.72,3.29,3.29,0,0,1-.65-1.06,3.47,3.47,0,0,1-.23-1.25,3.79,3.79,0,0,1,.22-1.26,3.36,3.36,0,0,1,.65-1.05,3,3,0,0,1,2.22-1,3,3,0,0,1,1.06.2,2.08,2.08,0,0,1,.84.61v-.61h2.19Zm-4.54-4.06a1.37,1.37,0,0,0-.38,1,1.33,1.33,0,0,0,.38,1,1.35,1.35,0,0,0,1,.39,1.32,1.32,0,0,0,1.41-1.38,1.41,1.41,0,0,0-.38-1,1.34,1.34,0,0,0-1-.4A1.32,1.32,0,0,0,45.14,380.9Z"/><path class="d" d="M53.31,379.6h0a2.24,2.24,0,0,1,.84-.77,2.59,2.59,0,0,1,1.13-.23,2.16,2.16,0,0,1,1.75.68,2.89,2.89,0,0,1,.56,1.88V385H55.44v-3a6.38,6.38,0,0,0,0-.66,1.47,1.47,0,0,0-.13-.49.74.74,0,0,0-.29-.34.94.94,0,0,0-.54-.13,1,1,0,0,0-.87.39,1.8,1.8,0,0,0-.27,1V385H51.13V378.8h2.18Z"/><path class="d" d="M61.25,385H59.06V375h2.19Z"/><path class="d" d="M69,382.25h-4.6a1.21,1.21,0,0,0,1.37,1.37,1.14,1.14,0,0,0,1-.57h2.1a2.47,2.47,0,0,1-1.13,1.57,3.68,3.68,0,0,1-2,.55,3.76,3.76,0,0,1-2.57-.87,3,3,0,0,1-1-2.41,3.52,3.52,0,0,1,.25-1.37,2.7,2.7,0,0,1,.7-1,3,3,0,0,1,1.08-.66,4.08,4.08,0,0,1,1.38-.22,3.3,3.3,0,0,1,2.48.92A3.44,3.44,0,0,1,69,382ZM67,381a1.11,1.11,0,0,0-.43-.7,1.27,1.27,0,0,0-.8-.27,1.42,1.42,0,0,0-.85.25,1.1,1.1,0,0,0-.45.72Z"/><path class="d" d="M69.11,378.8h2.52L73.27,382l1.61-3.16h2.48L72.43,388H70l2.1-3.91Z"/><path class="d" d="M86.41,380.81a2.38,2.38,0,0,0-.55-.32,1.62,1.62,0,0,0-.58-.11,1.46,1.46,0,0,0-1.07.43,1.56,1.56,0,0,0,0,2.15,1.5,1.5,0,0,0,1.11.43,1.75,1.75,0,0,0,.58-.11,1.62,1.62,0,0,0,.51-.31v1.85a3.42,3.42,0,0,1-1.54.35,3.51,3.51,0,0,1-1.28-.25,3.18,3.18,0,0,1-1.07-.67,3.23,3.23,0,0,1-.73-1,3.05,3.05,0,0,1-.26-1.28,3.29,3.29,0,0,1,1-2.42,3.21,3.21,0,0,1,1.1-.69A3.76,3.76,0,0,1,85,378.6a2.9,2.9,0,0,1,1.44.36Z"/><path class="d" d="M92.43,378.82a3.68,3.68,0,0,1,1.19.64,2.93,2.93,0,0,1,.81,1,3.18,3.18,0,0,1,.3,1.39,3.09,3.09,0,0,1-.3,1.37,2.93,2.93,0,0,1-.8,1,3.68,3.68,0,0,1-1.19.64,4.49,4.49,0,0,1-1.42.23A4.74,4.74,0,0,1,89.6,385a3.79,3.79,0,0,1-1.19-.64,3.18,3.18,0,0,1-.81-1,3.25,3.25,0,0,1-.29-1.38,3.32,3.32,0,0,1,.29-1.39,3.18,3.18,0,0,1,.81-1,3.79,3.79,0,0,1,1.19-.64A4.44,4.44,0,0,1,91,378.6,4.38,4.38,0,0,1,92.43,378.82ZM90,380.9a1.41,1.41,0,0,0-.38,1A1.32,1.32,0,0,0,91,383.27a1.35,1.35,0,0,0,1-.39,1.33,1.33,0,0,0,.38-1,1.37,1.37,0,0,0-.38-1,1.32,1.32,0,0,0-1-.4A1.34,1.34,0,0,0,90,380.9Z"/><path class="d" d="M97.89,379.6h0a2.24,2.24,0,0,1,.84-.77,2.59,2.59,0,0,1,1.13-.23,2.16,2.16,0,0,1,1.75.68,2.89,2.89,0,0,1,.56,1.88V385H100v-3a6.38,6.38,0,0,0,0-.66,1.47,1.47,0,0,0-.13-.49.74.74,0,0,0-.29-.34.94.94,0,0,0-.54-.13,1,1,0,0,0-.87.39,1.8,1.8,0,0,0-.27,1V385H95.71V378.8h2.18Z"/><path class="d" d="M106,385h-2.18V380.6h-.71v-1.8h.71V377H106v1.84h1.24v1.8H106Z"/><path class="d" d="M110.15,379.81h0A2.09,2.09,0,0,1,111,379a2.46,2.46,0,0,1,1.17-.27h.42v2.1a1.56,1.56,0,0,0-.42-.16,2.47,2.47,0,0,0-.5,0,1.35,1.35,0,0,0-1.18.48,2.45,2.45,0,0,0-.33,1.38V385H108V378.8h2.19Z"/><path class="d" d="M117.85,378.82a3.79,3.79,0,0,1,1.19.64,3.18,3.18,0,0,1,.81,1,3.32,3.32,0,0,1,.29,1.39,3.23,3.23,0,0,1-.29,1.37,3.08,3.08,0,0,1-.81,1,3.63,3.63,0,0,1-1.18.64,4.56,4.56,0,0,1-1.43.23A4.72,4.72,0,0,1,115,385a3.68,3.68,0,0,1-1.19-.64,3.18,3.18,0,0,1-.81-1,3.1,3.1,0,0,1-.29-1.38,3,3,0,0,1,1.1-2.43,3.68,3.68,0,0,1,1.19-.64,4.66,4.66,0,0,1,2.83,0Zm-2.44,2.08a1.41,1.41,0,0,0-.38,1,1.37,1.37,0,0,0,.38,1,1.54,1.54,0,0,0,2,0,1.37,1.37,0,0,0,.38-1,1.41,1.41,0,0,0-.38-1,1.51,1.51,0,0,0-2,0Z"/><path class="d" d="M123.31,385h-2.18V375h2.18Z"/><path class="c" d="M464.2,492.91c-1.18-1.86-.31-2.84,1.48-3.4.76,1.52,3.27,3.25,2.13,5.06C467.07,495.6,465.11,493.27,464.2,492.91Z"/><path class="c" d="M434.9,474.28c2.2.16,2.64-1.06,2.3-2.91-1.7.05-4.42-1.35-5.47.51C431.18,473,434.15,473.65,434.9,474.28Z"/><path class="c" d="M435.08,528l-17.89-10.71c-2.82-1.68-3.47-4.35-1.91-8.38C420.42,495.6,444.55,460,444.55,460c1.77-3,3.58-3,8.3-2.28,5.15.77,14.32,6.9,17.88,10.71,4.17,4.44,3.67,5.44,1.91,8.38,0,0-19.85,38.24-29.27,48.89C440.73,528.67,437.89,529.65,435.08,528Z"/><path class="d" d="M431.76,520.52l-5.15-3.09c-5.9-3.53-10.14-8.49-6.61-14.39l11.68-19.52c3.54-5.9,6.28-10.25,17.1-4.29,1.31.73,3.91,2.24,5.15,3.09,8.4,5.73,7.82,11.18,4.29,17.09l-11.69,19.51C443,524.83,437.67,524.05,431.76,520.52Z"/><path class="c" d="M443.56,524.87l-2.47.62c-.75-7.77-4-11.84-8-13.88l-.18-.09a.91.91,0,0,0-.16-.11c-3.65-2.5-8.8-3.48-16-.48l-.62-2.46s23.37-6.78,20.16-33.67l5-1c-2.57,5.74-2,13.2-1.45,15.28.2.8,2,2.21,4.16,3.49l.33.2c2.15,1.29,4.24,2.22,5,2,2.09-.52,8.94-3.52,12.79-8.5l1.49,4.92C438.5,501.07,443.56,524.87,443.56,524.87Z"/><path class="c" d="M428.32,585.42a2.46,2.46,0,0,1-1.45-.47c-.08-.05-1.92-1.38-4.86-3.81a2.5,2.5,0,0,1,3.2-3.85c2.78,2.31,4.55,3.58,4.57,3.6a2.5,2.5,0,0,1-1.46,4.53Z"/><path class="c" d="M414.53,573.47a2.46,2.46,0,0,1-1.76-.72c-3-3-5.86-6-8.51-9.13a2.5,2.5,0,0,1,3.8-3.24c2.56,3,5.32,6,8.22,8.81a2.51,2.51,0,0,1,0,3.54A2.48,2.48,0,0,1,414.53,573.47Zm-15.87-18.68a2.51,2.51,0,0,1-2.06-1.07A104.15,104.15,0,0,1,390.06,543a2.5,2.5,0,0,1,4.42-2.33,100.51,100.51,0,0,0,6.23,10.21,2.49,2.49,0,0,1-2,3.92ZM387.35,533.1a2.49,2.49,0,0,1-2.36-1.67,69.7,69.7,0,0,1-3.1-12.32,2.5,2.5,0,0,1,4.94-.76,65.11,65.11,0,0,0,2.88,11.43,2.5,2.5,0,0,1-1.54,3.18A2.36,2.36,0,0,1,387.35,533.1ZM383.76,509h-.14a2.5,2.5,0,0,1-2.36-2.64,59.71,59.71,0,0,1,2.12-12.6,2.5,2.5,0,0,1,4.81,1.35,54.16,54.16,0,0,0-1.93,11.54A2.51,2.51,0,0,1,383.76,509Zm6.5-23.47a2.57,2.57,0,0,1-1.13-.27A2.5,2.5,0,0,1,388,481.9a74.14,74.14,0,0,1,4.66-7.9c.63-.94,1.35-1.91,2.12-2.89a2.51,2.51,0,0,1,3.92,3.12c-.7.87-1.33,1.73-1.89,2.56a72.32,72.32,0,0,0-4.36,7.38A2.5,2.5,0,0,1,390.26,485.54Zm15-19.22a2.5,2.5,0,0,1-1.68-4.35c2.7-2.46,5.81-5.09,9.51-8a2.5,2.5,0,0,1,3.11,3.92c-3.61,2.87-6.64,5.42-9.25,7.81A2.54,2.54,0,0,1,405.26,466.32Zm19.13-15.4a2.54,2.54,0,0,1-2-1,2.5,2.5,0,0,1,.51-3.5c3.18-2.38,6.49-4.82,9.88-7.33a2.5,2.5,0,0,1,3,4c-3.39,2.49-6.69,4.92-9.86,7.3A2.52,2.52,0,0,1,424.39,450.92Zm19.75-14.61a2.5,2.5,0,0,1-1.5-4.51c3.63-2.7,6.82-5.12,9.76-7.39a2.5,2.5,0,0,1,3.05,4c-2.95,2.28-6.17,4.72-9.82,7.44A2.45,2.45,0,0,1,444.14,436.31Zm19.4-15.05a2.5,2.5,0,0,1-1.58-4.44c3.29-2.68,6.41-5.33,9.29-7.88a2.5,2.5,0,1,1,3.31,3.75c-2.93,2.59-6.1,5.28-9.43,8A2.52,2.52,0,0,1,463.54,421.26ZM481.91,405a2.47,2.47,0,0,1-1.79-.76,2.5,2.5,0,0,1,0-3.53c3-2.92,5.82-5.86,8.41-8.72a2.5,2.5,0,0,1,3.71,3.35c-2.65,2.94-5.56,5.95-8.62,8.95A2.53,2.53,0,0,1,481.91,405Zm16.38-18.25a2.45,2.45,0,0,1-1.52-.52,2.5,2.5,0,0,1-.47-3.51,119.61,119.61,0,0,0,6.86-9.86,2.5,2.5,0,1,1,4.24,2.64,124.41,124.41,0,0,1-7.13,10.27A2.49,2.49,0,0,1,498.29,386.72Zm12.85-20.83a2.55,2.55,0,0,1-1.06-.24,2.49,2.49,0,0,1-1.2-3.32,86.48,86.48,0,0,0,4.3-11.09,2.5,2.5,0,0,1,4.78,1.48,92,92,0,0,1-4.55,11.73A2.51,2.51,0,0,1,511.14,365.89Zm7.15-23.33a2.31,2.31,0,0,1-.37,0,2.5,2.5,0,0,1-2.11-2.84,76.16,76.16,0,0,0,.82-11.1v-.71a2.51,2.51,0,0,1,2.47-2.53h0a2.49,2.49,0,0,1,2.5,2.47v.77a81.88,81.88,0,0,1-.87,11.83A2.51,2.51,0,0,1,518.29,342.56Z"/><path class="c" d="M518.08,318.13a2.48,2.48,0,0,1-2.46-2.1c-.31-1.9-.68-3.83-1.12-5.73a2.5,2.5,0,0,1,4.88-1.12c.46,2,.85,4.05,1.17,6.06a2.5,2.5,0,0,1-2.07,2.86Z"/><path class="d" d="M326.4,374.49h2.31l1.84,4.83,1.94-4.83h2.34l1.37,9h-2.35l-.66-5.2h0l-2.18,5.2h-.93l-2.08-5.2h0l-.76,5.2h-2.34Z"/><path class="d" d="M339.3,377.38v3.29a1.81,1.81,0,0,0,.23,1,1,1,0,0,0,.86.34,1,1,0,0,0,.86-.34,1.81,1.81,0,0,0,.23-1v-3.29h2.19v3.71a3,3,0,0,1-.25,1.26,2.08,2.08,0,0,1-.68.81,3.05,3.05,0,0,1-1,.44,6.2,6.2,0,0,1-2.62,0,3,3,0,0,1-1-.44,2.1,2.1,0,0,1-.68-.82,2.93,2.93,0,0,1-.25-1.25v-3.71Z"/><path class="d" d="M347.24,383.53h-2.18v-10h2.18Z"/><path class="d" d="M351.07,383.53h-2.19v-4.35h-.7v-1.8h.7v-1.85h2.19v1.85h1.24v1.8h-1.24Z"/><path class="d" d="M355,374.15a1.22,1.22,0,1,1-.87-.36A1.18,1.18,0,0,1,355,374.15Zm.22,9.38H353v-6.15h2.18Z"/><path class="d" d="M358.74,378.07h0a1.85,1.85,0,0,1,.79-.67,2.64,2.64,0,0,1,1.07-.23,3,3,0,0,1,1.25.26,2.94,2.94,0,0,1,1,.72,3.45,3.45,0,0,1,.64,1.06,3.64,3.64,0,0,1,0,2.52,3.33,3.33,0,0,1-.64,1,3,3,0,0,1-1,.71,3.19,3.19,0,0,1-1.24.25,2.8,2.8,0,0,1-1.07-.21,2.11,2.11,0,0,1-.84-.58v3.66h-2.19v-9.23h2.19Zm.3,1.4a1.4,1.4,0,0,0-.37,1,1.31,1.31,0,0,0,1.4,1.38,1.35,1.35,0,0,0,1-.39,1.33,1.33,0,0,0,.38-1,1.37,1.37,0,0,0-.38-1,1.32,1.32,0,0,0-1-.4A1.34,1.34,0,0,0,359,379.47Z"/><path class="d" d="M367,383.53h-2.18v-10H367Z"/><path class="d" d="M374.76,380.82h-4.6a1.21,1.21,0,0,0,1.37,1.37,1.13,1.13,0,0,0,1-.56h2.1a2.46,2.46,0,0,1-1.13,1.57,4.12,4.12,0,0,1-4.57-.33,3,3,0,0,1-1-2.41,3.75,3.75,0,0,1,.24-1.37,3.13,3.13,0,0,1,.7-1,2.93,2.93,0,0,1,1.09-.65,4.06,4.06,0,0,1,1.37-.23,3.31,3.31,0,0,1,2.49.92,3.46,3.46,0,0,1,.89,2.5Zm-2-1.26a1.15,1.15,0,0,0-.43-.7,1.28,1.28,0,0,0-.81-.27,1.39,1.39,0,0,0-.84.25,1.1,1.1,0,0,0-.45.72Z"/><path class="d" d="M386.62,382.93a3.74,3.74,0,0,1-.9,2.79,3.67,3.67,0,0,1-2.66.89,4.45,4.45,0,0,1-1.13-.15,3.9,3.9,0,0,1-1.1-.44,2.68,2.68,0,0,1-.86-.74,2,2,0,0,1-.41-1H382a.73.73,0,0,0,.41.47,1.33,1.33,0,0,0,.63.15,1.66,1.66,0,0,0,.71-.14,1,1,0,0,0,.42-.36,1.58,1.58,0,0,0,.21-.55,3.88,3.88,0,0,0,.06-.72v-.29a3.15,3.15,0,0,1-.89.64,2.59,2.59,0,0,1-1.07.2,3.09,3.09,0,0,1-1.22-.24,2.88,2.88,0,0,1-1-.66,3.3,3.3,0,0,1-.62-1,3.41,3.41,0,0,1-.22-1.24,3.46,3.46,0,0,1,.23-1.28,3.31,3.31,0,0,1,.64-1.07,3.05,3.05,0,0,1,1-.72,3,3,0,0,1,1.27-.27,2.48,2.48,0,0,1,1,.21,1.8,1.8,0,0,1,.78.65h0v-.65h2.18Zm-4.54-3.51a1.4,1.4,0,0,0-.37,1,1.31,1.31,0,0,0,1.4,1.38,1.35,1.35,0,0,0,1-.39,1.33,1.33,0,0,0,.38-1,1.44,1.44,0,0,0-2.43-1Z"/><path class="d" d="M392.66,377.4a3.6,3.6,0,0,1,1.19.64,3,3,0,0,1,.81,1,3.25,3.25,0,0,1,.29,1.38,3.28,3.28,0,0,1-.29,1.38,3,3,0,0,1-.81,1,3.65,3.65,0,0,1-1.18.65,4.84,4.84,0,0,1-1.42.22,4.44,4.44,0,0,1-1.42-.22,3.5,3.5,0,0,1-1.19-.64,3.28,3.28,0,0,1-.81-3.8,3,3,0,0,1,.81-1,3.5,3.5,0,0,1,1.19-.64,4.47,4.47,0,0,1,2.83,0Zm-2.44,2.07a1.41,1.41,0,0,0-.38,1,1.37,1.37,0,0,0,.38,1,1.54,1.54,0,0,0,2,0,1.37,1.37,0,0,0,.38-1,1.41,1.41,0,0,0-.38-1,1.51,1.51,0,0,0-2,0Z"/><path class="d" d="M402.67,383.53h-2.19v-.68h0a1.69,1.69,0,0,1-.78.66,2.65,2.65,0,0,1-1.08.23,3.06,3.06,0,0,1-1.24-.26,2.94,2.94,0,0,1-1-.72,3.29,3.29,0,0,1-.65-1.06,3.47,3.47,0,0,1-.23-1.25,3.69,3.69,0,0,1,.22-1.25,3.15,3.15,0,0,1,.65-1.05,2.9,2.9,0,0,1,1-.72,3,3,0,0,1,1.24-.26,2.78,2.78,0,0,1,1.06.21,2,2,0,0,1,.84.6v-.6h2.19Zm-4.54-4.06a1.41,1.41,0,0,0-.38,1,1.37,1.37,0,0,0,.38,1,1.35,1.35,0,0,0,1,.39,1.32,1.32,0,0,0,1.41-1.38,1.41,1.41,0,0,0-.38-1,1.34,1.34,0,0,0-1-.4A1.32,1.32,0,0,0,398.13,379.47Z"/><path class="d" d="M406.3,383.53h-2.18v-10h2.18Z"/><path class="d" d="M414,378.07h0a1.79,1.79,0,0,1,.79-.67,2.57,2.57,0,0,1,1.07-.23,3,3,0,0,1,1.24.26,2.75,2.75,0,0,1,1,.72,3.48,3.48,0,0,1,.65,1.06,3.72,3.72,0,0,1,0,2.52,3.5,3.5,0,0,1-.63,1,3,3,0,0,1-1,.71,3.16,3.16,0,0,1-1.24.25,2.75,2.75,0,0,1-1.06-.21A2.22,2.22,0,0,1,414,383v3.66h-2.18v-9.23H414Zm.31,1.4a1.41,1.41,0,0,0-.38,1,1.37,1.37,0,0,0,.38,1,1.54,1.54,0,0,0,2.05,0,1.37,1.37,0,0,0,.38-1,1.41,1.41,0,0,0-.38-1,1.51,1.51,0,0,0-2.05,0Z"/><path class="d" d="M422.19,377.38v3.29a1.72,1.72,0,0,0,.24,1,1.25,1.25,0,0,0,1.71,0,1.72,1.72,0,0,0,.24-1v-3.29h2.18v3.71a2.86,2.86,0,0,1-.25,1.26,2,2,0,0,1-.68.81,3,3,0,0,1-1,.44,6,6,0,0,1-1.32.14,5.91,5.91,0,0,1-1.31-.14,2.92,2.92,0,0,1-1-.44,2.21,2.21,0,0,1-.69-.82,2.93,2.93,0,0,1-.24-1.25v-3.71Z"/><path class="d" d="M430.14,378.39h0a2,2,0,0,1,.82-.83,2.46,2.46,0,0,1,1.17-.27h.42v2.1a1.45,1.45,0,0,0-.42-.16,2.47,2.47,0,0,0-.5,0,1.33,1.33,0,0,0-1.18.49,2.41,2.41,0,0,0-.33,1.37v2.48H428v-6.15h2.19Z"/><path class="d" d="M437.46,379a2.33,2.33,0,0,0-.58-.21,2.24,2.24,0,0,0-.6-.09,1.07,1.07,0,0,0-.46.11.33.33,0,0,0-.22.31.34.34,0,0,0,.24.34,2.93,2.93,0,0,0,.62.18l.12,0a2.62,2.62,0,0,1,1.31.6,1.55,1.55,0,0,1,.48,1.23,2,2,0,0,1-.9,1.74,3,3,0,0,1-.93.41,4.32,4.32,0,0,1-1.08.14,4.67,4.67,0,0,1-1.29-.18A4.87,4.87,0,0,1,433,383l.79-1.52a4.22,4.22,0,0,0,.85.43,2.41,2.41,0,0,0,.88.19A1,1,0,0,0,436,382a.38.38,0,0,0,.21-.35.36.36,0,0,0-.22-.36,3.83,3.83,0,0,0-.72-.23l-.42-.09a4.8,4.8,0,0,1-.54-.19,2,2,0,0,1-.42-.29,1.53,1.53,0,0,1-.3-.46,2,2,0,0,1-.11-.68,2,2,0,0,1,.22-1,1.93,1.93,0,0,1,.61-.69,2.62,2.62,0,0,1,.88-.4,3.72,3.72,0,0,1,1-.14,5,5,0,0,1,2,.4Z"/><path class="d" d="M441.69,377.38v3.29a1.72,1.72,0,0,0,.24,1,1.25,1.25,0,0,0,1.71,0,1.72,1.72,0,0,0,.24-1v-3.29h2.18v3.71a2.86,2.86,0,0,1-.25,1.26,2,2,0,0,1-.68.81,3,3,0,0,1-1,.44,6,6,0,0,1-1.32.14,5.91,5.91,0,0,1-1.31-.14,2.92,2.92,0,0,1-1-.44,2.21,2.21,0,0,1-.69-.82,2.93,2.93,0,0,1-.24-1.25v-3.71Z"/><path class="d" d="M449.41,374.15a1.22,1.22,0,1,1-.87-.36A1.18,1.18,0,0,1,449.41,374.15Zm.23,9.38h-2.19v-6.15h2.19Z"/><path class="d" d="M453.46,383.53h-2.18v-4.35h-.71v-1.8h.71v-1.85h2.18v1.85h1.24v1.8h-1.24Z"/><ellipse class="g" cx="192.11" cy="399.07" rx="5.63" ry="5.93"/><ellipse class="g" cx="219.81" cy="104.56" rx="5.63" ry="5.93"/><ellipse class="g" cx="486.48" cy="398.48" rx="5.63" ry="5.93"/><ellipse class="g" cx="501" cy="382.19" rx="5.63" ry="5.93"/><ellipse class="g" cx="512.85" cy="102.48" rx="5.63" ry="5.93"/><line class="h" x1="300" y1="-6.78" x2="300" y2="606.78"/><line class="h" x1="-7.56" y1="300" x2="607.56" y2="300"/></svg>