<svg xmlns="http://www.w3.org/2000/svg" viewBox="0 0 283.46 240.35"><defs><style>.a,.b,.c,.d,.e,.g{fill:none;stroke-linecap:round;stroke-linejoin:round;stroke-width:2px;}.a,.b,.c,.d{stroke:#9babcc;}.b{stroke-dasharray:4.06 4.06;}.c{stroke-dasharray:3.86 3.86;}.d{stroke-dasharray:4.15 4.15;}.e{stroke:#231f20;}.f{fill:#231f20;}.g{stroke:#3b58a7;}</style></defs><line class="a" x1="56.56" y1="122.59" x2="58.56" y2="122.59"/><line class="b" x1="62.62" y1="122.59" x2="174.28" y2="122.59"/><line class="a" x1="176.32" y1="122.59" x2="178.32" y2="122.59"/><line class="a" x1="103.29" y1="158.18" x2="103.29" y2="160.18"/><line class="c" x1="103.29" y1="164.05" x2="103.29" y2="208.47"/><line class="a" x1="103.29" y1="210.4" x2="103.29" y2="212.4"/><line class="a" x1="176.75" y1="111.56" x2="176.75" y2="113.56"/><line class="d" x1="176.75" y1="117.72" x2="176.75" y2="206.97"/><line class="a" x1="176.75" y1="209.05" x2="176.75" y2="211.05"/><line class="e" x1="60.24" y1="34.76" x2="60.24" y2="206.95"/><line class="e" x1="60.24" y1="206.95" x2="232.43" y2="206.95"/><line class="e" x1="54.97" y1="40.05" x2="60.19" y2="34.83"/><line class="e" x1="65.53" y1="40.05" x2="60.31" y2="34.83"/><line class="e" x1="227.95" y1="202.27" x2="233.18" y2="207.49"/><line class="e" x1="227.95" y1="212.83" x2="233.18" y2="207.61"/><line class="e" x1="57.94" y1="60.99" x2="62.49" y2="60.99"/><line class="e" x1="57.94" y1="86.35" x2="62.49" y2="86.35"/><line class="e" x1="57.94" y1="111.72" x2="62.49" y2="111.72"/><line class="e" x1="57.94" y1="137.08" x2="62.49" y2="137.08"/><line class="e" x1="57.94" y1="162.44" x2="62.49" y2="162.44"/><line class="e" x1="57.94" y1="187.81" x2="62.49" y2="187.81"/><line class="e" x1="206.56" y1="205.25" x2="206.56" y2="209.8"/><line class="e" x1="181.2" y1="205.25" x2="181.2" y2="209.8"/><line class="e" x1="155.84" y1="205.25" x2="155.84" y2="209.8"/><line class="e" x1="130.47" y1="205.25" x2="130.47" y2="209.8"/><line class="e" x1="105.11" y1="205.25" x2="105.11" y2="209.8"/><line class="e" x1="79.74" y1="205.25" x2="79.74" y2="209.8"/><path class="f" d="M9.93,123v-2.7H9v-.38h1.43V123a.5.5,0,0,0,.54.56,1.26,1.26,0,0,0,.51-.12l.12.35a1.74,1.74,0,0,1-.73.16C10.25,124,9.93,123.65,9.93,123Z"/><path class="f" d="M12.26,122.56A1.35,1.35,0,1,1,13.6,124,1.34,1.34,0,0,1,12.26,122.56Zm2.21,0c0-.63-.34-1-.87-1s-.87.42-.87,1,.35,1,.87,1S14.47,123.18,14.47,122.56Z"/><path class="f" d="M15.63,122.56A1.35,1.35,0,1,1,17,124,1.34,1.34,0,0,1,15.63,122.56Zm2.22,0c0-.63-.35-1-.88-1s-.87.42-.87,1,.35,1,.87,1S17.85,123.18,17.85,122.56Z"/><path class="f" d="M19.25,119.92h.47v2.7h0l1.47-1.43h.53l-2,2v.74h-.47Zm1.05,2.55.28-.3,1.3,1.75h-.51Z"/><path class="f" d="M22.48,123.21c0-.61.58-.91,2-1a.64.64,0,0,0-.72-.68,1.86,1.86,0,0,0-.95.32l-.19-.31a2.38,2.38,0,0,1,1.22-.4,1,1,0,0,1,1.11,1.13v1.67h-.39l0-.37h0a1.82,1.82,0,0,1-1.08.44A.83.83,0,0,1,22.48,123.21Zm2,0v-.71c-1.16.09-1.52.32-1.52.68s.28.43.6.43A1.44,1.44,0,0,0,24.46,123.21Z"/><path class="f" d="M25.93,119.92h.46V121l0,.65h0a1.37,1.37,0,0,1,1-.54c.64,0,.94.39.94,1.1v1.7h-.46v-1.63c0-.52-.18-.76-.63-.76s-.54.16-.86.49v1.9h-.46Z"/><path class="f" d="M29.16,122.55a1.37,1.37,0,0,1,1.39-1.43,1.17,1.17,0,0,1,1.25,1.28,1.23,1.23,0,0,1,0,.29h-2.3v-.36h2l-.12.13c0-.65-.32-1-.82-1a1,1,0,0,0-.94,1.06,1,1,0,0,0,1.07,1.07,1.48,1.48,0,0,0,.83-.26l.17.3a1.88,1.88,0,0,1-1.06.33A1.38,1.38,0,0,1,29.16,122.55Z"/><path class="f" d="M32.6,123.21c0-.61.57-.91,2-1a.65.65,0,0,0-.73-.68,1.86,1.86,0,0,0-1,.32l-.18-.31a2.38,2.38,0,0,1,1.21-.4,1,1,0,0,1,1.12,1.13v1.67h-.39l0-.37h0a1.81,1.81,0,0,1-1.07.44A.83.83,0,0,1,32.6,123.21Zm2,0v-.71c-1.17.09-1.52.32-1.52.68s.28.43.59.43A1.47,1.47,0,0,0,34.58,123.21Z"/><path class="f" d="M35.86,122.56a1.31,1.31,0,0,1,1.23-1.44,1.16,1.16,0,0,1,.82.35h0l0-.5v-1h.47v4H38l0-.36h0A1.33,1.33,0,0,1,37,124C36.33,124,35.86,123.47,35.86,122.56Zm2,.63v-1.36a1,1,0,0,0-.71-.31.93.93,0,0,0-.86,1c0,.65.31,1,.81,1A1,1,0,0,0,37.9,123.19Z"/><path class="f" d="M39.23,124.31h2.69v.4H39.23Z"/><path class="f" d="M42.59,121.19H43l0,.36h0a.68.68,0,0,1,.62-.43c.27,0,.44.16.52.48.16-.3.33-.48.64-.48s.61.3.61.85v2h-.46V122c0-.31-.09-.48-.3-.48s-.29.14-.43.42v2h-.43V122c0-.31-.08-.48-.28-.48s-.32.14-.45.42v2h-.46Z"/><path class="f" d="M46.08,123.21c0-.61.58-.91,2-1a.65.65,0,0,0-.73-.68,1.86,1.86,0,0,0-1,.32l-.19-.31a2.38,2.38,0,0,1,1.22-.4,1,1,0,0,1,1.11,1.13v1.67h-.39l0-.37h0A1.81,1.81,0,0,1,47,124C46.5,124,46.08,123.7,46.08,123.21Zm2,0v-.71c-1.17.09-1.53.32-1.53.68s.28.43.6.43A1.49,1.49,0,0,0,48.07,123.21Z"/><path class="f" d="M50.4,122.51l-1-1.32H50l.44.6c.09.15.21.31.32.46h0l.31-.47.4-.59h.5l-1,1.35L52,123.92H51.5l-.47-.63c-.12-.15-.24-.34-.36-.49h0c-.12.16-.23.32-.34.5l-.45.62h-.49Z"/><path class="f" d="M26,31.77V29.06H25v-.37h1.43V31.8a.49.49,0,0,0,.54.56,1.34,1.34,0,0,0,.51-.12l.12.35a1.66,1.66,0,0,1-.73.16C26.29,32.75,26,32.41,26,31.77Z"/><path class="f" d="M28.3,31.33a1.35,1.35,0,1,1,2.69,0,1.35,1.35,0,1,1-2.69,0Zm2.22,0c0-.63-.35-1.06-.87-1.06s-.87.43-.87,1.06.34,1,.87,1S30.52,32,30.52,31.33Z"/><path class="f" d="M31.67,31.33A1.35,1.35,0,1,1,33,32.75,1.34,1.34,0,0,1,31.67,31.33Zm2.22,0c0-.63-.35-1.06-.87-1.06s-.87.43-.87,1.06.35,1,.87,1S33.89,32,33.89,31.33Z"/><path class="f" d="M35.29,28.69h.47v2.7h0L37.25,30h.53l-2,2v.74h-.47Zm1.06,2.55.28-.31,1.3,1.75h-.52Z"/><path class="f" d="M38.53,32c0-.62.57-.91,2-1a.65.65,0,0,0-.73-.68,1.87,1.87,0,0,0-1,.33l-.19-.32a2.42,2.42,0,0,1,1.22-.39A1,1,0,0,1,41,31v1.67h-.38l0-.37h0a1.81,1.81,0,0,1-1.07.44C39,32.75,38.53,32.47,38.53,32Zm2,0v-.71c-1.17.09-1.52.32-1.52.68s.28.44.59.44A1.51,1.51,0,0,0,40.51,32Z"/><path class="f" d="M42,28.69h.47v1.09l0,.64h0a1.36,1.36,0,0,1,1-.53c.65,0,1,.38,1,1.1v1.69h-.47V31.05c0-.52-.18-.76-.62-.76a1.14,1.14,0,0,0-.86.49v1.9H42Z"/><path class="f" d="M45.2,31.31a1.37,1.37,0,0,1,1.39-1.42,1.17,1.17,0,0,1,1.25,1.28,2.16,2.16,0,0,1,0,.28H45.51v-.36h2l-.11.13c0-.65-.32-1-.82-1a1,1,0,0,0-1,1.06,1,1,0,0,0,1.07,1.07,1.46,1.46,0,0,0,.83-.26l.17.31a1.88,1.88,0,0,1-1.06.32A1.38,1.38,0,0,1,45.2,31.31Z"/><path class="f" d="M48.64,32c0-.62.57-.91,2-1a.64.64,0,0,0-.72-.68,1.9,1.9,0,0,0-1,.33l-.18-.32A2.38,2.38,0,0,1,50,29.89,1,1,0,0,1,51.09,31v1.67H50.7l0-.37h0a1.82,1.82,0,0,1-1.08.44C49.06,32.75,48.64,32.47,48.64,32Zm2,0v-.71c-1.16.09-1.52.32-1.52.68s.28.44.6.44A1.46,1.46,0,0,0,50.62,32Z"/><path class="f" d="M51.9,31.33a1.32,1.32,0,0,1,1.24-1.44,1.2,1.2,0,0,1,.82.35h0l0-.5v-1h.47v4H54l0-.36h0a1.26,1.26,0,0,1-.89.43C52.37,32.75,51.9,32.23,51.9,31.33Zm2,.62V30.6a1,1,0,0,0-.71-.32.93.93,0,0,0-.85,1c0,.65.3,1,.8,1A1,1,0,0,0,53.94,32Z"/><path class="f" d="M58.64,31.33a1.32,1.32,0,0,1,1.24-1.44,1.18,1.18,0,0,1,.82.35h0l0-.5v-1h.46v4h-.38l0-.36h0a1.29,1.29,0,0,1-.9.43C59.12,32.75,58.64,32.23,58.64,31.33Zm2,.62V30.6a1,1,0,0,0-.72-.32.93.93,0,0,0-.85,1c0,.65.3,1,.8,1A1,1,0,0,0,60.69,32Z"/><path class="f" d="M63.45,30.33H62.18V30h1.73v2.72h-.46ZM63.26,29a.35.35,0,0,1,.37-.36A.35.35,0,0,1,64,29a.34.34,0,0,1-.37.36A.35.35,0,0,1,63.26,29Z"/><path class="f" d="M65.45,32.32l.21-.3a2,2,0,0,0,1.19.37c.46,0,.68-.19.68-.42s-.11-.36-.85-.51-1.06-.39-1.06-.8.38-.77,1.13-.77a2,2,0,0,1,1.1.35l-.22.29a1.67,1.67,0,0,0-.92-.28c-.46,0-.63.18-.63.39s.24.34.8.46c.9.19,1.12.42,1.12.84s-.43.81-1.21.81A2.33,2.33,0,0,1,65.45,32.32Z"/><path class="f" d="M69.58,31.62V30.33H68.8V30l.79,0,.07-.88H70V30h1.34v.37H70v1.3c0,.49.17.74.69.74a1.89,1.89,0,0,0,.66-.12l.1.34a2.4,2.4,0,0,1-.86.16C69.84,32.75,69.58,32.3,69.58,31.62Z"/><path class="f" d="M72.24,32c0-.62.57-.91,2-1a.64.64,0,0,0-.72-.68,1.87,1.87,0,0,0-1,.33l-.19-.32a2.38,2.38,0,0,1,1.22-.39A1,1,0,0,1,74.69,31v1.67H74.3l0-.37h0a1.82,1.82,0,0,1-1.08.44C72.66,32.75,72.24,32.47,72.24,32Zm2,0v-.71c-1.16.09-1.52.32-1.52.68s.28.44.6.44A1.46,1.46,0,0,0,74.22,32Z"/><path class="f" d="M75.69,30h.38l0,.46h0a1.41,1.41,0,0,1,1-.53c.64,0,.94.38.94,1.1v1.69h-.46V31.05c0-.52-.18-.76-.63-.76s-.54.16-.86.49v1.9h-.46Z"/><path class="f" d="M79,31.33a1.41,1.41,0,0,1,1.52-1.44,1.37,1.37,0,0,1,1,.4l-.23.29a1.12,1.12,0,0,0-.75-.31,1,1,0,0,0-1.06,1.06,1,1,0,0,0,1.05,1,1.28,1.28,0,0,0,.84-.34l.21.3a1.62,1.62,0,0,1-1.08.43A1.37,1.37,0,0,1,79,31.33Z"/><path class="f" d="M82.29,31.31a1.37,1.37,0,0,1,1.39-1.42,1.17,1.17,0,0,1,1.25,1.28,2.16,2.16,0,0,1,0,.28H82.6v-.36h2l-.12.13c0-.65-.32-1-.82-1a1,1,0,0,0-.94,1.06,1,1,0,0,0,1.07,1.07,1.48,1.48,0,0,0,.83-.26l.17.31a1.88,1.88,0,0,1-1.06.32A1.38,1.38,0,0,1,82.29,31.31Z"/><path class="f" d="M89.82,31.12a3.14,3.14,0,0,1,1.26-2.55l.26.24a3,3,0,0,0,0,4.63l-.26.23A3.11,3.11,0,0,1,89.82,31.12Z"/><path class="f" d="M92.35,30h.37l0,.35h0a.68.68,0,0,1,.62-.42c.27,0,.44.15.52.47.16-.29.33-.47.64-.47s.61.3.61.84v1.95H94.7V30.76c0-.31-.09-.47-.3-.47s-.29.14-.43.42v2h-.43V30.76c0-.31-.08-.47-.28-.47s-.32.14-.45.42v2h-.46Z"/><path class="f" d="M96.08,33.44a3,3,0,0,0,0-4.63l.26-.24a3.21,3.21,0,0,1,0,5.1Z"/><path class="f" d="M236.17,209.29l.22-.31a1.89,1.89,0,0,0,1.18.37c.46,0,.69-.19.69-.42s-.11-.35-.85-.5-1.07-.39-1.07-.8.39-.78,1.14-.78a2.11,2.11,0,0,1,1.1.35l-.23.3a1.62,1.62,0,0,0-.91-.29c-.46,0-.63.19-.63.4s.23.33.8.45c.9.2,1.12.42,1.12.84s-.43.82-1.21.82A2.43,2.43,0,0,1,236.17,209.29Z"/><path class="f" d="M239.67,206.92h.38l0,.35h0a1.45,1.45,0,0,1,.94-.42c.74,0,1.13.55,1.13,1.4a1.32,1.32,0,0,1-1.24,1.47,1.3,1.3,0,0,1-.82-.36h0l0,.52v.92h-.47Zm2,1.33c0-.6-.22-1-.77-1a1.13,1.13,0,0,0-.79.4V209a1.11,1.11,0,0,0,.72.31C241.34,209.32,241.7,208.92,241.7,208.25Z"/><path class="f" d="M242.9,208.28a1.37,1.37,0,0,1,1.39-1.43,1.18,1.18,0,0,1,1.25,1.28,2.33,2.33,0,0,1,0,.29h-2.31v-.36h2l-.12.12c0-.64-.32-1-.82-1a1,1,0,0,0-.94,1.06,1,1,0,0,0,1.07,1.07,1.48,1.48,0,0,0,.83-.26l.17.3a1.88,1.88,0,0,1-1.06.33A1.38,1.38,0,0,1,242.9,208.28Z"/><path class="f" d="M246.27,208.28a1.38,1.38,0,0,1,1.4-1.43,1.18,1.18,0,0,1,1.24,1.28,2.33,2.33,0,0,1,0,.29h-2.31v-.36h2l-.11.12c0-.64-.32-1-.82-1a1,1,0,0,0-1,1.06,1,1,0,0,0,1.07,1.07,1.48,1.48,0,0,0,.83-.26l.17.3a1.88,1.88,0,0,1-1.06.33A1.38,1.38,0,0,1,246.27,208.28Z"/><path class="f" d="M249.6,208.29a1.31,1.31,0,0,1,1.23-1.44,1.16,1.16,0,0,1,.82.35h0l0-.5v-1h.47v4h-.38l0-.36h0a1.3,1.3,0,0,1-.89.43C250.07,209.72,249.6,209.2,249.6,208.29Zm2,.63v-1.36a1,1,0,0,0-.71-.31.93.93,0,0,0-.85,1c0,.65.3,1,.8,1A1,1,0,0,0,251.64,208.92Z"/><path class="f" d="M257.17,208.09a3.14,3.14,0,0,1,1.26-2.55l.26.24a3,3,0,0,0,0,4.62l-.26.24A3.14,3.14,0,0,1,257.17,208.09Z"/><path class="f" d="M259.7,206.92h.37l0,.36h0a.69.69,0,0,1,.63-.43q.4,0,.51.48c.16-.3.33-.48.64-.48s.61.3.61.85v2h-.46v-1.92c0-.31-.09-.48-.29-.48s-.29.14-.44.42v2h-.43v-1.92c0-.31-.08-.48-.28-.48s-.31.14-.45.42v2h-.46Z"/><path class="f" d="M265.15,205.66h.41l-1.84,4.89h-.42Z"/><path class="f" d="M266.52,209.29l.21-.31a1.94,1.94,0,0,0,1.19.37c.46,0,.68-.19.68-.42s-.1-.35-.85-.5-1.06-.39-1.06-.8.38-.78,1.13-.78a2.08,2.08,0,0,1,1.1.35l-.22.3a1.65,1.65,0,0,0-.92-.29c-.46,0-.63.19-.63.4s.24.33.8.45c.9.2,1.12.42,1.12.84s-.43.82-1.21.82A2.4,2.4,0,0,1,266.52,209.29Z"/><path class="f" d="M270.18,210.4a3,3,0,0,0,0-4.62l.25-.24a3.21,3.21,0,0,1,0,5.1Z"/><path class="f" d="M12.3,163.1v-2.7h-1V160h1.43v3.12a.49.49,0,0,0,.54.56,1.26,1.26,0,0,0,.51-.12l.12.34a1.6,1.6,0,0,1-.73.17C12.62,164.09,12.3,163.75,12.3,163.1Z"/><path class="f" d="M14.62,162.66A1.35,1.35,0,1,1,16,164.09,1.34,1.34,0,0,1,14.62,162.66Zm2.22,0c0-.63-.35-1-.87-1s-.87.42-.87,1,.35,1,.87,1S16.84,163.28,16.84,162.66Z"/><path class="f" d="M18,162.66a1.35,1.35,0,1,1,1.35,1.43A1.34,1.34,0,0,1,18,162.66Zm2.22,0c0-.63-.35-1-.87-1s-.87.42-.87,1,.35,1,.87,1S20.21,163.28,20.21,162.66Z"/><path class="f" d="M21.62,160h.46v2.7h0l1.46-1.43h.54l-2,2V164h-.46Zm1.05,2.55.28-.3,1.3,1.75h-.51Z"/><path class="f" d="M24.85,163.31c0-.61.57-.91,2-1a.64.64,0,0,0-.72-.68,1.89,1.89,0,0,0-1,.32l-.18-.31a2.38,2.38,0,0,1,1.22-.4,1,1,0,0,1,1.11,1.13V164h-.39l0-.37h0a1.85,1.85,0,0,1-1.07.44A.83.83,0,0,1,24.85,163.31Zm2,0v-.71c-1.17.09-1.52.32-1.52.68s.28.43.6.43A1.52,1.52,0,0,0,26.83,163.31Z"/><path class="f" d="M28.29,160h.47v1.09l0,.65h0a1.34,1.34,0,0,1,1-.54c.64,0,.94.39.94,1.1V164h-.47v-1.63c0-.52-.18-.76-.62-.76a1.14,1.14,0,0,0-.86.49V164h-.47Z"/><path class="f" d="M31.53,162.65a1.37,1.37,0,0,1,1.39-1.43,1.17,1.17,0,0,1,1.24,1.28,2,2,0,0,1,0,.28H31.83v-.36h2l-.12.13c0-.64-.32-1-.82-1a1,1,0,0,0-.94,1.06,1,1,0,0,0,1.06,1.07,1.44,1.44,0,0,0,.83-.26l.17.3a1.87,1.87,0,0,1-1,.33A1.38,1.38,0,0,1,31.53,162.65Z"/><path class="f" d="M35,163.31c0-.61.58-.91,2-1a.65.65,0,0,0-.73-.68,1.86,1.86,0,0,0-.95.32l-.19-.31a2.38,2.38,0,0,1,1.22-.4,1,1,0,0,1,1.11,1.13V164H37l0-.37h0a1.88,1.88,0,0,1-1.07.44A.84.84,0,0,1,35,163.31Zm2,0v-.71c-1.17.09-1.53.32-1.53.68s.29.43.6.43A1.55,1.55,0,0,0,37,163.31Z"/><path class="f" d="M38.22,162.66a1.32,1.32,0,0,1,1.24-1.44,1.18,1.18,0,0,1,.82.35h0l0-.5v-1h.46v4h-.38l0-.36h0a1.33,1.33,0,0,1-.9.43C38.7,164.09,38.22,163.57,38.22,162.66Zm2.05.63v-1.36a1,1,0,0,0-.72-.31.93.93,0,0,0-.85,1c0,.65.3,1,.8,1A1,1,0,0,0,40.27,163.29Z"/><path class="f" d="M41.6,164.41h2.69v.4H41.6Z"/><path class="f" d="M45,161.29h.37l0,.36h0a.68.68,0,0,1,.62-.43c.27,0,.44.16.52.48.15-.3.32-.48.64-.48s.6.3.6.85v2H47.3V162.1c0-.31-.09-.48-.29-.48s-.29.14-.44.42v2h-.42V162.1c0-.31-.08-.48-.28-.48s-.32.14-.45.42v2H45Z"/><path class="f" d="M49.77,161.67H48.51v-.38h1.73V164h-.47Zm-.19-1.31a.38.38,0,1,1,.38.36A.35.35,0,0,1,49.58,160.36Z"/><path class="f" d="M51.9,161.29h.38l0,.46h0a1.4,1.4,0,0,1,1-.53c.64,0,.94.39.94,1.1V164h-.47v-1.63c0-.52-.18-.76-.62-.76s-.54.16-.86.49V164H51.9Z"/><path class="f" d="M91.69,216.83h.37l0,.36h0a.69.69,0,0,1,.63-.43c.27,0,.43.16.51.47.16-.29.33-.47.64-.47s.61.3.61.84v2H94v-1.92c0-.32-.09-.48-.29-.48s-.3.14-.44.42v2h-.43v-1.92c0-.32-.08-.48-.28-.48s-.31.14-.45.42v2h-.46Z"/><path class="f" d="M95.26,216.83h.38l0,.35h0a1.45,1.45,0,0,1,.94-.42c.74,0,1.13.55,1.13,1.39a1.32,1.32,0,0,1-1.24,1.48,1.3,1.3,0,0,1-.82-.36h0l0,.52v.92h-.47Zm2,1.32c0-.6-.22-1-.77-1a1.13,1.13,0,0,0-.79.4v1.36a1.11,1.11,0,0,0,.72.31C96.93,219.23,97.29,218.83,97.29,218.15Z"/><path class="f" d="M98.51,219.2l.21-.31a1.94,1.94,0,0,0,1.19.37c.46,0,.68-.19.68-.42s-.11-.35-.85-.51-1.06-.38-1.06-.79.38-.78,1.13-.78a2,2,0,0,1,1.1.35l-.22.3a1.6,1.6,0,0,0-.92-.29c-.46,0-.63.19-.63.39s.24.34.8.46c.9.2,1.12.42,1.12.84s-.43.82-1.21.82A2.4,2.4,0,0,1,98.51,219.2Z"/><path class="f" d="M101.82,220h2.69v.39h-2.69Z"/><path class="f" d="M105.3,218.85c0-.61.57-.91,2-1a.64.64,0,0,0-.72-.69,1.94,1.94,0,0,0-1,.33l-.18-.31a2.38,2.38,0,0,1,1.22-.4,1,1,0,0,1,1.11,1.12v1.68h-.39l0-.37h0a1.88,1.88,0,0,1-1.08.44A.83.83,0,0,1,105.3,218.85Zm2,0v-.71c-1.16.09-1.52.32-1.52.68s.28.43.6.43A1.5,1.5,0,0,0,107.28,218.85Z"/><path class="f" d="M109.6,218.64v-2.7h-1v-.38h1.43v3.12a.49.49,0,0,0,.54.56,1.26,1.26,0,0,0,.51-.12l.12.34a1.6,1.6,0,0,1-.73.17C109.92,219.63,109.6,219.29,109.6,218.64Z"/><path class="f" d="M112.12,216.83h.38l0,.35h0a1.45,1.45,0,0,1,.94-.42c.73,0,1.13.55,1.13,1.39a1.33,1.33,0,0,1-1.24,1.48,1.28,1.28,0,0,1-.82-.36h0l0,.52v.92h-.46Zm2,1.32c0-.6-.22-1-.77-1a1.17,1.17,0,0,0-.8.4v1.36a1.15,1.15,0,0,0,.73.31C113.79,219.23,114.15,218.83,114.15,218.15Z"/><path class="f" d="M115.49,215.56H116v1.09l0,.65h0a1.37,1.37,0,0,1,1-.54c.65,0,.94.38.94,1.1v1.7h-.46v-1.64c0-.51-.18-.75-.63-.75s-.54.16-.85.49v1.9h-.47Z"/><path class="f" d="M118.79,218.85c0-.61.57-.91,2-1a.65.65,0,0,0-.72-.69,1.87,1.87,0,0,0-1,.33l-.18-.31a2.38,2.38,0,0,1,1.21-.4,1,1,0,0,1,1.12,1.12v1.68h-.39l0-.37h0a1.88,1.88,0,0,1-1.07.44A.83.83,0,0,1,118.79,218.85Zm2,0v-.71c-1.17.09-1.52.32-1.52.68s.28.43.59.43A1.52,1.52,0,0,0,120.77,218.85Z"/><path class="f" d="M164.77,216.83h.37l0,.36h0a.68.68,0,0,1,.62-.43c.27,0,.44.16.52.47a.69.69,0,0,1,.64-.47c.38,0,.6.3.6.85v1.95h-.46v-1.92c0-.32-.09-.48-.29-.48s-.29.14-.44.42v2H166v-1.92c0-.32-.08-.48-.28-.48s-.32.14-.45.42v2h-.46Z"/><path class="f" d="M168.33,216.83h.39l0,.35h0a1.47,1.47,0,0,1,.95-.42c.73,0,1.12.55,1.12,1.4a1.32,1.32,0,0,1-1.24,1.47,1.28,1.28,0,0,1-.81-.36h0l0,.52v.92h-.47Zm2,1.33c0-.61-.23-1-.77-1a1.17,1.17,0,0,0-.8.4v1.36a1.13,1.13,0,0,0,.73.31C170,219.23,170.37,218.83,170.37,218.16Z"/><path class="f" d="M171.58,219.2l.22-.31a1.89,1.89,0,0,0,1.18.37c.46,0,.69-.19.69-.42s-.11-.35-.85-.5-1.07-.39-1.07-.8.39-.78,1.13-.78a2.12,2.12,0,0,1,1.11.35l-.23.3a1.57,1.57,0,0,0-.91-.29c-.47,0-.63.19-.63.4s.23.33.79.45c.91.2,1.13.42,1.13.84s-.43.82-1.22.82A2.4,2.4,0,0,1,171.58,219.2Z"/><path class="f" d="M174.89,220h2.7v.4h-2.7Z"/><path class="f" d="M178.88,219.26h0l0,.3h-.37v-4h.47v1.09l0,.53h0a1.35,1.35,0,0,1,.91-.42c.74,0,1.14.55,1.14,1.39a1.32,1.32,0,0,1-1.23,1.48A1.35,1.35,0,0,1,178.88,219.26Zm1.6-1.1c0-.61-.22-1-.77-1a1.13,1.13,0,0,0-.79.4v1.36a1.11,1.11,0,0,0,.73.31C180.12,219.23,180.48,218.83,180.48,218.16Z"/><path class="f" d="M181.68,218.19a1.37,1.37,0,0,1,1.39-1.43,1.17,1.17,0,0,1,1.25,1.28,2,2,0,0,1,0,.28H182V218h2l-.12.13c0-.64-.32-1-.82-1a1,1,0,0,0-.94,1.06,1,1,0,0,0,1.07,1.07A1.48,1.48,0,0,0,184,219l.17.3a1.88,1.88,0,0,1-1.06.33A1.38,1.38,0,0,1,181.68,218.19Z"/><path class="f" d="M185.83,218.5v-1.29h-.78v-.35l.79,0,.07-.87h.38v.87h1.34v.38h-1.34v1.29c0,.49.17.75.69.75a1.79,1.79,0,0,0,.65-.13l.11.34a2.43,2.43,0,0,1-.86.17C186.08,219.63,185.83,219.17,185.83,218.5Z"/><path class="f" d="M188.49,218.85c0-.61.57-.91,2-1a.64.64,0,0,0-.72-.69,1.94,1.94,0,0,0-1,.33l-.18-.31a2.38,2.38,0,0,1,1.22-.4,1,1,0,0,1,1.11,1.13v1.67h-.39l0-.37h0a1.91,1.91,0,0,1-1.08.44A.83.83,0,0,1,188.49,218.85Zm2,0v-.71c-1.16.09-1.52.32-1.52.68s.28.43.6.43A1.5,1.5,0,0,0,190.47,218.85Z"/><line class="g" x1="60.31" y1="162.56" x2="102.97" y2="162.56"/><line class="g" x1="177.27" y1="122.8" x2="234.72" y2="122.8"/><line class="g" x1="102.97" y1="162.56" x2="177.27" y2="122.8"/></svg>